/* XPM */
static char *_8fbd243e988461cdf917028e12108adglzuoXErDBPvZmTK[] = {
/* columns rows colors chars-per-pixel */
"64 64 7 1 ",
"  c #B89543",
". c #C7A14B",
"X c #DAAE48",
"o c #EDBE52",
"O c #B0AAAA",
"+ c #C6C4C4",
"@ c gray87",
/* pixels */
"oooooooooooooooooooooooooooooooooooooooooooooooooooooooooooooooo",
"oooooooooooooooooooooooooooooooooooooooooooooooooooooooooooooooo",
"oooooooooooooooooooooooooooooooooooooooooooooooooooooooooooooooo",
"oooooooooooooooooooooooooooooooooooooooooooooooooooooooooooooooo",
"oooooooooooooooooooooooooooooooooooooooooooooooooooooooooooooooo",
"oooooooooooooooooooooooooooooooooooooooooooooooooooooooooooooooo",
"oooooooooooooooooooooooooooooooooooooooooooooooooooooooooooooooo",
"oooooooooooooooooooooooooooooooooooooooooooooooooooooooooooooooo",
"oooooooooooooooooooooooooooooooooooooooooooooooooooooooooooooooo",
"oooooooooooooooooooooooooooooooooooooooooooooooooooooooooooooooo",
"oooooooooooooooooooooooooooooooooooooooooooooooooooooooooooooooo",
"oooooooooooooooooooooooooooooooooooooooooooooooooooooooooooooooo",
"oooooooooooooooooooooooooooooooooooooooooooooooooooooooooooooooo",
"Xooooooooooooooooooooooooooooooooooooooooooooooooooooooooooooooo",
"Xooooooooooooooooooooooooooooooooooooooooooooooooooooooooooooooo",
"oooooooooooooooooooooooooooooooooooooooooooooooooooooooooooooooo",
"oooooooooooooooooooooooooooooooooooooooooooooooooooooooooooooooo",
"ooooooooooooooooooooooooooooo++@@@@@@@@ooooooooooooooooooooooooo",
"ooooooooooooooooooooooooooooo++@@@@@@@@ooooooooooooooooooooooooo",
"ooooooooooooooooooooooooooo++@@@@@@@@@@@@ooooooooooooooooooooooo",
"ooooooooooooooooooooooooooo++@@@@@@@@@@@@ooooooooooooooooooooooo",
"ooooooooooooooooooooooooooo++@@OO++@@OO++ooooooooooooooooooooooo",
"ooooooooooooooooooooooooooo++@@OO++@@OO++ooooooooooooooooooooooo",
"ooooooooooooooooooooooooooo++@@@@@@@@@@@@ooooooooooooooooooooooo",
"ooooooooooooooooooooooooooo++@@@@@@@@@@@@ooooooooooooooooooooooo",
"ooooooooooooooooooooooooooo..++@@@@@@@@@@ooooooooooooooooooooooo",
"ooooooooooooooooooooooooooo..++@@@@@@@@@@ooooooooooooooooooooooo",
"ooooooooooooooooooooooooo......++@@..++@@..ooooooooooooooooooooo",
"ooooooooooooooooooooooooo......++@@..++@@..ooooooooooooooooooooo",
"ooooooooooooooooooooooooooo..............ooooooooooooooooooooooo",
"ooooooooooooooooooooooooooo..............ooooooooooooooooooooooo",
"ooooooooooooooooooooooooooooooooooooooooooooooooooo++@@ooooooooo",
"ooooooooooooooooooooooooooooooooooooooooooooooooooo++@@ooooooooo",
"ooooooooooooooooooooooooooooooooooooooo..++@@@@@@@@@@@@@@..ooooo",
"ooooooooooooooooooooooooooooooooooooooo..++@@@@@@@@@@@@@@..ooooo",
"ooooooooooooooooooooooooooooooooooooooooo..++@@....  ....ooooooo",
"ooooooooooooooooooooooooooooooooooooooooo..++@@....  ....ooooooo",
"oooooooooooooooooooooooooooooooooooooooooooooooooooooooooooooooo",
"oooooooooooooooooooooooooooooooooooooooooooooooooooooooooooooooo",
"oooooooooooooooooooooooooooooooooXXooooooooooooooooooooooooooooo",
"oooooooooooooooooooooooooooooooooXXooooooooooooooooooooooooooooo",
"oooooooooooooooooooooooooooooooooooooooooooooooooooooooooooooooo",
"oooooooooooooooooooooooooooooooooooooooooooooooooooooooooooooooo",
"oooooooooooooooooooooooooooooooooooooooooooooooooooooooooooooooo",
"oooooooooooooooooooooooooooooooooooooooooooooooooooooooooooooooo",
"oooooooooooooooooooooooooooooooooooooooooooooooooooooooooooooooo",
"oooooooooooooooooooooooooooooooooooooooooooooooooooooooooooooooo",
"oooooooooooooooooooooooooooooooooooooooooooooooooooooooooooooooo",
"oooooooooooooooooooooooooooooooooooooooooooooooooooooooooooooooo",
"oooooooooooooooooooooooooooooooooooooooooooooooooooooooooooooooo",
"oooooooooooooooooooooooooooooooooooooooooooooooooooooooooooooooo",
"oooooooooooooooooooooooooooooooooooooooooooooooooooooooooooooooo",
"oooooooooooooooooooooooooooooooooooooooooooooooooooooooooooooooo",
"oooooooooooooooooooooooooooooooooooooooooooooooooooooooooooooooo",
"oooooooooooooooooooooooooooooooooooooooooooooooooooooooooooooooo",
"oooooooooooooooooooooooooooooooooooooooooooooooooooooooooooooooo",
"oooooooooooooooooooooooooooooooooooooooooooooooooooooooooooooooo",
"oooooooooooooooooooooooooooooooooooooXXooooooooooooooooooooooooo",
"oooooooooooooooooooooooooooooooooooooXXooooooooooooooooooooooooo",
"oooooooooooooooooooooooooooooooooooooooooooooooooooooooooooooooo",
"oooooooooooooooooooooooooooooooooooooooooooooooooooooooooooooooo",
"oooooooooooooooooooooooooooooooooooooooooooooooooooooooooooooooo",
"oooooooooooooooooooooooooooooooooooooooooooooooooooooooooooooooo",
"oooooooooooooooooooooooooooooooooooooooooooooooooooooooooooooooo"
};
