/* XPM */
static char *_5eb421614a24ecdad697c9900a37c93tALXteBiCozIM6sT[] = {
/* columns rows colors chars-per-pixel */
"64 64 143 2 ",
"   c #1F0A13",
".  c #250C13",
"X  c #2C0E14",
"o  c #320F14",
"O  c #2D1116",
"+  c #351115",
"@  c #3A1115",
"#  c #351619",
"$  c #3B1518",
"%  c #341E1A",
"&  c #3B1A19",
"*  c #3D231C",
"=  c #3F281D",
"-  c #431516",
";  c #461917",
":  c #481718",
">  c #461C1B",
",  c #4C1B1A",
"<  c #521D1A",
"1  c #44261D",
"2  c #4D261D",
"3  c #41291D",
"4  c #4C2B1D",
"5  c #57231E",
"6  c #5B231D",
"7  c #572C1E",
"8  c #592D1F",
"9  c #46391D",
"0  c #62251E",
"q  c #65291D",
"w  c #68281F",
"e  c #4F2822",
"r  c #572922",
"t  c #5D2E21",
"y  c #5D3220",
"u  c #5A3E25",
"i  c #652C22",
"p  c #6D2B21",
"a  c #722D22",
"s  c #6C3126",
"d  c #6C3824",
"f  c #673629",
"g  c #7D3324",
"h  c #753D2B",
"j  c #4C4C20",
"k  c #6C4D2A",
"l  c #75562E",
"z  c #7C532D",
"x  c #7C582E",
"c  c #526124",
"v  c #546825",
"b  c #833626",
"n  c #863926",
"m  c #893A27",
"M  c #853D2A",
"N  c #8A3A28",
"B  c #903F27",
"V  c #864320",
"C  c #8D4A20",
"Z  c #89492A",
"A  c #994727",
"S  c #94432C",
"D  c #865B2F",
"F  c #864731",
"G  c #8A4D34",
"H  c #914634",
"J  c #924931",
"K  c #9B4A30",
"L  c #A35426",
"P  c #AD5A27",
"I  c #A3562E",
"U  c #A35633",
"Y  c #A55934",
"T  c #AA5738",
"R  c #AD5A39",
"E  c #B25F3C",
"W  c #956A32",
"Q  c #927037",
"!  c #997539",
"~  c #9C783A",
"^  c #BC6B27",
"/  c #A66134",
"(  c #AB6636",
")  c #A5633F",
"_  c #AC623B",
"`  c #B4613D",
"'  c #B36F3A",
"]  c #A07338",
"[  c #A97A3A",
"{  c #B5713A",
"}  c #B9763D",
"|  c #CB7927",
" . c #C9772C",
".. c #C17335",
"X. c #CC7C33",
"o. c #8C544B",
"O. c #8B7443",
"+. c #947D47",
"@. c #AF6944",
"#. c #BD6A42",
"$. c #916862",
"%. c #997063",
"&. c #B77F69",
"*. c #AE7C71",
"=. c #C16C43",
"-. c #C57146",
";. c #C97447",
":. c #5C852B",
">. c #5D892C",
",. c #629B2F",
"<. c #6DA539",
"1. c #6FAB3A",
"2. c #A5803C",
"3. c #B0823D",
"4. c #B8813D",
"5. c #DC8F3A",
"6. c #BA9443",
"7. c #C68941",
"8. c #C98E42",
"9. c #CC9445",
"0. c #C69C46",
"q. c #CF9845",
"w. c #D09846",
"e. c #CE8E57",
"r. c #D39458",
"t. c #E29F55",
"y. c #C7A14B",
"u. c #CDA248",
"i. c #D1A449",
"p. c #DAA54A",
"a. c #D7AB4B",
"s. c #DCA94B",
"d. c #DEB04D",
"f. c #E0AC4C",
"g. c #E3B44E",
"h. c #E6B850",
"j. c #ECBC51",
"k. c #ECBD52",
"l. c #EDBE52",
"z. c #DCB293",
"x. c #CAACA0",
"c. c #DABBA2",
"v. c #EFC495",
/* pixels */
"l.l.l.l.l.l.l.l.l.l.l.l.l.l.l.l.l.l.l.l.l.l.l.l.l.l.l.l.l.l.l.l.l.l.l.l.l.l.l.l.l.l.l.l.l.l.l.l.l.l.l.l.l.l.l.l.l.l.l.l.l.l.l.l.",
"l.l.l.l.l.l.l.l.l.l.l.l.l.l.l.l.l.l.l.l.l.l.l.l.l.l.l.l.l.l.l.l.l.l.l.l.l.l.l.l.l.l.l.l.l.l.l.l.l.l.l.l.l.l.l.l.l.l.l.l.l.l.l.l.",
"l.l.l.l.l.l.l.l.l.l.l.l.l.l.l.l.l.l.l.l.l.l.l.l.l.l.l.l.l.l.l.l.l.l.l.l.l.l.l.l.l.l.l.l.l.l.l.l.l.l.l.l.l.l.l.l.l.l.l.l.l.l.l.l.",
"l.l.l.l.l.l.l.l.l.l.l.l.l.l.l.l.l.l.l.l.l.l.l.l.l.l.l.l.l.l.l.l.l.l.l.l.l.l.l.l.l.l.l.l.l.l.l.l.l.l.l.l.l.l.l.l.l.l.l.l.l.l.l.l.",
"l.l.l.l.l.l.l.l.l.l.l.l.l.l.l.l.l.l.l.l.l.l.l.l.l.l.l.l.l.l.l.l.l.l.l.l.l.l.l.l.l.l.l.l.l.l.l.l.l.l.l.l.l.l.l.l.l.l.l.l.l.l.l.l.",
"l.l.l.l.l.l.l.l.l.l.l.l.l.l.l.l.l.l.l.l.l.l.l.l.l.l.l.l.l.l.l.l.l.l.l.l.l.l.l.l.l.l.l.l.l.l.l.l.l.l.l.l.l.l.l.l.l.l.l.l.l.l.l.l.",
"l.l.l.l.l.l.l.l.l.l.l.l.l.l.l.+.+.l.l.l.l.l.l.l.l.l.l.l.l.l.l.l.l.l.l.l.l.l.l.l.l.l.l.l.l.l.l.l.l.l.l.l.l.l.l.l.l.l.l.l.l.l.l.l.",
"l.l.l.l.l.l.l.l.l.l.l.l.l.l.l.+.+.l.l.l.l.l.l.l.l.l.l.l.l.l.l.l.l.l.l.l.l.l.l.l.l.l.l.l.l.l.l.l.l.l.l.l.l.l.l.l.l.l.l.l.l.l.l.l.",
"l.l.l.l.l.l.l.l.l.l.l.l.l.l.l.l.l.l.l.l.l.l.l.l.l.l.l.l.l.l.l.l.l.l.l.l.l.l.l.l.l.l.l.l.l.l.l.l.l.l.l.l.l.l.l.l.l.l.l.l.l.l.l.l.",
"l.l.l.l.l.l.l.l.l.l.l.l.l.l.l.l.l.l.l.l.l.l.l.l.l.l.l.l.l.l.j.l.l.l.l.l.l.l.l.l.l.l.l.l.l.l.l.l.l.l.l.l.l.l.l.l.l.l.l.l.l.l.l.l.",
"l.l.l.l.l.l.l.l.l.l.l.l.l.l.l.l.l.l.l.l.l.l.l.l.l.l.l.l.l.l.l.l.l.l.l.l.l.l.l.l.l.l.l.l.l.l.l.l.l.l.l.l.l.l.l.l.l.l.l.l.l.l.l.l.",
"l.l.l.l.l.l.l.l.l.l.l.l.l.l.l.l.l.l.l.l.l.l.l.l.l.l.l.l.l.l.l.l.l.l.l.l.l.l.l.l.l.l.l.l.l.l.l.l.l.l.l.l.l.l.l.l.l.l.l.l.l.l.l.l.",
"l.l.l.l.l.l.l.l.l.l.l.l.l.l.l.l.l.l.l.l.l.l.l.l.l.l.l.l.l.l.l.l.l.l.l.l.l.l.l.l.l.l.l.l.l.l.l.l.l.l.l.l.l.l.l.l.l.l.l.l.l.l.l.l.",
"l.l.l.l.l.l.l.l.l.l.l.l.l.l.l.l.l.l.l.l.l.l.l.l.l.l.l.l.l.l.l.l.l.l.l.l.l.l.l.l.l.l.l.l.l.l.l.l.l.l.l.l.l.l.l.l.l.l.l.l.l.l.l.l.",
"l.l.l.l.l.l.l.l.l.l.l.l.l.l.l.l.l.l.l.l.l.l.l.l.l.l.l.l.l.l.l.l.l.l.l.l.l.l.l.l.l.l.l.l.l.l.l.l.l.l.l.l.l.l.l.l.l.l.l.l.l.l.l.l.",
"l.l.l.l.l.l.l.l.l.l.l.l.l.l.l.l.l.l.l.l.l.l.l.l.l.l.l.l.l.l.l.l.l.l.l.l.l.l.l.l.l.l.l.l.l.l.l.l.l.l.l.l.l.l.l.l.l.l.l.l.l.l.l.l.",
"l.l.l.l.l.l.l.l.l.l.l.l.l.l.l.l.l.l.l.l.l.l.l.l.l.l.l.l.l.l.l.l.l.l.l.l.l.l.l.l.l.l.l.l.l.l.l.l.l.l.l.l.l.l.l.l.l.l.l.l.l.l.l.l.",
"l.l.l.l.l.l.l.l.l.l.l.l.l.l.l.l.l.l.l.l.l.l.l.l.l.l.l.l.l.l.l.l.l.l.l.l.l.l.l.l.l.l.l.k.l.l.l.l.l.l.l.l.l.l.l.l.l.l.l.l.l.l.l.l.",
"l.l.l.l.l.l.l.l.l.l.l.l.l.l.l.l.l.l.l.l.l.l.l.l.j.j.l.l.l.l.l.l.l.l.j.j.l.l.l.l.l.l.l.l.l.l.h.l.l.l.l.l.l.l.l.l.l.l.l.l.l.l.l.l.",
"l.l.l.l.l.l.l.l.l.l.l.l.l.l.l.l.l.l.l.l.g.j.h.l.j.j.j.l.h.l.j.j.j.j.j.j.j.j.j.l.l.k.l.l.l.l.l.l.l.l.l.l.l.l.l.l.l.l.l.l.l.l.l.l.",
"l.l.l.l.l.l.l.l.l.l.l.l.l.l.l.l.l.l.l.h.u.6.8.0.q.q.w.w.w.w.w.w.9.w.w.w.w.w.w.w.w.w.w.s.h.l.l.l.l.l.l.+.+.l.l.l.l.l.l.l.l.l.l.l.",
"l.l.l.l.l.l.l.l.l.l.l.l.l.l.l.l.l.h.h.a.! x F W / ( ( ( ( ( ( ( ( ( ( ( ( ( ( ( ( ( ' 7.f.h.l.l.l.l.l.+.+.l.l.l.l.l.l.l.l.l.l.l.",
"l.l.l.l.l.l.l.l.l.l.l.l.l.l.l.l.l.h.i.3.k 1 > w b N S S S S S S S S S S S S S S S S U ' w.s.j.j.l.l.l.l.l.l.l.l.l.l.l.l.l.l.l.l.",
"l.l.l.l.l.l.l.l.l.l.l.l.l.l.l.l.l.y.! k 4 & $ 2 s J T T E R R R E R R R R R R R R R R ` ( 5.p.l.l.l.l.l.l.l.l.l.l.l.l.l.l.l.l.l.",
"l.l.l.l.l.l.l.l.l.l.l.l.l.l.l.d.i.2.k = @ @ + + 7 F _ ` #.#.=.=.=.#.=.=.=.=.=.=.=.=.=.` T { 9.f.h.l.l.l.l.l.l.l.l.l.l.l.l.l.l.l.",
"l.l.l.l.l.l.l.l.l.l.l.l.l.l.h.y.~ l 4 O o o + X > f G ) -.;.;.;.;.;.;.;.;.;.;.;.;.;.=.` T ( } 9.p.h.l.l.l.l.l.l.l.l.l.l.l.l.l.l.",
"l.l.l.l.l.l.l.l.l.l.l.l.l.l.d.~ u % & + @ @ @ @ # & r G #.;.;.;.;.;.;.;.;.;.;.;.;.;.;.=.=.E U Y 8.h.l.l.l.l.l.l.l.l.l.l.l.l.l.l.",
"l.l.l.l.l.l.l.l.l.l.l.l.l.l.d.! 4 O + @ @ @ @ @ o . & h R ` ` ` E E E ` E ` ` ` ` ` ` ` E U M Z } g.l.l.l.l.l.l.l.l.l.l.l.l.l.l.",
"l.l.l.l.l.l.l.l.l.l.l.l.l.l.s.Q = . o @ @ @ @ @ o . # i G K K K K K K K K K K K K K K K K M i d [ g.l.l.l.l.l.l.l.l.l.l.l.l.l.l.",
"l.l.l.l.l.l.l.l.l.l.l.l.l.l.d.Q 3 . o @ @ @ @ @ o . + 5 b m m m N N N N B N N N m m m N m a < 8 ] g.l.l.l.l.l.l.l.l.l.l.l.l.l.l.",
"l.l.l.l.l.l.l.l.l.l.l.l.l.+.O.Q = . o @ @ @ @ @ o . + 5 b b m m b N N N N N N N m m m b m a < t ] d.l.l.l.l.l.l.l.l.l.l.l.l.l.l.",
"l.l.l.l.l.l.l.l.l.l.l.l.l.+.O.Q 3 . o + @ @ @ @ o . O 5 g b b b b b b N N H H B N m b b b p , y ] s.l.l.l.l.l.l.l.l.l.l.l.l.l.l.",
"l.l.l.l.l.l.l.l.l.l.l.l.l.l.d.Q * . . o o X o X . . X > 0 w i 0 i p p p o.*.&.@.L V p q q < : 8 ! f.l.j.l.l.l.l.l.l.l.l.l.l.l.l.",
"l.l.l.l.l.l.l.l.l.l.l.l.l.h.d.Q e . . . . . . X . . . $ < < < < < < < r $.x.z.e.^ V q < < < - 8 ] f.l.l.l.l.l.l.l.l.l.l.l.l.l.l.",
"l.l.l.l.l.l.l.l.l.l.l.l.l.l.d.Q *   . . . . . . . . . @ < < < < < < < i %.c.v.t.| C q < < : - 8 ] s.l.l.l.l.l.l.l.l.l.l.l.l.l.l.",
"l.l.l.l.l.l.l.l.l.l.l.l.j.l.d.Q =   X o o o o o X . X , p a a a a a a g E r.t.9.| L b a p 0 < 8 ] g.l.l.l.l.l.l.l.l.l.l.l.l.l.l.",
"l.l.l.l.l.l.l.l.l.l.l.l.l.l.d.Q = . X @ @ @ @ @ X . O r g b b b b b b m U } X.| | A N b n w < 8 ] g.l.l.l.l.l.l.l.l.l.l.l.l.l.l.",
"l.l.l.l.l.l.l.l.l.l.l.l.l.l.d.Q = . o @ @ @ @ @ o . X 6 b N N m m m N m A L P P P A B N b a < 8 ! s.l.l.l.l.l.l.l.l.l.l.l.l.l.l.",
"l.l.l.l.l.l.l.l.l.l.l.l.l.l.d.Q = . o @ @ @ @ @ o . O r b b m m m m m m N B B B m m m m m a < 8 W g.l.l.l.l.l.l.l.l.l.l.l.l.l.l.",
"l.l.l.l.l.l.l.l.l.l.l.l.l.l.d.Q 3 . o @ @ @ @ @ o . + 6 b m m m m m m m m m N m m m m m m p < 8 W f.l.l.l.l.l.l.l.l.l.l.l.l.l.l.",
"l.l.l.l.l.l.l.l.l.l.l.l.l.l.d.Q 3 . O @ @ @ @ @ X . + 6 g m m m m m m b m m m b m m m m m p < 8 ] d.l.l.l.l.l.l.l.l.l.l.l.l.l.l.",
"l.l.l.l.l.l.l.l.l.l.l.l.l.l.d.Q = . X + + @ @ o X . O > p g b m m m m m m m m m m m b b a 0 : 8 ] g.l.l.l.l.l.l.l.l.l.l.l.l.l.l.",
"l.l.l.l.l.l.l.l.l.l.l.l.l.l.d.! 3 . X . o o o X .   . $ 5 q g n b b b m b m m b m b b a 6 < ; 3 c g.l.l.l.l.l.l.l.l.l.l.l.l.l.l.",
"l.l.l.l.l.l.l.l.l.l.l.l.l.l.d.~ u % O   X o . .   . . + @ 5 q g b g g b g g g g g g a 0 - ; 2 9 v g.l.l.l.l.l.l.l.l.l.l.l.l.l.l.",
"l.l.l.l.l.l.l.l.l.l.l.l.l.l.h.0.~ l 3 . . . . . . . X X X & , r 6 6 6 6 6 0 6 6 < 0 6 , - y D v v h.l.l.l.l.l.l.l.+.+.l.l.l.l.l.",
"l.l.l.l.l.l.l.l.l.l.l.l.l.l.j.d.u.2.k = * * * * = 2 2 1 1 4 i y i 0 t q q 2 2 y i q 8 8 7 z 3.>.,.l.l.l.l.l.l.l.l.+.+.l.l.l.l.l.",
"l.l.l.l.l.l.l.l.l.l.l.l.l.l.l.l.l.y.~ l l l l l x D D x x x x Q D D D D D j j D D D D j j [ i.,.,.l.l.l.l.l.l.l.l.l.l.l.l.l.l.l.",
"l.l.l.l.l.l.l.l.l.l.l.l.l.l.l.l.l.h.a.u.u.u.u.u.u.u.i.i.u.u.y.y.i.i.i.i.i.>.:.i.i.i.i.>.:.s.g.,.,.l.l.l.l.l.l.l.l.l.l.l.l.l.l.l.",
"l.l.l.l.l.l.l.l.l.l.l.l.l.l.l.l.l.l.h.h.h.h.h.h.h.h.h.h.h.h.h.h.h.h.h.1.<.,.,.h.h.h.h.,.,.g.l.,.,.l.l.l.l.l.l.l.l.l.l.l.l.l.l.l.",
"l.l.l.l.l.l.l.l.l.l.l.l.l.l.l.l.l.l.l.l.l.l.l.l.l.l.l.l.l.l.l.l.l.l.h.1.1.,.,.l.l.l.l.,.,.l.l.,.,.l.l.l.l.l.l.l.l.l.l.l.l.l.l.l.",
"l.l.l.l.l.l.l.l.l.l.l.l.l.l.l.l.l.l.l.l.l.l.l.l.l.l.l.l.l.l.l.l.l.l.l.,.,.,.,.1.1.,.,.,.,.1.1.,.,.l.l.,.,.l.l.l.l.l.l.l.l.l.l.l.",
"l.l.l.l.l.l.l.l.l.l.l.l.l.l.l.l.l.l.l.l.l.l.l.l.l.l.l.l.l.l.l.l.l.l.h.,.,.,.,.1.1.,.,.,.,.1.1.,.,.l.l.,.,.l.l.l.l.l.l.l.l.l.l.l.",
"l.l.l.l.l.l.l.l.l.l.l.l.l.l.l.l.l.l.l.l.l.l.l.l.l.l.l.y.y.1.1.,.,.1.1.,.,.1.1.1.1.,.,.1.1.1.1.1.1.l.l.,.,.,.,.y.y.l.l.l.l.l.l.l.",
"l.l.l.l.l.l.l.l.l.l.l.l.l.l.l.l.l.l.l.l.l.l.l.l.l.l.l.y.y.1.1.,.,.1.1.,.,.1.1.1.1.,.,.1.1.1.1.1.1.l.l.,.,.,.,.y.y.l.l.l.l.l.l.l.",
"l.l.l.l.l.l.l.l.l.l.l.l.l.l.l.l.l.l.l.l.l.l.l.l.l.l.l.l.l.y.y.y.y.1.1.y.y.1.1.1.1.y.y.1.1.y.y.1.1.y.y.y.y.y.y.l.l.l.l.l.l.l.l.l.",
"l.l.l.l.l.l.l.l.l.l.l.l.l.l.l.l.l.l.l.l.l.l.l.l.l.l.l.l.l.y.y.y.y.1.1.y.y.1.1.1.1.y.y.1.1.y.y.1.1.y.y.y.y.y.y.l.l.l.l.l.l.l.l.l.",
"l.l.l.l.l.l.l.l.l.l.l.l.l.l.l.l.l.l.l.l.l.l.l.l.l.l.l.l.l.l.l.l.l.y.y.l.l.1.1.y.y.l.l.1.1.l.l.y.y.l.l.1.1.l.l.l.l.l.l.l.l.l.l.l.",
"l.l.l.l.l.l.l.l.l.l.l.l.l.l.l.l.l.l.l.l.l.l.l.l.l.l.l.l.l.l.l.l.l.y.y.l.l.1.1.y.y.l.l.1.1.l.l.y.y.l.l.1.1.l.l.l.l.l.l.l.l.l.l.l.",
"l.l.l.l.l.l.l.l.l.l.l.l.l.l.l.l.l.l.l.l.l.l.l.l.l.l.l.l.l.l.l.l.l.l.l.l.l.y.y.l.l.l.l.y.y.l.l.l.l.l.l.6.4.l.l.l.l.l.l.l.l.l.l.l.",
"l.l.l.l.l.l.l.l.l.l.l.l.l.l.l.l.l.l.l.l.l.l.l.l.l.l.l.l.l.l.l.l.l.l.l.l.l.y.y.l.l.l.l.y.y.l.l.l.l.l.l.6.0.l.l.l.l.l.l.l.l.l.l.l.",
"l.l.l.l.l.l.l.l.l.l.l.l.l.l.l.l.l.l.l.l.l.l.l.l.l.l.l.l.l.l.l.l.l.l.l.l.l.l.l.l.l.l.l.l.l.l.l.l.l.l.l.l.l.l.l.l.l.l.l.l.l.l.l.l.",
"l.l.l.l.l.l.l.l.l.l.l.l.l.l.l.l.l.l.l.l.l.l.l.l.l.l.l.l.l.l.l.l.l.l.l.l.l.l.l.l.l.l.l.l.l.l.l.l.l.l.l.l.l.l.l.l.l.l.l.l.l.l.l.l.",
"l.l.l.l.l.l.l.l.l.l.l.l.l.l.l.l.l.l.l.l.l.l.l.l.l.l.l.l.l.l.l.l.l.l.l.l.l.l.l.l.l.+.2.l.l.l.l.l.l.l.l.l.l.l.l.l.l.l.l.l.l.l.l.l.",
"l.l.l.l.l.l.l.l.l.l.l.l.l.l.l.l.l.l.l.l.l.l.l.l.l.l.l.l.l.l.l.l.l.l.l.l.l.l.l.l.l.O.2.l.l.l.l.l.l.l.l.l.l.l.l.l.l.l.l.l.l.l.l.l."
};
