/* XPM */
static char *_0b6d681f4f84ce7e1b066de31f54973idDEZQB8CYvHKoib[] = {
/* columns rows colors chars-per-pixel */
"64 64 10 1 ",
"  c black",
". c gray40",
"X c #947D47",
"o c #629B2F",
"O c #6FAB3A",
"+ c #B89543",
"@ c #C7A14B",
"# c #EDBE52",
"$ c gray70",
"% c gray85",
/* pixels */
"################################################################",
"################################################################",
"################################################################",
"################################################################",
"################################################################",
"################################################################",
"###############XX###############################################",
"###############XX###############################################",
"################################################################",
"################################################################",
"################################################################",
"################################################################",
"################################################################",
"################################################################",
"################################################################",
"################################################################",
"################################################################",
"################################################################",
"################################################################",
"################################################################",
"##############         ############################XX###########",
"##############         ############################XX###########",
"##############         #########################################",
"###########   $$$$$$...   ######################################",
"###########   $$$$$$...   ######################################",
"###########   $$$$$$...   ######################################",
"########   %%%$$$   $$$...                              ########",
"########   %%%$$$   $$$...                              ########",
"########   %%%$$$   $$$...                              ########",
"########   %%%   ###   %%%...$$$$$$$$$$$$$$$...$$$...   ########",
"########   %%%   ###   %%%...$$$$$$$$$$$$$$$...$$$...   ########",
"########   %%%   ###   %%%...$$$$$$$$$$$$$$$...$$$...   ########",
"########   %%%$$$   ...$$$            %%%      $$$      ########",
"########   %%%$$$   ...$$$            %%%      $$$      ########",
"########   %%%$$$   ...$$$            %%%      $$$      ########",
"###########   %%%%%%$$$   #########      ###   %%%   ###########",
"###########   %%%%%%$$$   #########      ###   %%%   ###########",
"###########   %%%%%%$$$   #########      ###   %%%   ###########",
"##############         #####################         ###########",
"##############         #####################         ###########",
"##############         #####################         ###########",
"################################################################",
"###############################################oo###############",
"###############################################oo###############",
"#####################################oo########oo########XX#####",
"#####################################oo########oo########XX#####",
"#####################################oo####oo##oo###############",
"#####################################oo####oo##oo###############",
"###################################OOoo####oo##oo###############",
"###################################OOoo####oo##oo###############",
"###################################ooooOOooooOOoo##oo###########",
"###################################ooooOOooooOOoo##oo###########",
"###########################@@OOooOOooOOOOooOOOOOO##oooo@@#######",
"###########################@@OOooOOooOOOOooOOOOOO##oooo@@#######",
"#############################@@@@OO@@OOOO@@OO@@OO@@@@@@#########",
"#############################@@@@OO@@OOOO@@OO@@OO@@@@@@#########",
"#################################@@##OO@@##OO##@@##OO###########",
"#################################@@##OO@@##OO##@@##OO###########",
"#####################################@@####@@######++###########",
"#####################################@@####@@######++###########",
"################################################################",
"################################################################",
"#########################################XX#####################",
"#########################################XX#####################"
};
