/* XPM */
static char *_23630b568c24768963faf4122a5e7a8hcVraUhknd2Nfi65[] = {
/* columns rows colors chars-per-pixel */
"64 64 71 1 ",
"  c black",
". c #040301",
"X c #0B0B0B",
"o c #0E0E0E",
"O c #0C1306",
"+ c #181308",
"@ c #1A1509",
"# c #1E180A",
"$ c #161616",
"% c #1B1B1B",
"& c #17240B",
"* c #262015",
"= c #2E281D",
"- c #382D13",
"; c #222222",
": c gray15",
"> c #2A2A2A",
", c gray18",
"< c #322D21",
"1 c #323232",
"2 c #4E4E4E",
"3 c #51514F",
"4 c gray35",
"5 c #626262",
"6 c #646464",
"7 c #676767",
"8 c DimGray",
"9 c gray44",
"0 c #747474",
"q c #797979",
"w c #816D3E",
"e c #947D47",
"r c #568729",
"t c #578A2A",
"y c #629B2F",
"u c #6FAB3A",
"i c #A78537",
"p c #B5913F",
"a c #BF983F",
"s c #B79340",
"d c #B89441",
"f c #B99542",
"g c #B89543",
"h c #C7A14B",
"j c #CFA648",
"k c #D3A949",
"l c #E9BB51",
"z c #EDBE52",
"x c #8C8C8A",
"c c gray58",
"v c #979797",
"b c #989898",
"n c #9D9D9D",
"m c #9F9F9F",
"M c #A0A0A0",
"N c #A2A2A2",
"B c #A4A4A4",
"V c gray66",
"C c #AAA9A8",
"Z c #ACACAC",
"A c gray70",
"S c #B4B4B4",
"D c gray72",
"F c #BBBBBB",
"G c gray",
"H c #C1C1C1",
"J c #C5C5C5",
"K c #CBCBCB",
"L c gray82",
"P c gray83",
"I c gray85",
/* pixels */
"zzzzzzzzzzzzzzzzzzzzzzzzzzzzzzzzzzzzzzzzzzzzzzzzzzzzzzzzzzzzzzzz",
"zzzzzzzzzzzzzzzzzzzzzzzzzzzzzzzzzzzzzzzzzzzzzzzzzzzzzzzzzzzzzzzz",
"zzzzzzzzzzzzzzzzzzzzzzzzzzzzzzzzzzzzzzzzzzzzzzzzzzzzzzzzzzzzzzzz",
"zzzzzzzzzzzzzzzzzzzzzzzzzzzzzzzzzzzzzzzzzzzzzzzzzzzzzzzzzzzzzzzz",
"zzzzzzzzzzzzzzzzzzzzzzzzzzzzzzzzzzzzzzzzzzzzzzzzzzzzzzzzzzzzzzzz",
"zzzzzzzzzzzzzzzzzzzzzzzzzzzzzzzzzzzzzzzzzzzzzzzzzzzzzzzzzzzzzzzz",
"zzzzzzzzzzzzzzzeezzzzzzzzzzzzzzzzzzzzzzzzzzzzzzzzzzzzzzzzzzzzzzz",
"zzzzzzzzzzzzzzzeezzzzzzzzzzzzzzzzzzzzzzzzzzzzzzzzzzzzzzzzzzzzzzz",
"zzzzzzzzzzzzzzzzzzzzzzzzzzzzzzzzzzzzzzzzzzzzzzzzzzzzzzzzzzzzzzzz",
"zzzzzzzzzzzzzzzzzzzzzzzzzzzzzzzzzzzzzzzzzzzzzzzzzzzzzzzzzzzzzzzz",
"zzzzzzzzzzzzzzzzzzzzzzzzzzzzzzzzzzzzzzzzzzzzzzzzzzzzzzzzzzzzzzzz",
"zzzzzzzzzzzzzzzzzzzzzzzzzzzzzzzzzzzzzzzzzzzzzzzzzzzzzzzzzzzzzzzz",
"zzzzzzzzzzzzzzzzzzzzzzzzzzzzzzzzzzzzzzzzzzzzzzzzzzzzzzzzzzzzzzzz",
"zzzzzzzzzzzzzzzzzzzzzzzzzzzzzzzzzzzzzzzzzzzzzzzzzzzzzzzzzzzzzzzz",
"zzzzzzzzzzzzzzzzzzzzzzzzzzzzzzzzzzzzzzzzzzzzzzzzzzzzzzzzzzzzzzzz",
"zzzzzzzlkjjjjjjjjjjklzzzzzzzzzzzzzzzzzzzzzzzzzzzzzzzzzzzzzzzzzzz",
"zzzzzzzk-##########-kzzzzzzzzzzzzzzzzzzzzzzzzzzzzzzzzzzzzzzzzzzz",
"zzzzzzzj#          #jzzzzzzzzzzzzzzzzzzzzzzzzzzzzzzzzzzzzzzzzzzz",
"zzzzzzzj#          #jzzzzzzzzzzzzzzzzzzzzzzzzzzzzzzzzzzzzzzzzzzz",
"zzzlkjjd=$$$$$$$ooo*sjjklzzzzzzzzzzzzzzzzzzzzzzzzzzzzzzzzzzzzzzz",
"zzzk-##=xnnnmmmv5443*##-kzzzzzzzzzzzzzzzzzzzzzzzzzzeezzzzzzzzzzz",
"zzzj#  $mAAAAAAC8774o  #jzzzzzzzzzzzzzzzzzzzzzzzzzzeezzzzzzzzzzz",
"zzzj#  $mAAAAAAB0784o  #jzzzzzzzzzzzzzzzzzzzzzzzzzzzzzzzzzzzzzzz",
"jjjd<%%,MAACmnmv0085%oo*sjjjjjjjjjjjjjjjjjjjjjjjjjjjjjjjjjjjjjjj",
"###<CGGGSAAm>$$>vBCN5442*#######################################",
"   %GIIPDAAm$  $mAAV0774o                                       ",
"   %GIIPAAAm$  $nAAV8874o                                       ",
"   %GIILNmmx=##=xnmbq007%ooo$$$$$$$$$$$$$$$$$$$$oooo$$$$oooX    ",
"   %GIIH,$$=djjd=$$,AKKH7445vmnnnnnnmmmmmmmnnnmv5445cmnv5442o   ",
"   %GIIG%  #jzzj#  %GIIK0770NAAAAAAAAAAAAAAAAAAC9788CAAB8774o   ",
"   %GIIG%  #jeej#  %GIIK0778VAAAAAAAAAAASAAAAAAB8770VAAC0774o   ",
"   %GIIH1$$=dwws*oo:DPPJ7445vmnnnnnnnnnmSDSAmnmv7445CAAC5442X   ",
"   %GIILNmmx=##*2446ZDAN;ooo$$$$$$$$$$$,GPPG,$$$ooo;mAAm;XoX    ",
"   %GIIPSAAm$  o4779CAAm$              %GIIG%      $mAAm$       ",
"   %GIILDAAm$  o4779CAAm$              %GIIG%      $mASm$       ",
"###<CGGGDDDB,%%:7890vmMx=##########@.  %BGGC<##@.  $NDDN$  .@###",
"jjjd<%%1GPPLHGGFZCCb>$$=djjjjjjjjjki+   %%%<djjp@  %DPPD%  @sjjj",
"zzzk#  %GIIIIIIPDAAm$  #jzzzzzzzzzzd@      #jzzj#  %GIIG%  #jzzz",
"zzzj#  %GIIIIIIPSAAm$  #jzzzzzzzzzzk#      #jzza@  %GIIG%  #jzzz",
"zzzk-##<CGGGGGGFNnnx=##-kzzzzzzzzzzk-######-kzza#  %BHGB%  #jzzz",
"zzzlkjjd<%%%%%%%$$$=djjklzzzzzzzzzzlkjjjjjjklzzj#   %%%%   #jzzz",
"zzzzzzzj#          #jzzzzzzzzzzzzzzzzzzzzzzzzzzj#          #jzzz",
"zzzzzzzj#          #jzzzzzzzzzzzzzzzzzzzzzzzzzztO          #jzzz",
"zzzzzzzk-##########-kzzzzzzzzzzzzzzzzzzzzzzzzzzt&##########-kzzz",
"zzzzzzzlkjjjjjjjjjjklzzzzzzzzzzzzzzzzyyzzzzzzzzytkjjjjjjjwwklzzz",
"zzzzzzzzzzzzzzzzzzzzzzzzzzzzzzzzzzzzzyyzzzzzzzzyyzzzzzzzzeezzzzz",
"zzzzzzzzzzzzzzzzzzzzzzzzzzzzzzzzzzzzzyyzzzzyyzzyyzzzzzzzzzzzzzzz",
"zzzzzzzzzzzzzzzzzzzzzzzzzzzzzzzzzzzzzyyzzzzyyzzyyzzzzzzzzzzzzzzz",
"zzzzzzzzzzzzzzzzzzzzzzzzzzzzzzzzzzzuuyyzzzzyyzzyyzzzzzzzzzzzzzzz",
"zzzzzzzzzzzzzzzzzzzzzzzzzzzzzzzzzzzuuyyzzzzyyzzyyzzzzzzzzzzzzzzz",
"zzzzzzzzzzzzzzzzzzzzzzzzzzzzzzzzzzzyyyyuuyyyyuuyyzzyyzzzzzzzzzzz",
"zzzzzzzzzzzzzzzzzzzzzzzzzzzzzzzzzzzyyyyuuyyyyuuyyzzyyzzzzzzzzzzz",
"zzzzzzzzzzzzzzzzzzzzzzzzzzzhhuuyyuuyyuuuuyyuuuuuuzzyyyyhhzzzzzzz",
"zzzzzzzzzzzzzzzzzzzzzzzzzzzhhuuyyuuyyuuuuyyuuuuuuzzyyyyhhzzzzzzz",
"zzzzzzzzzzzzzzzzzzzzzzzzzzzzzhhhhuuhhuuuuhhuuhhuuhhhhhhzzzzzzzzz",
"zzzzzzzzzzzzzzzzzzzzzzzzzzzzzhhhhuuhhuuuuhhuuhhuuhhhhhhzzzzzzzzz",
"zzzzzzzzzzzzzzzzzzzzzzzzzzzzzzzzzhhzzuuhhzzuuzzhhzzuuzzzzzzzzzzz",
"zzzzzzzzzzzzzzzzzzzzzzzzzzzzzzzzzhhzzuuhhzzuuzzhhzzuuzzzzzzzzzzz",
"zzzzzzzzzzzzzzzzzzzzzzzzzzzzzzzzzzzzzhhzzzzhhzzzzzzgdzzzzzzzzzzz",
"zzzzzzzzzzzzzzzzzzzzzzzzzzzzzzzzzzzzzhhzzzzhhzzzzzzggzzzzzzzzzzz",
"zzzzzzzzzzzzzzzzzzzzzzzzzzzzzzzzzzzzzzzzzzzzzzzzzzzzzzzzzzzzzzzz",
"zzzzzzzzzzzzzzzzzzzzzzzzzzzzzzzzzzzzzzzzzzzzzzzzzzzzzzzzzzzzzzzz",
"zzzzzzzzzzzzzzzzzzzzzzzzzzzzzzzzzzzzzzzzzeezzzzzzzzzzzzzzzzzzzzz",
"zzzzzzzzzzzzzzzzzzzzzzzzzzzzzzzzzzzzzzzzzeezzzzzzzzzzzzzzzzzzzzz"
};
