/* XPM */
static char *_c422fd255fe45d5a5733e8d542fbe22is3olfJT9QDuLRJ0[] = {
/* columns rows colors chars-per-pixel */
"64 64 173 2 ",
"   c #2B0D10",
".  c #341014",
"X  c #3A1216",
"o  c #3D1318",
"O  c #3B1A1A",
"+  c #3D241A",
"@  c #3E2222",
"#  c #44161B",
"$  c #4C131A",
"%  c #451F1A",
"&  c #4B191E",
"*  c #42201D",
"=  c #4B241C",
"-  c #56301F",
";  c #4F1A20",
":  c #521C21",
">  c #5B1F25",
",  c #4D2A24",
"<  c #522121",
"1  c #5D2126",
"2  c #552C23",
"3  c #4C302F",
"4  c #5A3123",
"5  c #5A302E",
"6  c #573431",
"7  c #553934",
"8  c #5D3B32",
"9  c #602027",
"0  c #612128",
"q  c #652A2D",
"w  c #6C2E2B",
"e  c #613723",
"r  c #6D302B",
"t  c #72342D",
"y  c #753B2E",
"u  c #673233",
"i  c #6B3837",
"p  c #7B3E30",
"a  c #6E4829",
"s  c #764C2A",
"d  c #7A512B",
"f  c #6B433C",
"g  c #654A3F",
"h  c #7F4231",
"j  c #715038",
"k  c #5C6731",
"l  c #644A43",
"z  c #684E49",
"x  c #734C43",
"c  c #6C5245",
"v  c #6E544A",
"b  c #78574A",
"n  c #755C52",
"m  c #786056",
"M  c #7C6459",
"N  c #E61A2E",
"B  c #FF1A32",
"V  c #F12538",
"C  c #81572F",
"Z  c #8C5135",
"A  c #875A35",
"S  c #925A36",
"D  c #965D3A",
"F  c #98663B",
"G  c #A36F3B",
"H  c #A7793B",
"J  c #805E50",
"K  c #895E55",
"L  c #BA4546",
"P  c #947D47",
"I  c #91714C",
"U  c #836454",
"Y  c #866C5A",
"T  c #996D5C",
"R  c #887A5D",
"E  c #B37D40",
"W  c #A36D50",
"Q  c #866D62",
"!  c #906860",
"~  c #8B7562",
"^  c #8E7B63",
"/  c #8D756C",
"(  c #917E64",
")  c #977D6D",
"_  c #BF7B6F",
"`  c #D75758",
"'  c #E65257",
"]  c #D37C74",
"[  c #629B2F",
"{  c #679736",
"}  c #6A9936",
"|  c #6FAB3A",
" . c #73A53F",
".. c #7A934A",
"X. c #73A440",
"o. c #AF833D",
"O. c #88845B",
"+. c #8D915F",
"@. c #A6834B",
"#. c #B68041",
"$. c #B88342",
"%. c #BE8944",
"&. c #B79045",
"*. c #B99444",
"=. c #A88D5E",
"-. c #AD915E",
";. c #B6975C",
":. c #968062",
">. c #9B8461",
",. c #95826A",
"<. c #99856E",
"1. c #9D8A73",
"2. c #9D8876",
"3. c #A18C6B",
"4. c #A08D75",
"5. c #A4917A",
"6. c #AC997F",
"7. c #B19C7D",
"8. c #A1A675",
"9. c #BEA374",
"0. c #C38E45",
"q. c #D98B44",
"w. c #C19444",
"e. c #C99647",
"r. c #C89847",
"t. c #C39551",
"y. c #F19C4B",
"u. c #C7A14B",
"i. c #CFA048",
"p. c #D4A54A",
"a. c #D8A74C",
"s. c #D6A84A",
"d. c #DBAB4D",
"f. c #D4AC56",
"g. c #DCB355",
"h. c #E2B34F",
"j. c #EBA753",
"k. c #E5B650",
"l. c #E7B952",
"z. c #EDBE52",
"x. c #E5BB5C",
"c. c #E9BC58",
"v. c #CEAB6D",
"b. c #D0AB65",
"n. c #DDB664",
"m. c #DBB76A",
"M. c #C4A775",
"N. c #CEB27C",
"B. c #D3B475",
"V. c #D8B570",
"C. c #D0B279",
"Z. c #E0B963",
"A. c #AA9583",
"S. c #AD9A83",
"D. c #AE9989",
"F. c #B09E87",
"G. c #B29E8B",
"H. c #B6A38C",
"J. c #B8A68F",
"K. c #BFAB8F",
"L. c #B9A791",
"P. c #BDAB94",
"I. c #C69686",
"U. c #C6AF87",
"Y. c #C2AD8D",
"T. c #CBB181",
"R. c #C0AC90",
"E. c #C2AF9A",
"W. c #C4B29C",
"Q. c #C9B6A1",
"!. c #D8C4B0",
"~. c #E5D3BC",
"^. c #F6E4CC",
/* pixels */
"z.z.z.z.z.z.z.z.z.z.z.z.z.z.z.z.z.z.z.z.z.z.z.z.z.z.z.z.z.z.z.z.z.z.z.z.z.z.z.z.z.z.z.z.z.z.z.z.z.z.z.z.z.z.z.z.z.z.z.z.z.z.z.z.",
"z.z.z.z.z.z.z.z.z.z.z.z.z.z.z.z.z.z.z.z.z.z.z.z.z.z.z.z.z.z.z.z.z.z.z.z.z.z.z.z.z.z.z.z.z.z.z.z.z.z.z.z.z.z.z.z.z.z.z.z.z.z.z.z.",
"z.z.z.z.z.z.z.z.z.z.z.z.z.z.z.z.z.z.z.z.z.z.z.z.z.z.z.z.z.z.z.z.z.z.z.z.z.z.z.z.z.z.z.z.z.z.z.z.z.z.z.z.z.z.z.z.z.z.z.z.z.z.z.z.",
"z.z.z.z.z.z.z.z.z.z.z.z.z.z.z.z.z.z.z.z.z.z.z.z.z.z.z.z.z.z.z.z.z.z.z.z.z.z.z.z.z.z.z.z.z.z.z.z.z.z.z.z.z.z.z.z.z.z.z.z.z.z.z.z.",
"z.z.z.z.z.z.z.z.z.z.z.z.z.z.z.z.z.z.z.z.z.z.z.z.z.z.z.z.z.z.z.z.z.z.z.z.z.z.z.z.z.z.z.z.z.z.z.z.z.z.z.z.z.z.z.z.z.z.z.z.z.z.z.z.",
"z.z.z.z.z.z.z.z.z.z.z.z.z.z.z.z.z.z.z.z.z.z.z.z.z.z.z.z.z.z.z.z.z.z.z.z.z.z.z.z.z.z.z.z.z.z.z.z.z.z.z.z.z.z.z.z.z.z.z.z.z.z.z.z.",
"z.z.z.z.z.z.z.z.z.z.z.z.z.z.z.P P z.z.z.z.z.z.z.z.k.$.E $.$.$.$.$.$.$.$.$.E 0.h.z.z.z.z.z.z.z.z.z.z.z.z.z.z.z.z.z.z.z.z.z.z.z.z.",
"z.z.z.z.z.z.z.z.z.z.z.z.z.z.z.P P z.z.z.z.z.d.d.d.0.q 0 0 0 0 0 0 0 0 0 0 0 0 0.d.d.d.z.z.z.z.z.z.z.z.z.z.z.z.z.z.z.z.z.z.z.z.z.",
"z.z.z.z.z.z.z.z.z.z.z.z.z.z.z.z.z.z.z.z.z.a.p t t t 0 0 0 0 0 0 0 0 0 0 0 0 0 r t t p a.z.z.z.z.z.z.z.z.z.z.z.z.z.z.z.z.z.z.z.z.",
"z.z.z.z.z.z.z.z.z.z.z.z.z.z.z.z.z.z.z.E S Z 0 0 0 0 0 0 0 0 0 0 0 0 0 0 0 0 0 0 0 0 0 Z e.z.z.z.z.z.z.z.z.z.z.z.z.z.z.z.z.z.z.z.",
"z.z.z.z.z.z.z.z.z.z.z.z.z.z.z.z.z.k.#.Z 9 9 0 0 0 0 9 0 0 0 9 0 0 0 0 0 9 9 9 9 0 0 0 0 S e.z.z.z.z.z.z.z.z.z.z.z.z.z.z.z.z.z.z.",
"z.z.z.z.z.z.z.z.z.z.z.z.z.z.z.z.k.e.w 0 0 0 0 0 9 0 0 0 0 0 0 9 0 9 > 9 > > > > 0 0 0 0 9 Z d.l.z.z.z.z.z.z.z.z.z.z.z.z.z.z.z.z.",
"z.z.z.z.z.z.z.z.z.z.z.z.z.z.z.z.%.t 0 0 0 9 0 0 0 0 0 0 9 9 9 9 0 > X X X X . X : 9 0 0 0 q h d.z.z.z.z.z.z.z.z.z.z.z.z.z.z.z.z.",
"z.z.z.z.z.z.z.z.z.z.z.z.z.z.z.z.E 0 0 0 0 0 0 9 0 0 0 & # # # # # # . . . . . . o $ # > 9 9 t a.z.z.z.z.z.z.z.z.z.z.z.z.z.z.z.z.",
"z.z.z.z.z.z.z.z.z.z.z.z.z.z.z.z.E 0 0 0 0 0 9 0 > : : o . . . . . . . . . . . . . . . & : > w a.z.z.z.z.z.z.z.z.z.z.z.z.z.z.z.z.",
"z.z.z.z.z.z.z.z.z.z.z.z.z.z.z.z.%.t 0 0 0 9 > > & . X . . . X X . . X . . . . . X X . . . # w a.z.z.z.z.z.z.z.z.z.z.z.z.z.z.z.z.",
"z.z.z.z.z.z.z.z.z.z.z.z.z.z.z.z.k.r.w 9 9 > o X . X > # . X 1 1 # # > X . . . . & & . . . # r a.z.z.z.z.z.z.z.z.z.z.z.z.z.z.z.z.",
"z.z.z.z.z.z.z.z.z.z.z.z.z.z.z.z.z.h.#.Z : # . . . # 9 < # X & 1 > ; # X # : : ; > : . . . e 0.k.z.z.z.z.z.z.z.z.z.z.z.z.z.z.z.z.",
"z.z.z.z.z.z.z.z.z.z.z.z.z.z.z.z.z.z.z.o.Z d d d - X ; : 2 6 6 f q & # # $ : ; ; & & X a d G z.z.z.z.z.z.z.z.z.z.z.z.z.z.z.z.z.z.",
"z.z.z.z.z.z.z.z.z.z.z.z.z.z.z.z.z.z.z.z.z.z.z.z.H = = * g ~ T T f * > q > $ $ = = = - p.z.l.z.z.z.z.z.z.z.z.z.z.z.z.z.z.z.z.z.z.",
"z.z.z.z.z.z.z.z.z.z.z.z.z.z.z.z.z.z.z.z.z.z.z.z.k.p.s.( Q T V V L b X n L N N q.s.s.s.l.z.z.z.z.z.z.z.P P z.z.z.z.z.z.z.z.z.z.z.",
"z.z.z.z.z.z.z.z.z.z.z.z.z.z.z.z.z.z.z.z.z.z.z.z.z.z.z.9.S._ B B ` 1.c 1.` B B y.z.z.z.z.z.z.z.z.z.z.z.P P z.z.z.z.z.z.z.z.z.z.z.",
"z.z.z.z.z.z.z.z.z.z.z.z.z.z.z.z.z.z.z.z.z.z.z.z.z.z.z.T.P.I.' ' 9.H.4.H.] ' ' j.z.z.z.z.z.z.z.z.z.z.z.z.z.z.z.z.z.z.z.z.z.z.z.z.",
"z.z.z.z.z.z.z.z.z.z.z.z.z.z.z.z.z.z.z.z.z.z.z.z.z.z.x.T.P.P.Q.P.I.W.P.W.E.P.K.x.z.z.z.z.z.z.z.z.z.z.z.z.z.z.z.z.z.z.z.z.z.z.z.z.",
"z.z.z.z.z.z.z.z.z.z.z.z.z.z.z.z.z.z.z.z.z.z.z.z.z.x.U.P.P.Q.^.Q.!.~.W.~.!.E.R.Z.z.z.z.z.z.z.z.z.z.z.z.z.z.z.z.z.z.z.z.z.z.z.z.z.",
"z.z.z.z.z.z.z.z.z.z.z.z.z.z.z.z.z.z.z.z.z.z.z.V.N.T.P.P.) M ^./ H.Q.z Q.D.M R.T.Z.z.z.z.z.z.z.z.z.z.z.z.z.z.z.z.z.z.z.z.z.z.z.z.",
"z.z.z.z.z.z.z.z.z.z.z.z.z.z.z.z.z.z.z.z.z.z.m.U.P.P.P.P.m 3 D.3 v /   / z 7 P.P.N.Z.z.z.z.z.z.z.z.z.z.z.z.z.z.z.z.z.z.z.z.z.z.z.",
"z.z.z.z.z.z.z.z.z.z.z.z.z.z.z.z.z.z.z.c.c.n.K.P.P.P.P.P.m     @ @         7 P.P.P.T.x.z.z.z.z.z.z.z.z.z.z.z.z.z.z.z.z.z.z.z.z.z.",
"z.z.z.z.z.z.z.z.z.z.z.z.z.z.z.z.z.z.z.C.Y.Y.P.P.P.P.P.P.m     G.Q         7 P.P.P.R.U.x.z.z.z.z.z.z.z.z.z.z.z.z.z.z.z.z.z.z.z.z.",
"z.z.z.z.z.z.z.z.z.z.z.z.z.z.z.z.z.c.B.Y.P.P.P.L.H.5.P.P.5.v   Q.Q./   / z 7 P.P.S.A.P.T.Z.z.z.z.z.z.z.z.z.z.z.z.z.z.z.z.z.z.z.z.",
"z.z.z.z.z.z.z.z.z.z.z.z.z.P P z.z.c.7.H.P.P.P.H.1.,.K.P.P.A.l P.~.Q.l Q.A.M P.P.5.,.S.P.C.Z.z.z.z.z.z.z.z.z.z.z.z.z.z.z.z.z.z.z.",
"z.z.z.z.z.z.z.z.z.z.z.z.z.@.P l.l.f.:.S.P.P.H.1.:.1.P.P.P.P.P.P.P.P.L.L.L.P.P.P.5.^ ( F.R.T.c.z.z.z.z.z.z.z.z.z.z.z.z.z.z.z.z.z.",
"z.z.z.z.z.z.z.z.z.z.z.z.z.z.z.z.f.( ^ F.P.H.<.( ;.n.P.P.P.P.P.P.P.P.P.P.P.P.P.P.5.^ ^ ,.6.K.U.c.z.z.z.z.z.z.z.z.z.z.z.z.z.z.z.z.",
"z.z.z.z.z.z.z.z.z.z.z.z.z.z.z.z.t.^ ^ F.F.) x Y ;.x.R.P.P.P.P.P.P.P.P.P.P.P.P.P.M.;.^ ^ 6.P.Y.x.z.z.z.z.z.z.z.z.z.z.z.z.z.z.z.z.",
"z.z.z.z.z.z.z.z.z.z.z.z.z.z.z.e.W J ~ 5.4.Y 0 f @.x.P.P.P.P.P.P.P.E.P.P.P.P.P.P.V.g.;.:.1.F.K.x.z.z.z.z.z.z.z.z.z.z.z.z.z.z.z.z.",
"z.z.z.z.z.z.z.z.z.z.z.z.z.z.z.S 1 r U R R U u % A m.P.P.P.P.P.P.P.P.P.P.P.P.P.P.B.c.l.>.^ 1.K.n.z.z.z.z.z.z.z.z.z.z.z.z.z.z.z.z.",
"z.z.z.z.z.z.z.z.z.z.z.z.z.z.z.d & 0 q U b i Y i U U.P.P.P.P.P.P.P.P.P.P.P.P.P.P.K.N.l.>.^ 1.P.Y.m.z.z.z.z.z.z.z.z.z.z.z.z.z.z.z.",
"z.z.z.z.z.z.z.z.z.z.z.z.z.z.z.0.C & 1 5 5 1 8 x <.P.P.P.P.P.P.P.P.P.P.P.P.P.P.P.P.N.l.j 7 c 2.K t.z.z.z.z.z.z.z.z.z.z.z.z.z.z.z.",
"z.z.z.z.z.z.z.z.z.z.z.z.z.z.z.z.w.s < o # > s b ) P.P.P.P.P.P.P.P.P.P.P.P.P.P.P.P.U.b., . , b q H z.z.z.z.z.z.z.z.z.z.z.z.z.z.z.",
"z.z.z.z.z.z.z.z.z.z.z.z.z.z.z.z.z.p.= * % - h.D T P.P.P.P.P.P.P.P.P.P.P.P.P.P.P.P.P.H.u O # 1 r o.z.z.z.z.z.z.z.z.z.z.z.z.z.z.z.",
"z.z.z.z.z.z.z.z.z.z.z.z.z.z.z.z.z.p.w H G y h.h.v.P.P.P.P.P.P.P.P.P.P.P.P.P.P.P.P.P.P.f.d . = w.l.z.z.z.z.z.z.z.z.z.z.z.z.z.z.z.",
"z.z.z.z.z.z.z.z.z.z.z.z.z.z.z.z.z.h.0.d.p.0.l.z.V.P.P.P.P.P.P.P.P.P.P.P.P.P.P.P.P.P.P.x.w.o.o.h.z.z.z.z.z.z.z.z.z.z.z.z.z.z.z.z.",
"z.z.z.z.z.z.z.z.z.z.z.z.z.z.z.z.z.z.z.z.z.z.z.z.V.P.P.P.P.P.P.P.P.P.P.P.P.P.P.P.H.S.7.g.z.z.z.[ [ z.z.z.z.z.z.z.z.z.z.z.z.z.z.z.",
"z.z.z.z.z.z.z.z.z.z.z.z.z.z.z.z.z.z.z.z.z.z.z.c.B.P.P.L.J.J.P.P.P.P.P.P.P.P.P.H.1.:.3.g.z.z.z.[ [ z.z.z.z.z.z.z.z.z.z.z.z.z.z.z.",
"z.z.z.z.z.z.z.z.z.z.z.z.z.z.z.z.z.z.z.z.z.z.z.C.K.P.P.4.,.1.P.P.P.P.P.P.P.P.L.1.^ =.k.l.z.z.z.[ [ z.z.z.z.z.z.z.l.P @.z.z.z.z.z.",
"z.z.z.z.z.z.z.z.z.z.z.z.z.z.z.z.z.z.z.z.z.z.z.N.P.P.P.F.1.,.4.1.D.P.P.P.S.1.1.,.-.f.z.z.z.z.z.[ [ z.z.z.z.z.z.z.z.P P z.z.z.z.z.",
"z.z.z.z.z.z.z.z.z.z.z.z.z.z.z.z.z.z.z.z.z.z.z.T.P.P.P.P.S.1.4.,.2.S.S.A.1.^ ^ ^ -.f.z.[ [ z.z.[ [ z.z.z.z.z.z.z.z.z.z.z.z.z.z.z.",
"z.z.z.z.z.z.z.z.z.z.z.z.z.z.z.z.z.z.z.z.z.z.z.N.P.P.P.P.P.P.H.<./ / ^ ^ ^ ^ ^ ^ ( -.z.[ [ z.z.[ [ z.z.z.z.z.z.z.z.z.z.z.z.z.z.z.",
"z.z.z.z.z.z.z.z.z.z.z.z.z.z.z.z.z.z.z.z.z.z.z.T.P.P.P.P.P.H.,.^ ^ ^ ^ ^ ^ ^ ^ ( O.-.z.[ [ z.z.[ [ z.z.z.z.z.z.z.z.z.z.z.z.z.z.z.",
"z.z.z.z.z.z.z.z.z.z.z.z.z.z.z.z.z.z.z.z.z.z.z.T.P.P.P.P.S.1.^ ^ ^ ^ ^ ^ ^ ^ ^ ~ R ;.z.[ [ z.z.[ [ z.z.z.z.z.z.z.z.z.z.z.z.z.z.z.",
"z.z.z.z.z.z.z.z.z.z.z.z.z.z.z.z.z.z.z.z.z.z.z.N.P.P.P.F.1.^ ^ ^ ^ ^ ^ ^ ^ ^ ( 2.3.+.[ [ [ | | [ [ z.z.[ [ z.z.z.z.z.z.z.z.z.z.z.",
"z.z.z.z.z.z.z.z.z.z.z.z.z.z.z.z.z.z.z.z.z.z.z.M.H.P.L.<.^ ^ >.>.>.>.>.R R ( <.G.P.8.[ [ [ | | [ [ z.z.[ [ z.z.z.z.z.z.z.z.z.z.z.",
"z.z.z.z.z.z.z.z.z.z.z.z.z.z.z.z.z.z.z.z.z.z.l.D ! H.,.^ ^ O. .{ { X. .{ ..<.H.E.P.8.[ | | | | | | z.z.[ [ [ [ u.u.z.z.z.z.z.z.z.",
"z.z.z.z.z.z.z.z.z.z.z.z.z.z.z.z.z.z.z.z.z.d.C w u v ^ b I ..| [ [ | | [ k n L.n R +.[ | | | | | | z.z.[ [ [ [ u.u.z.z.z.z.z.z.z.",
"z.z.z.z.z.z.z.z.z.z.z.z.z.z.z.z.z.z.z.z.z.i.< : & < z S %.u.u.u.u.| | u.C 5 Q 3 6 I u.| | u.u.| | u.u.u.u.u.u.z.z.z.z.z.z.z.z.z.",
"z.z.z.z.z.z.z.z.z.z.z.z.z.z.z.z.z.z.z.z.z.s.p 2 4 w = *.z.u.u.u.u.| | u.F 2 + 4 = a u.| | u.u.| | u.u.u.u.u.u.z.z.z.z.z.z.z.z.z.",
"z.z.z.z.z.z.z.z.z.z.z.z.z.z.z.z.z.z.z.z.z.z.d.s.s.d.s.l.z.z.z.z.z.u.u.z.h.} } &.o.h.z.| | z.z.u.u.z.z.| | z.z.z.z.z.z.z.z.z.z.z.",
"z.z.z.z.z.z.z.z.z.z.z.z.z.z.z.z.z.z.z.z.z.z.z.z.z.z.z.z.z.z.z.z.z.u.u.z.z.| | u.u.z.z.| | z.z.u.u.z.z.| | z.z.z.z.z.z.z.z.z.z.z.",
"z.z.z.z.z.z.z.z.z.z.z.z.z.z.z.z.z.z.z.z.z.z.z.z.z.z.z.z.z.z.z.z.z.z.z.z.z.u.u.z.z.z.z.u.u.z.z.z.z.z.z.*.*.z.z.z.z.z.z.z.z.z.z.z.",
"z.z.z.z.z.z.z.z.z.z.z.z.z.z.z.z.z.z.z.z.z.z.z.z.z.z.z.z.z.z.z.z.z.z.z.z.z.u.u.z.z.z.z.u.u.z.z.z.z.z.z.*.*.z.z.z.z.z.z.z.z.z.z.z.",
"z.z.z.z.z.z.z.z.z.z.z.z.z.z.z.z.z.z.z.z.z.z.z.z.z.z.z.z.z.z.z.z.z.z.z.z.z.z.z.z.z.z.z.z.z.z.z.z.z.z.z.z.z.z.z.z.z.z.z.z.z.z.z.z.",
"z.z.z.z.z.z.z.z.z.z.z.z.z.z.z.z.z.z.z.z.z.z.z.z.z.z.z.z.z.z.z.z.z.z.z.z.z.z.z.z.z.z.z.z.z.z.z.z.z.z.z.z.z.z.z.z.z.z.z.z.z.z.z.z.",
"z.z.z.z.z.z.z.z.z.z.z.z.z.z.z.z.z.z.z.z.z.z.z.z.z.z.z.z.z.z.z.z.z.z.z.z.z.z.z.z.z.O.@.z.z.z.z.z.z.z.z.z.z.z.z.z.z.z.z.z.z.z.z.z.",
"z.z.z.z.z.z.z.z.z.z.z.z.z.z.z.z.z.z.z.z.z.z.z.z.z.z.z.z.z.z.z.z.z.z.z.z.z.z.z.z.z.F O.z.z.z.z.z.z.z.z.z.z.z.z.z.z.z.z.z.z.z.z.z."
};
