/* XPM */
static char *_d178a27c89541f88f5bd374599ea4ba6UrdPEuIqjQ5r1Up[] = {
/* columns rows colors chars-per-pixel */
"64 64 179 2 ",
"   c #2B0D10",
".  c #2E1012",
"X  c #341014",
"o  c #391216",
"O  c #3D1318",
"+  c #3A1919",
"@  c #3D1D1E",
"#  c #3E2122",
"$  c #44161B",
"%  c #48171D",
"&  c #401E1C",
"*  c #4A191E",
"=  c #4A281D",
"-  c #52261F",
";  c #4F1A20",
":  c #511C21",
">  c #5B1F25",
",  c #402423",
"<  c #552122",
"1  c #5F2027",
"2  c #542B26",
"3  c #57332A",
"4  c #513533",
"5  c #553A36",
"6  c #5A3C36",
"7  c #612128",
"8  c #65292C",
"9  c #692B2B",
"0  c #643129",
"q  c #6E302C",
"w  c #6E3C2A",
"e  c #72342D",
"r  c #6C3737",
"t  c #613C32",
"y  c #683836",
"u  c #653C3A",
"i  c #6D3D3A",
"p  c #793533",
"a  c #6B4327",
"s  c #78462B",
"d  c #744B2A",
"f  c #7A512B",
"g  c #644539",
"h  c #69433C",
"j  c #70433E",
"k  c #7F573F",
"l  c #654944",
"z  c #6A4D45",
"x  c #784845",
"c  c #6D5348",
"v  c #765748",
"b  c #7A5E55",
"n  c #7A6256",
"m  c #80131F",
"M  c #801620",
"N  c #FF1A32",
"B  c #825A2E",
"V  c #854933",
"C  c #895334",
"Z  c #965C38",
"A  c #985F39",
"S  c #956737",
"D  c #986D36",
"F  c #9C633A",
"G  c #9D7337",
"H  c #A76F3D",
"J  c #A9763D",
"K  c #A77C3B",
"L  c #874741",
"P  c #815850",
"I  c #B85650",
"U  c #947D47",
"Y  c #816052",
"T  c #826C5A",
"R  c #886959",
"E  c #89715D",
"W  c #94745D",
"Q  c #B37E42",
"!  c #AD695C",
"~  c #877164",
"^  c #8C7760",
"/  c #8E7B63",
"(  c #8D7669",
")  c #927E65",
"_  c #977F74",
"`  c #CB4C4D",
"'  c #DC5D5E",
"]  c #D6746F",
"[  c #D57670",
"{  c #629B2F",
"}  c #688635",
"|  c #669733",
" . c #6C943A",
".. c #6D9A3A",
"X. c #6FA739",
"o. c #6FAB3A",
"O. c #7D874F",
"+. c #779C45",
"@. c #7BA947",
"#. c #B3843F",
"$. c #828455",
"%. c #B68041",
"&. c #BA8543",
"*. c #B78E44",
"=. c #BC8A43",
"-. c #B99443",
";. c #B3955D",
":. c #B7985C",
">. c #BC9A59",
",. c #968162",
"<. c #9A8361",
"1. c #95826A",
"2. c #98856D",
"3. c #998375",
"4. c #9D8C72",
"5. c #A18860",
"6. c #AD9262",
"7. c #B29661",
"8. c #A08D75",
"9. c #A18D79",
"0. c #A59073",
"q. c #A4917A",
"w. c #A9967F",
"e. c #C49345",
"r. c #CB9848",
"t. c #F19C4B",
"y. c #C7A14B",
"u. c #CFA24F",
"i. c #D4A44A",
"p. c #D8A74C",
"a. c #D7A84B",
"s. c #DBAB4C",
"d. c #DEB04D",
"f. c #C8A458",
"g. c #D3AB57",
"h. c #DFB556",
"j. c #E0AF4E",
"k. c #E2B24F",
"l. c #E5B651",
"z. c #E5B854",
"x. c #EDBE52",
"c. c #E5BB5C",
"v. c #E9BC59",
"b. c #C88579",
"n. c #CFAD67",
"m. c #D2AE69",
"M. c #D5B36D",
"N. c #DCB76A",
"B. c #C6AB79",
"V. c #D0A579",
"C. c #CEB27D",
"Z. c #D8B570",
"A. c #D2B378",
"S. c #E0B963",
"D. c #AA9681",
"F. c #AC9A83",
"G. c #B29D85",
"H. c #B29D8A",
"J. c #B6A48D",
"K. c #B8A68F",
"L. c #B7AA8D",
"P. c #B7A192",
"I. c #BAA790",
"U. c #BDAB94",
"Y. c #CA8F81",
"T. c #C7AF86",
"R. c #C3AD8B",
"E. c #CBB181",
"W. c #C0AC90",
"Q. c #C1AE99",
"!. c #C3B19A",
"~. c #C9B79F",
"^. c #C6B1A0",
"/. c #CDBAA5",
"(. c #D1BDA9",
"). c #D4C1AB",
"_. c #E8D5BE",
"`. c #EEDBC5",
"'. c #FAE7D0",
/* pixels */
"x.x.x.x.x.x.x.x.x.x.x.x.x.x.x.x.x.x.x.x.x.x.x.x.x.x.x.x.x.x.x.x.x.x.x.x.x.x.x.x.x.x.x.x.x.x.x.x.x.x.x.x.x.x.x.x.x.x.x.x.x.x.x.x.",
"x.x.x.x.x.x.x.x.x.x.x.x.x.x.x.x.x.x.x.x.x.x.x.x.x.x.x.x.x.x.x.x.x.x.x.x.x.x.x.x.x.x.x.x.x.x.x.x.x.x.x.x.x.x.x.x.x.x.x.x.x.x.x.x.",
"x.x.x.x.x.x.x.x.x.x.x.x.x.x.x.x.x.x.x.x.x.x.x.x.x.x.x.x.x.x.x.x.x.x.x.x.x.x.x.x.x.x.x.x.x.x.x.x.x.x.x.x.x.x.x.x.x.x.x.x.x.x.x.x.",
"x.x.x.x.x.x.x.x.x.x.x.x.x.x.x.x.x.x.x.x.x.x.x.x.x.x.x.x.x.x.x.x.x.x.x.x.x.x.x.x.x.x.x.x.x.x.x.x.x.x.x.x.x.x.x.x.x.x.x.x.x.x.x.x.",
"x.x.x.x.x.x.x.x.x.x.x.x.x.x.x.x.x.x.x.x.x.x.x.x.x.x.x.x.x.x.x.x.x.x.x.x.x.x.x.x.x.x.x.x.x.x.x.x.x.x.x.x.x.x.x.x.x.x.x.x.x.x.x.x.",
"x.x.x.x.x.x.x.x.x.x.x.x.x.x.x.x.x.x.x.x.x.x.x.x.x.j.F Z Z Z Z Z Z Z Z Z Z Z Z j.x.x.x.x.x.x.x.x.x.x.x.x.x.x.x.x.x.x.x.x.x.x.x.x.",
"x.x.x.x.x.x.x.x.x.x.x.x.x.x.x.U U x.x.x.x.k.&.&.J H 9 7 7 7 7 7 7 7 7 7 7 7 7 H &.&.&.j.x.x.x.x.x.x.x.x.x.x.x.x.x.x.x.x.x.x.x.x.",
"x.x.x.x.x.x.x.x.x.x.x.x.x.x.x.U U x.x.j.j.e.9 7 7 7 7 7 7 7 7 7 7 7 7 7 7 7 7 7 7 7 9 r.k.x.x.x.x.x.x.x.x.x.x.x.x.x.x.x.x.x.x.x.",
"x.x.x.x.x.x.x.x.x.x.x.x.x.x.x.x.x.x.x.F e e 7 7 7 7 7 7 1 7 7 7 7 7 7 7 1 7 7 7 7 7 7 q &.x.x.x.x.x.x.x.x.x.x.x.x.x.x.x.x.x.x.x.",
"x.x.x.x.x.x.x.x.x.x.x.x.x.x.x.x.x.k.F p 7 7 7 7 7 7 7 7 7 7 7 7 7 7 7 7 1 1 7 7 7 7 7 7 V J x.x.x.x.x.x.x.x.x.x.x.x.x.x.x.x.x.x.",
"x.x.x.x.x.x.x.x.x.x.x.x.x.x.x.x.j.J q 7 7 7 7 7 1 7 7 7 7 7 1 1 7 > : : : : : % > 7 7 7 7 V &.k.x.x.x.x.x.x.x.x.x.x.x.x.x.x.x.x.",
"x.x.x.x.x.x.x.x.x.x.x.x.x.x.x.x.J 7 7 7 7 7 7 7 7 7 1 1 > > > > > : X X X X X X % > > 7 7 7 q p.x.x.x.x.x.x.x.x.x.x.x.x.x.x.x.x.",
"x.x.x.x.x.x.x.x.x.x.x.x.x.x.x.x.J 9 7 7 1 7 7 1 7 7 7 % o o o o $ X X X X X X X o $ o > 1 1 q p.x.x.x.x.x.x.x.x.x.x.x.x.x.x.x.x.",
"x.x.x.x.x.x.x.x.x.x.x.x.x.x.x.x.Q 7 7 7 7 7 7 1 : % $ o X X X X X X X X X X X X X   X $ % % q p.x.x.x.x.x.x.x.x.x.x.x.x.x.x.x.x.",
"x.x.x.x.x.x.x.x.x.x.x.x.x.x.x.x.r.C 7 7 7 1 : : $ o $ o X o $ $ o o $ X X X X X $ $ X X X $ q i.x.x.x.x.x.x.x.x.x.x.x.x.x.x.x.x.",
"x.x.x.x.x.x.x.x.x.x.x.x.x.x.x.x.x.p.V 9 7 : o X X o 1 $ o O > 1 % $ > $ X o o o % : X X X * V p.x.x.x.x.x.x.x.x.x.x.x.x.x.x.x.x.",
"x.x.x.x.x.x.x.x.x.x.x.x.x.x.x.x.x.x.s.C : O o X o O 1 1 % o o > 1 : o o $ 1 1 1 1 : X X o a s.x.x.x.x.x.x.x.x.x.x.x.x.x.x.x.x.x.",
"x.x.x.x.x.x.x.x.x.x.x.x.x.x.x.x.x.x.x.r.J K K K d o $ $ 3 c c v t % ; : * $ $ $ $ $ + S K -.x.x.x.x.x.x.x.x.x.x.x.x.x.x.x.x.x.x.",
"x.x.x.x.x.x.x.x.x.x.x.x.x.x.x.x.x.x.x.x.x.x.x.x.*.f f t c W I I L 4 : y p m M f f f B s.x.x.x.x.x.x.x.x.x.x.x.x.x.x.x.x.x.x.x.x.",
"x.x.x.x.x.x.x.x.x.x.x.x.x.x.x.x.x.x.x.x.x.x.x.x.x.x.x.6.1.! N N ` n & Y ` N N t.x.x.x.x.x.x.x.x.x.x.x.x.x.x.x.x.x.x.x.x.x.x.x.x.",
"x.x.x.x.x.x.x.x.x.x.x.x.x.x.x.x.x.x.x.x.x.x.x.x.x.x.x.B.P.b.N N ' F.T F.' N N t.x.x.x.x.x.x.x.x.x.x.x.U U x.x.x.x.x.x.x.x.x.x.x.",
"x.x.x.x.x.x.x.x.x.x.x.x.x.x.x.x.x.x.x.x.x.x.x.x.x.x.x.E.U.H.[ [ Y.I.F.K.b.] [ V.S.x.x.x.x.x.x.x.x.x.x.U U x.x.x.x.x.x.x.x.x.x.x.",
"x.x.x.x.x.x.x.x.x.x.x.x.x.x.x.x.x.x.x.x.x.x.x.x.c.N.N.R.U.!.).^.~./.U./.~.U.U.U.C.N.x.x.x.x.x.x.x.x.x.x.x.x.x.x.x.x.x.x.x.x.x.x.",
"x.x.x.x.x.x.x.x.x.x.x.x.x.x.x.x.x.x.x.x.x.x.x.v.A.U.U.U.J.U.'.^.)._.F._.(.G.U.U.U.E.v.x.x.x.x.x.x.x.x.x.x.x.x.x.x.x.x.x.x.x.x.x.",
"x.x.x.x.x.x.x.x.x.x.x.x.x.x.x.x.x.x.x.x.x.x.x.A.U.U.U.U.n c '.c 3./., (._ l U.U.U.U.T.c.x.x.x.x.x.x.x.x.x.x.x.x.x.x.x.x.x.x.x.x.",
"x.x.x.x.x.x.x.x.x.x.x.x.x.x.x.x.x.x.x.x.S.C.C.R.U.U.U.U.n # b # 4 l   l 4 5 U.U.F.w.U.C.S.x.x.x.x.x.x.x.x.x.x.x.x.x.x.x.x.x.x.x.",
"x.x.x.x.x.x.x.x.x.x.x.x.x.x.x.x.x.x.x.S.C.U.U.U.U.K.F.K.n . . l 5         5 U.U.q.1.F.K.C.S.x.x.x.x.x.x.x.x.x.x.x.x.x.x.x.x.x.x.",
"x.x.x.x.x.x.x.x.x.x.x.x.x.x.x.x.x.x.x.B.I.U.U.U.I.F.) G.n @   ^.9.#   # + 5 U.U.q./ / J.U.C.x.x.x.x.x.x.x.x.x.x.x.x.x.x.x.x.x.x.",
"x.x.x.x.x.x.x.x.x.x.x.x.x.x.x.x.x.x.x.7.q.U.U.U.F.1./ G.J.( . ^.`.P.  P.n 5 U.U.8./ 1.J.Q.V.x.x.x.x.x.x.x.x.x.x.x.x.x.x.x.x.x.x.",
"x.x.x.x.x.x.x.x.x.x.x.x.x.x.x.x.x.z.:.<.9.U.U.D.2.1.w.K.U.H.~ U.).U.~ ^.H._ U.U.B.:./ 4.H.E.x.x.x.x.x.x.x.x.x.x.x.x.x.x.x.x.x.x.",
"x.x.x.x.x.x.x.x.x.x.x.x.x.U U x.x.z.,./ q.L.F.E R 1.I.U.U.U.U.U.U.U.U.U.U.U.U.U.Z.g./ ) w.T.S.x.x.x.x.x.x.x.x.x.x.x.x.x.x.x.x.x.",
"x.x.x.x.x.x.x.x.x.x.x.x.x.U U x.l.i.W ^ 4.G.1.i j / U.U.U.U.U.U.U.U.U.U.U.U.U.U.Z.u.T R 9.H.G.x.x.x.x.x.x.x.x.x.x.x.x.x.x.x.x.x.",
"x.x.x.x.x.x.x.x.x.x.x.x.x.x.x.x.=.q q P ) 1.) r : 5 L.U.U.U.U.U.U.U.U.U.U.U.U.U.Z.#., & v T p s.x.x.x.x.x.x.x.x.x.x.x.x.x.x.x.x.",
"x.x.x.x.x.x.x.x.x.x.x.x.x.x.x.x.K ; 1 e v R x v i u I.U.U.U.U.U.U.U.U.U.U.U.U.U.Z.#.X X 3 y q p.x.x.x.x.x.x.x.x.x.x.x.x.x.x.x.x.",
"x.x.x.x.x.x.x.x.x.x.x.x.x.x.x.x.-.s - 1 y z 7 h z P I.U.U.U.U.U.U.U.U.U.U.U.U.U.C.>.d + $ 0 H j.x.x.x.x.x.x.x.x.x.x.x.x.x.x.x.x.",
"x.x.x.x.x.x.x.x.x.x.x.x.x.x.x.x.x.a.3 < * o > - h ) U.U.U.U.U.U.U.U.U.U.U.U.U.U.U.C.l.a = B l.x.x.x.x.x.x.x.x.x.x.x.x.x.x.x.x.x.",
"x.x.x.x.x.x.x.x.x.x.x.x.x.x.x.x.x.x.a.a o X o K H x J.W.U.U.U.U.U.U.U.U.U.U.U.U.U.C.x.s.a.d.x.x.x.x.x.x.x.x.x.x.x.x.x.x.x.x.x.x.",
"x.x.x.x.x.x.x.x.x.x.x.x.x.x.x.x.x.x.v.C s S : =.n._ I.U.U.U.U.U.U.U.U.U.U.U.U.U.U.R.C.v.x.x.x.x.x.x.x.x.x.x.x.x.x.x.x.x.x.x.x.x.",
"x.x.x.x.x.x.x.x.x.x.x.x.x.x.x.x.x.x.x.J &.j.A i.Z.Q.U.U.U.U.U.U.U.U.U.U.U.U.U.U.U.U.U.c.x.x.x.s.s.x.x.x.x.x.x.x.x.x.x.x.x.x.x.x.",
"x.x.x.x.x.x.x.x.x.x.x.x.x.x.x.x.x.x.x.x.x.x.x.x.Z.U.U.U.U.U.U.U.U.U.U.U.U.U.U.U.U.U.R.c.x.x.x.s.s.x.x.x.x.x.x.x.x.x.x.x.x.x.x.x.",
"x.x.x.x.x.x.x.x.x.x.x.x.x.x.x.x.x.x.x.x.x.x.x.x.Z.U.U.U.U.U.U.U.U.U.U.U.U.U.U.U.U.U.Q.c.x.x.x.x.x.x.x.x.x.x.x.x.x.x.x.x.x.x.x.x.",
"x.x.x.x.x.x.x.x.x.x.x.x.x.x.x.x.x.x.x.x.x.x.x.x.Z.U.U.U.U.U.U.U.U.U.U.U.U.U.U.U.F.4.0.h.x.x.x.x.x.x.x.x.x.x.x.x.x.x.x.x.x.x.x.x.",
"x.x.x.x.x.x.x.x.x.x.x.x.x.x.x.x.x.x.x.x.x.x.x.x.n.D.F.F.F.H.U.U.U.U.U.U.U.U.I.H.4.<.:.z.x.x.x.{ { x.x.x.x.x.x.x.x.x.x.x.x.x.x.x.",
"x.x.x.x.x.x.x.x.x.x.x.x.x.x.x.x.x.x.x.x.x.x.x.x.f.1.) 1.) 2.J.J.U.U.U.U.I.L.J.1.) :.x.v.x.x.x.{ { x.x.x.x.x.x.x.x.x.x.x.x.x.x.x.",
"x.x.x.x.x.x.x.x.x.x.x.x.x.x.x.x.x.x.x.x.x.x.x.x.M.I.P.K.q./ 1.1.D.U.U.U.D.1.1./ >.z.x.x.x.x.x.{ { x.x.x.x.x.x.x.x.U $.x.x.x.x.x.",
"x.x.x.x.x.x.x.x.x.x.x.x.x.x.x.x.x.x.x.x.x.x.x.x.Z.U.U.U.J.q./ / 3.4.4.4.2./ / / 5.f.x.x.x.x.x.{ { x.x.x.x.x.x.x.x.U K x.x.x.x.x.",
"x.x.x.x.x.x.x.x.x.x.x.x.x.x.x.x.x.x.x.x.x.x.x.x.Z.U.U.U.U.J.9.4.2./ / / / / / / / 5.f.| { x.x.{ { x.x.x.x.x.x.x.x.x.x.x.x.x.x.x.",
"x.x.x.x.x.x.x.x.x.x.x.x.x.x.x.x.x.x.x.x.x.x.x.x.Z.U.U.U.U.U.U.U.q./ / / / / / / / / ,.| { x.x.{ { x.x.x.x.x.x.x.x.x.x.x.x.x.x.x.",
"x.x.x.x.x.x.x.x.x.x.x.x.x.x.x.x.x.x.x.x.x.x.x.x.Z.U.U.U.U.U.U.4.) / / / / / / / / / ,.| { x.x.{ { x.x.x.x.x.x.x.x.x.x.x.x.x.x.x.",
"x.x.x.x.x.x.x.x.x.x.x.x.x.x.x.x.x.x.x.x.x.x.x.x.Z.U.U.U.U.J.4.) / / / / / / / / / / ,...{ x.x.{ { x.x.x.x.x.x.x.x.x.x.x.x.x.x.x.",
"x.x.x.x.x.x.x.x.x.x.x.x.x.x.x.x.x.x.x.x.x.x.x.x.Z.U.U.U.J.q./ 6.;.;.;.O.O.O./ / 2.4.4...{ o.o.{ { x.x.{ { x.x.x.x.x.x.x.x.x.x.x.",
"x.x.x.x.x.x.x.x.x.x.x.x.x.x.x.x.x.x.x.x.x.x.x.x.m.H.U.I.q./ / g.x.l.l.{ { +./ 1.F.U.L...{ o.o.{ { x.x.{ { x.x.x.x.x.x.x.x.x.x.x.",
"x.x.x.x.x.x.x.x.x.x.x.x.x.x.x.x.x.x.x.x.x.x.x.x.%.x K.8.) / /  .{ o.o.{ { +.,.F.I.U.L.@.o.o.o.o.o.x.x.{ { { { y.y.x.x.x.x.x.x.x.",
"x.x.x.x.x.x.x.x.x.x.x.x.x.x.x.x.x.x.x.x.x.x.x.G w 8 l T b k +.| { o.o.{ { } 6 w.( b 4.@.o.o.o.o.o.x.x.{ { { { y.y.x.x.x.x.x.x.x.",
"x.x.x.x.x.x.x.x.x.x.x.x.x.x.x.x.x.x.x.x.x.x.x.s ; * $ g k S r.y.y.o.o.y.y.} $ n u 2 v ..o.y.y.o.o.y.y.y.y.y.y.x.x.x.x.x.x.x.x.x.",
"x.x.x.x.x.x.x.x.x.x.x.x.x.x.x.x.x.x.x.x.x.x.x.A 0 2 e 2 D y.y.y.y.o.o.y.y.} 0 , 2 0 = | o.y.y.o.o.y.y.y.y.y.y.x.x.x.x.x.x.x.x.x.",
"x.x.x.x.x.x.x.x.x.x.x.x.x.x.x.x.x.x.x.x.x.x.x.j.s.p.s.a.k.x.x.x.x.y.y.x.x.X...-.-.s.s.o.o.x.x.y.y.x.x.o.o.x.x.x.x.x.x.x.x.x.x.x.",
"x.x.x.x.x.x.x.x.x.x.x.x.x.x.x.x.x.x.x.x.x.x.x.x.x.x.x.x.x.x.x.x.x.y.y.x.x.o.o.y.y.x.x.o.o.x.x.y.y.x.x.o.o.x.x.x.x.x.x.x.x.x.x.x.",
"x.x.x.x.x.x.x.x.x.x.x.x.x.x.x.x.x.x.x.x.x.x.x.x.x.x.x.x.x.x.x.x.x.x.x.x.x.y.y.x.x.x.x.y.y.x.x.x.x.x.x.-.#.x.x.x.x.x.x.x.x.x.x.x.",
"x.x.x.x.x.x.x.x.x.x.x.x.x.x.x.x.x.x.x.x.x.x.x.x.x.x.x.x.x.x.x.x.x.x.x.x.x.y.y.x.x.x.x.y.y.x.x.x.x.x.x.-.-.x.x.x.x.x.x.x.x.x.x.x.",
"x.x.x.x.x.x.x.x.x.x.x.x.x.x.x.x.x.x.x.x.x.x.x.x.x.x.x.x.x.x.x.x.x.x.x.x.x.x.x.x.x.x.x.x.x.x.x.x.x.x.x.x.x.x.x.x.x.x.x.x.x.x.x.x.",
"x.x.x.x.x.x.x.x.x.x.x.x.x.x.x.x.x.x.x.x.x.x.x.x.x.x.x.x.x.x.x.x.x.x.x.x.x.x.x.x.x.x.x.x.x.x.x.x.x.x.x.x.x.x.x.x.x.x.x.x.x.x.x.x.",
"x.x.x.x.x.x.x.x.x.x.x.x.x.x.x.x.x.x.x.x.x.x.x.x.x.x.x.x.x.x.x.x.x.x.x.x.x.x.x.x.x.G $.x.x.x.x.x.x.x.x.x.x.x.x.x.x.x.x.x.x.x.x.x.",
"x.x.x.x.x.x.x.x.x.x.x.x.x.x.x.x.x.x.x.x.x.x.x.x.x.x.x.x.x.x.x.x.x.x.x.x.x.x.x.x.x.$.#.x.x.x.x.x.x.x.x.x.x.x.x.x.x.x.x.x.x.x.x.x."
};
