/* XPM */
static char *_2c95c625b824b7aece3f0cd4d389739S37RFu6c19Hdguqw[] = {
/* columns rows colors chars-per-pixel */
"64 64 167 2 ",
"   c #2B0D10",
".  c #341014",
"X  c #391216",
"o  c #3D1419",
"O  c #381B1C",
"+  c #3E2122",
"@  c #45161B",
"#  c #4D1118",
"$  c #411C1A",
"%  c #4A191D",
"&  c #4B241C",
"*  c #48261D",
"=  c #532A1F",
"-  c #4E1A20",
";  c #521C21",
":  c #5B1F25",
">  c #482A29",
",  c #5E2026",
"<  c #582727",
"1  c #542B22",
"2  c #4C302F",
"3  c #593429",
"4  c #563832",
"5  c #593933",
"6  c #622E26",
"7  c #612128",
"8  c #65282B",
"9  c #6B2C2B",
"0  c #68372A",
"q  c #6E302C",
"w  c #72342D",
"e  c #683937",
"r  c #703B3B",
"t  c #6C4227",
"y  c #784B2C",
"u  c #7B512B",
"i  c #64443B",
"p  c #7E4231",
"a  c #71413D",
"s  c #7C563B",
"d  c #654A44",
"f  c #744D44",
"g  c #7D4B49",
"h  c #6C524C",
"j  c #765645",
"k  c #7D5C4E",
"l  c #705650",
"z  c #7B5F54",
"x  c #7A6355",
"c  c #E6172D",
"v  c #FF1831",
"b  c #F12437",
"n  c #845C2F",
"m  c #864A33",
"M  c #8E5735",
"N  c #935A37",
"B  c #965C38",
"V  c #985F39",
"C  c #9A6E36",
"Z  c #9B653B",
"A  c #9B733A",
"S  c #A56D3C",
"D  c #A6773B",
"F  c #A87E3B",
"G  c #DD683D",
"H  c #D73941",
"J  c #EA3946",
"K  c #824D42",
"L  c #825B4D",
"P  c #A3574E",
"I  c #866948",
"U  c #947D47",
"Y  c #836C5A",
"T  c #8B6A5C",
"R  c #9C6F5D",
"E  c #85715B",
"W  c #89715D",
"Q  c #897F5D",
"!  c #B27E43",
"~  c #AA7B51",
"^  c #866D64",
"/  c #886F66",
"(  c #8A7367",
")  c #8E7B63",
"_  c #927E64",
"`  c #E64F56",
"'  c #F57443",
"]  c #DC6766",
"[  c #C3746B",
"{  c #629B2F",
"}  c #688635",
"|  c #679636",
" . c #669933",
".. c #6A9538",
"X. c #6D9A3A",
"o. c #6FA739",
"O. c #6FAB3A",
"+. c #729741",
"@. c #7B9949",
"#. c #7BA947",
"$. c #B68041",
"%. c #B88342",
"&. c #B68C43",
"*. c #B89443",
"=. c #A98C5A",
"-. c #B6975C",
";. c #BC9C5B",
":. c #978161",
">. c #9B8461",
",. c #94816A",
"<. c #98856D",
"1. c #9B8776",
"2. c #9C8B72",
"3. c #A18E76",
"4. c #A18D79",
"5. c #A5937B",
"6. c #C08D44",
"7. c #C49246",
"8. c #C89547",
"9. c #CA9748",
"0. c #EA8C54",
"q. c #C7A14B",
"w. c #D3A44A",
"e. c #D8A74C",
"r. c #D6A84A",
"t. c #DBAB4D",
"y. c #C5A259",
"u. c #CBA658",
"i. c #D4AB59",
"p. c #DFB455",
"a. c #E2B24F",
"s. c #E4B651",
"d. c #E5B956",
"f. c #EDBE52",
"g. c #E5BB5C",
"h. c #CDAB69",
"j. c #D2AE68",
"k. c #DFB866",
"l. c #DAB76B",
"z. c #C1A572",
"x. c #CFB27C",
"c. c #D5B473",
"v. c #D8B570",
"b. c #E0B964",
"n. c #AA9583",
"m. c #AA9585",
"M. c #AC9A83",
"N. c #B09D86",
"B. c #B29D8B",
"V. c #B9A487",
"C. c #B5A38C",
"Z. c #B8A68F",
"A. c #B7AA8D",
"S. c #B9A790",
"D. c #BDAB94",
"F. c #BFAB98",
"G. c #C6AE85",
"H. c #C2AD8D",
"J. c #CAB082",
"K. c #C0AC90",
"L. c #C1AF98",
"P. c #C4B29A",
"I. c #CCB9A3",
"U. c #D6C3AE",
"Y. c #DAC8B0",
"T. c #E4D2BB",
"R. c #F6E4CC",
/* pixels */
"f.f.f.f.f.f.f.f.f.f.f.f.f.f.f.f.f.f.f.f.f.f.f.f.f.f.f.f.f.f.f.f.f.f.f.f.f.f.f.f.f.f.f.f.f.f.f.f.f.f.f.f.f.f.f.f.f.f.f.f.f.f.f.f.",
"f.f.f.f.f.f.f.f.f.f.f.f.f.f.f.f.f.f.f.f.f.f.f.f.f.f.f.f.f.f.f.f.f.f.f.f.f.f.f.f.f.f.f.f.f.f.f.f.f.f.f.f.f.f.f.f.f.f.f.f.f.f.f.f.",
"f.f.f.f.f.f.f.f.f.f.f.f.f.f.f.f.f.f.f.f.f.f.f.f.f.f.f.f.f.f.f.f.f.f.f.f.f.f.f.f.f.f.f.f.f.f.f.f.f.f.f.f.f.f.f.f.f.f.f.f.f.f.f.f.",
"f.f.f.f.f.f.f.f.f.f.f.f.f.f.f.f.f.f.f.f.f.f.f.f.f.f.f.f.f.f.f.f.f.f.f.f.f.f.f.f.f.f.f.f.f.f.f.f.f.f.f.f.f.f.f.f.f.f.f.f.f.f.f.f.",
"f.f.f.f.f.f.f.f.f.f.f.f.f.f.f.f.f.f.f.f.f.f.f.f.f.f.f.f.f.f.f.f.f.f.f.f.f.f.f.f.f.f.f.f.f.f.f.f.f.f.f.f.f.f.f.f.f.f.f.f.f.f.f.f.",
"f.f.f.f.f.f.f.f.f.f.f.f.f.f.f.f.f.f.f.f.f.f.f.f.f.f.f.f.f.f.f.f.f.f.f.f.f.f.f.f.f.f.f.f.f.f.f.f.f.f.f.f.f.f.f.f.f.f.f.f.f.f.f.f.",
"f.f.f.f.f.f.f.f.f.f.f.f.f.f.f.U U f.f.f.f.f.f.f.f.f.f.6.! %.%.%.! 6.F 6.%.%.%.%.e.f.f.f.f.f.f.f.f.f.f.f.f.f.f.f.f.f.f.f.f.f.f.f.",
"f.f.f.f.f.f.f.f.f.f.f.f.f.f.f.U U f.f.f.f.f.f.s.t.t.t.m 7 7 7 7 7 7 7 7 7 7 7 7 S t.t.e.a.f.f.f.f.f.f.f.f.f.f.f.f.f.f.f.f.f.f.f.",
"f.f.f.f.f.f.f.f.f.f.f.f.f.f.f.f.f.f.f.f.f.f.f.B w w w 7 7 7 7 7 7 7 7 7 7 7 7 7 9 q w w 6.f.f.f.f.f.f.f.f.f.f.f.f.f.f.f.f.f.f.f.",
"f.f.f.f.f.f.f.f.f.f.f.f.f.f.f.f.f.f.f.f.9.B B w 7 7 7 7 7 7 7 7 7 7 7 7 7 7 7 7 7 7 7 7 p ! f.f.f.f.f.f.f.f.f.f.f.f.f.f.f.f.f.f.",
"f.f.f.f.f.f.f.f.f.f.f.f.f.f.f.f.f.f.f.9.B 7 7 7 7 7 7 7 7 7 7 7 7 7 7 7 7 7 7 , 7 7 7 7 7 p 6.s.f.f.f.f.f.f.f.f.f.f.f.f.f.f.f.f.",
"f.f.f.f.f.f.f.f.f.f.f.f.f.f.f.f.f.f.t.m 7 7 7 7 7 7 7 7 7 7 7 7 7 7 7 7 : : : : , , 7 7 7 7 9 9.s.f.f.f.f.f.f.f.f.f.f.f.f.f.f.f.",
"f.f.f.f.f.f.f.f.f.f.f.f.f.f.f.f.f.t.p 8 7 7 7 7 7 7 7 7 7 7 7 7 7 7 , @ X X X X X # 7 7 7 7 7 q 6.f.f.f.f.f.f.f.f.f.f.f.f.f.f.f.",
"f.f.f.f.f.f.f.f.f.f.f.f.f.f.f.f.f.e.9 7 7 7 7 7 7 7 7 7 ; @ @ @ # # @ X . . . . . X @ @ ; 7 7 , F f.f.f.f.f.f.f.f.f.f.f.f.f.f.f.",
"f.f.f.f.f.f.f.f.f.f.f.f.f.f.f.f.f.t.9 7 7 7 7 7 7 7 ; ; @ . . . . . . . . . . . . . . . @ - ; , ! f.f.f.f.f.f.f.f.f.f.f.f.f.f.f.",
"f.f.f.f.f.f.f.f.f.f.f.f.f.f.f.f.f.t.p 8 7 7 7 : : ; . X . . . . X X . . X . . . . . X . X . X : ! f.f.f.f.f.f.f.f.f.f.f.f.f.f.f.",
"f.f.f.f.f.f.f.f.f.f.f.f.f.f.f.f.f.f.t.n 7 7 7 # X X . ; % . . - : ; X ; @ . . . . @ , X . . . : G f.f.f.f.f.f.f.f.f.f.f.f.f.f.f.",
"f.f.f.f.f.f.f.f.f.f.f.f.f.f.f.f.f.f.f.8.N , @ X .   . ; : % . $ ; : ; @ o o - ; ; ; , o . . O D t.f.f.f.f.f.f.f.f.f.f.f.f.f.f.f.",
"f.f.f.f.f.f.f.f.f.f.f.f.f.f.f.f.f.f.f.f.8.N u u u t . @ % < 5 4 e e - @ @ - ; - % ; % X 3 u n t.f.f.f.f.f.f.f.f.f.f.f.f.f.f.f.f.",
"f.f.f.f.f.f.f.f.f.f.f.f.f.f.f.f.f.f.f.f.f.f.f.f.f.w.= * * > :.R R L + < , , # # % & & 1 F f.f.f.f.f.f.f.f.f.f.f.f.f.f.f.f.f.f.f.",
"f.f.f.f.f.f.f.f.f.f.f.f.f.f.f.f.f.f.f.f.f.f.f.f.f.f.r.r.=.E ) H b H Y > r P c c G r.r.r.s.f.f.f.f.f.f.U U f.f.f.f.f.f.f.f.f.f.f.",
"f.f.f.f.f.f.f.f.f.f.f.f.f.f.f.f.f.f.f.f.f.f.f.f.f.f.f.f.j.M.M.J v J n.z ( [ v v ' f.f.f.f.f.f.f.f.f.f.:.U f.f.f.f.f.f.f.f.f.f.f.",
"f.f.f.f.f.f.f.f.f.f.f.f.f.f.f.f.f.f.f.f.f.f.f.f.f.f.f.f.v.D.D.] ` ] D.5.N.z.` ` 0.f.f.f.f.f.f.f.f.f.f.f.f.f.f.f.f.f.f.f.f.f.f.f.",
"f.f.f.f.f.f.f.f.f.f.f.f.f.f.f.f.f.f.f.f.f.f.f.f.f.f.f.d.c.D.D.P.L.L.P.K.L.P.D.D.l.f.f.f.f.f.f.f.f.f.f.f.f.f.f.f.f.f.f.f.f.f.f.f.",
"f.f.f.f.f.f.f.f.f.f.f.f.f.f.f.f.f.f.f.f.f.f.f.f.f.f.f.x.D.D.D.T.Y.I.R.I.Y.T.F.D.v.f.f.f.f.f.f.f.f.f.f.f.f.f.f.f.f.f.f.f.f.f.f.f.",
"f.f.f.f.f.f.f.f.f.f.f.f.f.f.f.f.f.f.f.f.f.f.f.f.b.x.x.H.D.n.d U.N./ R.^ B.I.d m.G.l.f.f.f.f.f.f.f.f.f.f.f.f.f.f.f.f.f.f.f.f.f.f.",
"f.f.f.f.f.f.f.f.f.f.f.f.f.f.f.f.f.f.f.f.f.f.f.b.x.D.D.D.D.1.  ( h 2 m.> l ( . 1.D.G.k.g.f.f.f.f.f.f.f.f.f.f.f.f.f.f.f.f.f.f.f.f.",
"f.f.f.f.f.f.f.f.f.f.f.f.f.f.f.f.f.f.f.f.f.g.g.J.D.D.D.D.F.1.    O +         . 4.D.D.D.k.f.f.f.f.f.f.f.f.f.f.f.f.f.f.f.f.f.f.f.f.",
"f.f.f.f.f.f.f.f.f.f.f.f.f.f.f.f.f.f.f.f.l.H.H.D.D.D.D.D.D.1.    x B.        . 1.D.D.D.H.l.f.f.f.f.f.f.f.f.f.f.f.f.f.f.f.f.f.f.f.",
"f.f.f.f.f.f.f.f.f.f.f.f.f.f.f.f.f.f.f.l.G.D.D.D.D.A.2.C.D.B.^ > 1.T.m.2 l / O 4.D.C.3.A.G.v.f.f.f.f.f.f.f.f.f.f.f.f.f.f.f.f.f.f.",
"f.f.f.f.f.f.f.f.f.f.f.f.f.A U f.f.f.f.z.C.D.D.D.C.5.) M.D.D.D.x m.T.T.x n.F.d n.D.M.,.5.A.G.k.f.f.f.f.f.f.f.f.f.f.f.f.f.f.f.f.f.",
"f.f.f.f.f.f.f.f.f.f.f.f.f.:.U f.f.f.s.=.3.D.D.A.5._ >.V.D.D.D.D.S.F.D.D.D.D.D.D.D.M.) ) 5.A.G.p.f.f.f.f.f.f.f.f.f.f.f.f.f.f.f.f.",
"f.f.f.f.f.f.f.f.f.f.f.f.f.f.f.f.f.s.=._ 5.D.D.4.,.>.p.J.D.D.D.D.F.D.D.D.D.D.D.D.D.M.) ) _ 3.D.H.k.f.f.f.f.f.f.f.f.f.f.f.f.f.f.f.",
"f.f.f.f.f.f.f.f.f.f.f.f.f.f.f.f.f.p._ ) 3.Z.4.k k =.d.J.D.D.D.D.D.D.D.D.D.D.D.D.D.G.y.:.) 2.D.D.l.f.f.f.f.f.f.f.f.f.f.f.f.f.f.f.",
"f.f.f.f.f.f.f.f.f.f.f.f.f.f.f.f.r.! L W 2.5._ r e I d.J.D.D.D.D.D.D.D.D.D.D.D.D.D.J.f.;.>.<.M.D.l.f.f.f.f.f.f.f.f.f.f.f.f.f.f.f.",
"f.f.f.f.f.f.f.f.f.f.f.f.f.f.f.f.! : 7 j T _ W r < 3 p.G.D.D.D.D.D.D.D.D.D.D.D.D.D.J.d.f.-.) ,.C.v.g.f.f.f.f.f.f.f.f.f.f.f.f.f.f.",
"f.f.f.f.f.f.f.f.f.f.f.f.f.f.f.f.F o : 8 f W q k a r A.H.D.D.D.D.D.D.D.D.D.D.F.D.D.D.G.g.-._ _ Z.H.x.f.f.f.f.f.f.f.f.f.f.f.f.f.f.",
"f.f.f.f.f.f.f.f.f.f.f.f.f.f.f.f.w.C % : < 3 7 5 i T D.D.D.D.D.D.D.D.D.D.D.D.D.D.D.D.D.g.U 5 5 _ T ~ f.f.f.f.f.f.f.f.f.f.f.f.f.f.",
"f.f.f.f.f.f.f.f.f.f.f.f.f.f.f.f.f.t.n 3 @ X ; 0 s T A.D.D.D.D.D.D.D.D.D.D.D.D.D.D.D.D.v.s . o f e B f.f.f.f.f.f.f.f.f.f.f.f.f.f.",
"f.f.f.f.f.f.f.f.f.f.f.f.f.f.f.f.f.f.f.y $ * X &.$.K S.D.D.D.D.D.D.D.D.D.D.D.D.D.D.D.D.D.k @ . = 9 Z f.f.f.f.f.f.f.f.f.f.f.f.f.f.",
"f.f.f.f.f.f.f.f.f.f.f.f.f.f.f.f.f.f.f.M N 7.6 6.a.i.K.D.D.D.D.D.D.D.D.D.D.D.D.D.D.D.D.D.h.A . X S a.f.f.f.f.f.f.f.f.f.f.f.f.f.f.",
"f.f.f.f.f.f.f.f.f.f.f.f.f.f.f.f.f.f.f.9.9.a.6.t.f.b.K.D.D.D.D.D.F.D.D.D.D.D.D.D.D.D.D.D.l.r.F F w.f.f.f.f.f.f.f.f.f.f.f.f.f.f.f.",
"f.f.f.f.f.f.f.f.f.f.f.f.f.f.f.f.f.f.f.f.f.f.f.f.f.g.D.D.D.D.D.D.D.D.D.D.D.D.D.D.D.A.M.M.j.f.f.{ { f.f.f.f.f.f.f.f.f.f.f.f.f.f.f.",
"f.f.f.f.f.f.f.f.f.f.f.f.f.f.f.f.f.f.f.f.f.f.f.f.f.k.D.D.D.C.Z.D.D.D.D.D.D.D.D.D.A.5.,.,.u.f.f.{ { f.f.f.f.f.f.f.f.f.f.f.f.f.f.f.",
"f.f.f.f.f.f.f.f.f.f.f.f.f.f.f.f.f.f.f.f.f.f.f.f.l.H.D.D.n.,.,.C.D.D.D.D.D.D.D.D.5.,.:.i.d.f.f.{ { f.f.f.f.f.f.f.f.U U f.f.f.f.f.",
"f.f.f.f.f.f.f.f.f.f.f.f.f.f.f.f.f.f.f.f.f.f.f.f.v.D.D.D.C.5.) 1.1.n.D.A.D.A.2.2.<.>.u.d.f.f.f.{ { f.f.f.f.f.f.f.f.U U f.f.f.f.f.",
"f.f.f.f.f.f.f.f.f.f.f.f.f.f.f.f.f.f.f.f.f.f.f.f.v.D.D.D.D.C.2.2.,.,.n.5.n.4.,.) ) >.u. .{ f.f.{ { f.f.f.f.f.f.f.f.f.f.f.f.f.f.f.",
"f.f.f.f.f.f.f.f.f.f.f.f.f.f.f.f.f.f.f.f.f.f.f.f.v.D.D.D.D.D.D.D.4.,.,.) ) ) ) ) ) ) :...{ f.f.{ { f.f.f.f.f.f.f.f.f.f.f.f.f.f.f.",
"f.f.f.f.f.f.f.f.f.f.f.f.f.f.f.f.f.f.f.f.f.f.f.f.l.D.D.D.D.D.D.2._ ) ( ( ) ) ) ) ) ) ) | { f.f.{ { f.f.f.f.f.f.f.f.f.f.f.f.f.f.f.",
"f.f.f.f.f.f.f.f.f.f.f.f.f.f.f.f.f.f.f.f.f.f.f.f.v.K.D.D.D.C.1.,.) ) ) @.) ) ) ) ) ) _  .{ f.f.{ { f.f.f.f.f.f.f.f.f.f.f.f.f.f.f.",
"f.f.f.f.f.f.f.f.f.f.f.f.f.f.f.f.f.f.f.f.f.f.f.f.v.D.D.F.C.5.) ) ) ) ,.:.) ) ) ) <.2.2.o.{ O.O.{ { f.f.{ { f.f.f.f.f.f.f.f.f.f.f.",
"f.f.f.f.f.f.f.f.f.f.f.f.f.f.f.f.f.f.f.f.f.f.f.f.j.B.D.S.5.) ) ) >.,.>.x :.:.) ,.M.D.A.o.{ O.O.{ { f.f.{ { f.f.f.f.f.f.f.f.f.f.f.",
"f.f.f.f.f.f.f.f.f.f.f.f.f.f.f.f.f.f.f.f.f.f.f.f.! g Z.3._ _ ) +.| #.o.| | @._ N.A.D.A.#.O.O.O.O.O.f.f.{ { { { q.q.f.f.f.f.f.f.f.",
"f.f.f.f.f.f.f.f.f.f.f.f.f.f.f.f.f.f.f.f.f.f.f.A w 8 d Y z s @.| { O.O.{ { } 5 n.( z 2.#.O.O.O.O.O.f.f.{ { { { q.q.f.f.f.f.f.f.f.",
"f.f.f.f.f.f.f.f.f.f.f.f.f.f.f.f.f.f.f.f.f.f.f.y - % @ i m Z q.q.q.O.O.q.q.} % x e < j X.O.q.q.O.O.q.q.q.q.q.q.f.f.f.f.f.f.f.f.f.",
"f.f.f.f.f.f.f.f.f.f.f.f.f.f.f.f.f.f.f.f.f.f.f.V 3 = w 1 A q.q.q.q.O.O.q.q.} 3 * > 3 = | O.q.q.O.O.q.q.q.q.q.q.f.f.f.f.f.f.f.f.f.",
"f.f.f.f.f.f.f.f.f.f.f.f.f.f.f.f.f.f.f.f.f.f.f.s.r.r.t.r.a.f.f.f.f.q.q.f.f.o.X.&.*.r.r.O.O.f.f.q.q.f.f.O.O.f.f.f.f.f.f.f.f.f.f.f.",
"f.f.f.f.f.f.f.f.f.f.f.f.f.f.f.f.f.f.f.f.f.f.f.f.f.f.f.f.f.f.f.f.f.q.q.f.f.O.O.q.q.f.f.O.O.f.f.q.q.f.f.O.O.f.f.f.f.f.f.f.f.f.f.f.",
"f.f.f.f.f.f.f.f.f.f.f.f.f.f.f.f.f.f.f.f.f.f.f.f.f.f.f.f.f.f.f.f.f.f.f.f.f.q.q.f.f.f.f.q.q.f.f.f.f.f.f.*.*.f.f.f.f.f.f.f.f.f.f.f.",
"f.f.f.f.f.f.f.f.f.f.f.f.f.f.f.f.f.f.f.f.f.f.f.f.f.f.f.f.f.f.f.f.f.f.f.f.f.q.q.f.f.f.f.q.q.f.f.f.f.f.f.*.*.f.f.f.f.f.f.f.f.f.f.f.",
"f.f.f.f.f.f.f.f.f.f.f.f.f.f.f.f.f.f.f.f.f.f.f.f.f.f.f.f.f.f.f.f.f.f.f.f.f.f.f.f.f.f.f.f.f.f.f.f.f.f.f.f.f.f.f.f.f.f.f.f.f.f.f.f.",
"f.f.f.f.f.f.f.f.f.f.f.f.f.f.f.f.f.f.f.f.f.f.f.f.f.f.f.f.f.f.f.f.f.f.f.f.f.f.f.f.f.f.f.f.f.f.f.f.f.f.f.f.f.f.f.f.f.f.f.f.f.f.f.f.",
"f.f.f.f.f.f.f.f.f.f.f.f.f.f.f.f.f.f.f.f.f.f.f.f.f.f.f.f.f.f.f.f.f.f.f.f.f.f.f.f.f.U $.f.f.f.f.f.f.f.f.f.f.f.f.f.f.f.f.f.f.f.f.f.",
"f.f.f.f.f.f.f.f.f.f.f.f.f.f.f.f.f.f.f.f.f.f.f.f.f.f.f.f.f.f.f.f.f.f.f.f.f.f.f.f.s.A :.f.f.f.f.f.f.f.f.f.f.f.f.f.f.f.f.f.f.f.f.f."
};
