/* XPM */
static char *_ae924fe5c2f47b6e98e89e0a9bc2db60U0u5lShoPZytce9[] = {
/* columns rows colors chars-per-pixel */
"64 64 16 1 ",
"  c black",
". c #0E0C0C",
"X c #171516",
"o c #271F1B",
"O c #323232",
"+ c #373334",
"@ c #673931",
"# c #595757",
"$ c #947D47",
"% c #807B7A",
"& c #629B2F",
"* c #6FAB3A",
"= c #B89543",
"- c #C7A14B",
"; c #DAAE48",
": c #EDBE52",
/* pixels */
"::::::::::::::::::::::::::::::::::::::::::::::::::::::::::::::::",
"::::::::::::::::::::::::::::::::::::::::::::::::::::::::::::::::",
"::::::::::::::::::::::::::::::::::::::::::::::::::::::::::::::::",
":::::::::::::::::::::::::::::::::OOOOOOOOOOOO:::::::::::::::::::",
"::::::::::::::::::::::::::::::OOO#########%%%%::::::::::::::::::",
"::::::::::::::::::::::::::::OO#########%%%%:::::::::::::::::::::",
":::::::::::::::$$:::::::::OO########%%%%%:::::::::::::::::::::::",
":::::::::::::::$$::::::::O#######%%%%%%:::::::::::::::::::::::::",
":::::::::::::::::::::::OO######%%%%%%:::::::::::::::::::::::::::",
"::::::::::::::::::::::O######%%%%%%:::::::::::::::::::::::::::::",
":::::::::::::::::::::O#####%%%%%%%::::::::::::::::::::::::::::::",
"::::::::::::::::::::O####%%%....%:::::::::::::::::::::::::::::::",
"::::::::::::::::::::O####%......::::::::::::::::::::::::::::::::",
"::::::::::::::::::::ooo#%.......::::::::::::::::::::::::::::::::",
":::::::::::::::::::::oooo........:::::::::::::::::::::::::::::::",
"::::::::::::::::::::::::.........:::::::::::::::::::::::::::::::",
"::::::::::::::::::::::::.....@.@.:::::::::::::::::::::::::::::::",
"::::::::::::::::::::::::.........:::::::::::::::::::::::::::::::",
"::::::::::::::::::::::::.........:::::::::::::::::::::::::::::::",
"::::::::::::::::::::::::.........:::::::::::::::::::::::::::::::",
"::::::::::::::::::::::::.........oooo::::::::::::::$$:::::::::::",
"::::::::::::::::::::::.............oooo::::::::::::$$:::::::::::",
"::::::::::::::::::::................:oooo:::::::::::::::::::::::",
":::::::::::::::::::..................::oooo:::::::::::::::::::::",
"::::::::::::::::::...................::::ooooX::::::::::::::::::",
":::::::::::::::::....................::::::oooo:::::::::::::::::",
"::::::::::::::::....................+::::::X+oooo:::::::::::::::",
"::::::::::::::::...................X+:::::X+OX:oooo:::::::::::::",
"::::::::::::::::..................+XX+:::XXX:::::oooo:::::::::::",
"::::::::::::::::.................++:++::+X+::::::::oooo:::::::::",
":::::::::::::$$:................+X+::X+X++:::::::::::oooo:::::::",
":::::::::::::$$:..............++X++::++X+::::::::::::::oooo:::::",
"::::::::::::::::.............+XX+:X:::+X:::::::::::::::::oooo:::",
"::::::::::::::::............XX++:X+::::::::::::::::::::::::oo:::",
"::::::::::::::::...........XX+XXX+::::::::::::::::::::::::::::::",
":::::::::::::::::..........+XX:++:::::::::::::::::::::::::::::::",
"::::::::::::::::::..........XXX::::;;:::::::::::::::::::::::::::",
"::::::::::::::::::......... .XX::::;;:::::::::::::::::::::::::::",
":::::::::::::::::::.........XXX :::::::::::::::;;:::::::::::::::",
":::::::::::::::::::........XXX: :::::::::::::::;;:::::::::::::::",
":::::::::::::::::::........XXX: ::::::::::::::::::::::::::::::::",
"::::::::::::::::::::........XX :::::::::::::::::::::::::::::::::",
"::::::::::::::::::::........X::::::::::::::::::&&:::::::::::::::",
":::::::::::::::::::.........X::::::::::::::::::&&:::::::::::::::",
"::::::::::::::::::.........:X::::::::&&::::::::&&::::::::$$:::::",
"::::::::::::::::::.........:X::::::::&&::::::::&&::::::::$$:::::",
":::::::::::::::::.........::X::::::::&&::::&&::&&:::::::::::::::",
":::::::::::::::::.........:: ::::::::&&::::&&::&&:::::::::::::::",
":::::::::::::::::........::: ::::::**&&::::&&::&&:::::::::::::::",
":::::::::::::::::........::::::::::**&&::::&&::&&:::::::::::::::",
"::::::::::::::::::......:::::::::::&&&&**&&&&**&&::&&:::::::::::",
"::::::::::::::::::......:::::::::::&&&&**&&&&**&&::&&:::::::::::",
":::::::::::::::::::.....:::--**&&**&&****&&******::&&&&--:::::::",
"::::::::::::::::::::....:::--**&&**&&****&&******::&&&&--:::::::",
":::::::::::::::::::::....::::----**--****--**--**------:::::::::",
":::::::::::::::::::::....::::----**--****--**--**------:::::::::",
"::::::::::::::::::::::...::::::::--::**--::**::--::**:::::::::::",
"::::::::::::::::::::::...::::::::--::**--::**::--::**:::::::::::",
":::::::::::::::::::::::..::::::::::::--::::--::::::==:::::::::::",
":::::::::::::::::::::::..::::::::::::--::::--::::::==:::::::::::",
"::::::::::::::::::::::::.:::::::::::::::::::::::::::::::::::::::",
"::::::::::::::::::::::::..::::::::::::::::::::::::::::::::::::::",
":::::::::::::::::::::::::.:::::::::::::::$$:::::::::::::::::::::",
":::::::::::::::::::::::::::::::::::::::::$$:::::::::::::::::::::"
};
