/* XPM */
static char *_ec566ff29c840e99f138325eeff1920IDrf00cx2OsNJkiI[] = {
/* columns rows colors chars-per-pixel */
"64 64 168 2 ",
"   c #0F0B0D",
".  c #110C0E",
"X  c #170F11",
"o  c #180F11",
"O  c #121113",
"+  c #1D1214",
"@  c #16151A",
"#  c #17191C",
"$  c #191819",
"%  c #221516",
"&  c #261718",
"*  c #281819",
"=  c #331E1E",
"-  c #253116",
";  c #161C20",
":  c #1B1F21",
">  c #371F20",
",  c #1D2221",
"<  c #1F272A",
"1  c #1F2A2A",
"2  c #242523",
"3  c #282525",
"4  c #20272D",
"5  c #20292D",
"6  c #3E2323",
"7  c #222B32",
"8  c #262F3B",
"9  c #223334",
"0  c #26323B",
"q  c #28353F",
"w  c #263C3C",
"e  c #43351E",
"r  c #4A3B1F",
"t  c #26403E",
"y  c #665128",
"u  c #6D572A",
"i  c #785F2D",
"p  c #283540",
"a  c #2A3C44",
"s  c #303D47",
"d  c #303E4F",
"f  c #274140",
"g  c #2A4246",
"h  c #2A4A47",
"j  c #2B4449",
"k  c #2C4C4C",
"l  c #35424A",
"z  c #2D504D",
"x  c #3D4A51",
"c  c #2F5753",
"v  c #325B56",
"b  c #355E58",
"n  c #37635C",
"m  c #3A4C61",
"M  c #3A5467",
"N  c #3E6D64",
"B  c #3B6778",
"V  c #4C5659",
"C  c #535F63",
"Z  c #406660",
"A  c #456963",
"S  c #4B6F68",
"D  c #596768",
"F  c #447469",
"G  c #44766A",
"H  c #51746D",
"J  c #6A7877",
"K  c #8F7235",
"L  c #937535",
"P  c #947D47",
"I  c #56872A",
"U  c #568C7B",
"Y  c #56907E",
"T  c #64847B",
"R  c #6A897F",
"E  c #AD8C42",
"W  c #C8A046",
"Q  c #C7A14B",
"!  c #CEA548",
"~  c #DBAF4C",
"^  c #EDBE52",
"/  c #3C7685",
"(  c #3E7986",
")  c #4C6885",
"_  c #4C6D89",
"`  c #4D728E",
"'  c #4D7691",
"]  c #4D7B95",
"[  c #4D7F98",
"{  c #4C8787",
"}  c #599485",
"|  c #4D849D",
" . c #708E84",
".. c #619D8A",
"X. c #7A978C",
"o. c #6BA68B",
"O. c #69AC93",
"+. c #7AAA91",
"@. c #6EB499",
"#. c #72B99D",
"$. c #4E87A0",
"%. c #4E8BA3",
"&. c #4E90A7",
"*. c #4E93AA",
"=. c #4E99AF",
"-. c #4F9DB2",
";. c #4FA2B6",
":. c #4FA4B8",
">. c #51A6B8",
",. c #56ABB9",
"<. c #5DB2BA",
"1. c #61B6BA",
"2. c #65BABB",
"3. c #69BEBB",
"4. c #7BC7A7",
"5. c #6DC2BC",
"6. c #71C6BC",
"7. c #75CABC",
"8. c #79CEBD",
"9. c #7DD3BD",
"0. c #85918C",
"q. c #8B9F95",
"w. c #88AA97",
"e. c #92AB9B",
"r. c #9EB29F",
"t. c #A4AA9D",
"y. c #95ADA0",
"u. c #9EB5A7",
"i. c #A8B5A7",
"p. c #B1B6A7",
"a. c #8CCFB0",
"s. c #81D7BE",
"d. c #85DABE",
"f. c #89DDBB",
"g. c #95D7B7",
"h. c #ABC0B0",
"j. c #B4C6B7",
"k. c #BACDBC",
"l. c #8CE2BF",
"z. c #91E6BE",
"x. c #8FE5C0",
"c. c #92E8C0",
"v. c #96E8C2",
"b. c #A7E9C6",
"n. c #A2ECC7",
"m. c #ABEDCA",
"M. c #B7E4C8",
"N. c #B1ECCB",
"B. c #B4F0CE",
"V. c #B8F1CF",
"C. c #BBF1D0",
"Z. c #C4D5C3",
"A. c #CCDCC9",
"S. c #D4E3CF",
"D. c #DAE7D3",
"F. c #C4F4D4",
"G. c #C9F5D7",
"H. c #CEF6D8",
"J. c #D0F2D7",
"K. c #D2F7DA",
"L. c #D7F8DC",
"P. c #DCF9DE",
"I. c #E6F3DD",
"U. c #E9F3DE",
"Y. c #E2FAE0",
"T. c #EEFCE4",
"R. c #F1FEE6",
"E. c #F5FFE8",
/* pixels */
"^ ^ ^ ^ ^ ^ ^ ^ ^ ^ ^ ^ ^ ^ ^ ^ ^ ^ ^ ^ ^ ^ ^ ^ ^ ^ ^ ^ ^ ^ y     y ^ ^ ^ ^ ^ ^ ^ ^ ^ ^ ^ ^ ^ ^ ^ ^ ^ ^ ^ ^ ^ ^ ^ ^ ^ ^ ^ ^ ^ ^ ",
"^ ^ ^ ^ ^ ^ ^ ^ ^ ^ ^ ^ ^ ^ ^ ^ ^ ^ ^ ^ ^ ^ ^ ^ ^ ^ ^ ^ W L i y y i L W ^ ^ ^ ^ ^ ^ ^ ^ ^ ^ ^ ^ ^ ^ ^ ^ ^ ^ ^ ^ ^ ^ ^ ^ ^ ^ ^ ^ ",
"^ ^ ^ ^ ^ ^ ^ ^ ^ ^ ^ ^ ^ ^ ^ ^ ^ ^ ^ ^ ^ ^ ^ ^ ^ ^ ^ ^ L . L ^ ^ L . K ^ ^ ^ ^ ^ ^ ^ ^ ^ ^ ^ ^ ^ ^ ^ ^ ^ ^ ^ ^ ^ ^ ^ ^ ^ ^ ^ ^ ",
"^ ^ ^ ^ ^ ^ ^ ^ ^ ~ K u u u u u u u u u u u u u u u u u e   r u u e . r u u u u u u u u u u u u u u u u u K ~ ^ ^ ^ ^ ^ ^ ^ ^ ^ ",
"^ ^ ^ ^ ^ ^ ^ ^ ^ ! r . o + X X o o o + o + o X o o + o o o o o o o o o o o o o o o o + o o o o o o + o . r ! ^ ^ ^ ^ ^ ^ ^ ^ ^ ",
"^ ^ ^ ^ ^ ^ ^ ^ ^ ! r + = = = = = = = = = = = = = = = = = = = = = = = = = = = = = = = = = = = = = = = = % r ! ^ ^ ^ ^ ^ ^ ^ ^ ^ ",
"^ ^ ^ ^ ^ ^ ^ ^ ^ ! r % 6 > = = * = = = = = = * = = = * = = = = = = = = = = = = = * = = = = = = = = = 6 % r ! ^ ^ ^ ^ ^ ^ ^ ^ ^ ",
"^ ^ ^ ^ ^ ^ ^ ^ ^ ! r % 6 * . . . . . . . . . . o . . . . . . . .   .     . . . . . . . . . . . o . * 6 + r ! ^ ^ ^ ^ ^ ^ ^ ^ ^ ",
"^ ^ ^ ^ ^ ^ ^ ^ ^ ! r + 6 * O 8 d d d d d d d d d d d d d d d d s d d d d d d d d d d d d d d d 8 O * 6 % r ! ^ ^ ^ ^ ^ ^ ^ ^ ^ ",
"^ ^ ^ ^ ^ ^ ^ ^ ^ ! r % 6 * @ m ) ) ) ) ) ) ) ) ) ) ) ) ) ) ) ) ) ) ) ) ) ) ) ) ) ) ) ) ) ) ) ) m + * > % r ! ^ ^ ^ ^ ^ ^ ^ ^ ^ ",
"^ ^ ^ ^ ^ ^ ^ ^ ^ ! r + 6 * @ m ) ) ) ) ) ) ) ) ) ) ) ) ) ) ) ) ) ) ) ) ) ) ) ) ) ) ) ) ) ) ) ) m @ & e % r ! ^ ^ ^ ^ ^ ^ ^ ^ ^ ",
"^ ^ ^ ^ ^ ^ ^ ^ ^ ! r % 6 * @ m ) ) ) ) ) ) ) ) ) ) ) ) ) ) ) ) ) ) ) ) ) ) ) ) ) ) ) ) ) ) ) ) m @ & 6 + r ! ^ ^ ^ ^ ^ ^ ^ ^ ^ ",
"^ ^ ^ ^ ^ ^ ^ ^ ^ ! r % 6 * @ x ) ) ) ) ) ) ) ) ) ) ) ) ) ) ) ) ) ) ) ) ) ) ) ) ) ) ) ) ) ) ) ) m @ * > % r W ^ ^ ^ ^ ^ ^ ^ ^ ^ ",
"^ ^ ^ ^ ^ ^ ^ ^ ^ ! r % 6 * ; m ) ) ) ) ) ) ) ) ) ) ) ) ) ) ) ) ) ) ) ) ) ) ) ) ) ) ) ) ) ) ) ) m @ * 6 % r ! ^ ^ ^ ^ ^ ^ ^ ^ ^ ",
"^ ^ ^ ^ ^ ^ ^ ^ ^ ! r + 6 * @ m ) ` _ ) _ _ ) _ _ ) ) ) _ ) _ _ ) ) ` ) ) _ _ ) ) _ ) ) _ _ ) _ m @ * 6 % r ! ^ ^ ^ ^ ^ ^ ^ ^ ^ ",
"^ ^ ^ ^ ^ ^ ^ ^ ^ ! r % 6 * @ m ' &.] _ | | _ ] &.' ` %.| ) | %._ ' &.] ` $.| ) [ %.' ' &.] _ $.) ; * 6 % r ! ^ ^ ^ ^ ^ ^ ^ ^ ^ ",
"^ ^ ^ ^ ^ ^ ^ ^ ^ ! r + 6 * @ M | &.| ] %.%.] $.&.| | %.%.] | %.[ | &.| [ %.%.] %.%.[ | &.| ] %.B # & 6 % r ! ^ ^ ^ ^ ^ ^ ^ ^ ^ ",
"^ ^ ^ ^ ^ ^ ^ ^ ^ ! r % 6 * ; / &.' | -.[ ] =.$.` %.&.' | -.[ ] *.%.` %.&.] [ -.| ' &.%.' | -.] M @ & 6 % r ! ^ ^ ^ ^ ^ ^ ^ ^ ^ ",
"^ ^ ^ ^ ^ ^ ^ ^ ^ ! r % 6 * ; ( -.$.*.:.%.%.-.=.| -.-.%.&.:.&.%.-.=.$.=.-.%.&.;.&.%.-.-.$.*.;.&.B ; * 6 + r ! ^ ^ ^ ^ ^ ^ ^ ^ ^ ",
"^ ^ ^ ^ ^ ^ ^ ^ ^ ! r + 6 * ; ( :.:.:.:.:.:.:.:.:.:.:.:.:.:.:.:.:.:.:.:.:.:.:.:.:.:.:.:.:.:.:.:./ ; * 6 % r ! ^ ^ ^ ^ ^ ^ ^ ^ ^ ",
"^ ^ ^ ^ ^ ^ ^ ^ ^ ! r % 6 * ; ( :.:.:.:.:.:.:.:.:.:.:.:.:.:.:.:.:.:.:.:.:.:.:.:.:.:.:.:.:.:.:.:./ ; * 6 & r ! ^ ^ ^ ^ ^ ^ ^ ^ ^ ",
"^ ^ ^ ^ ^ ^ ^ ^ ^ ! r + 6 * ; / :.:.:.:.:.:.:.:.:.:.:.:.:.:.:.:.:.:.:.:.:.:.:.:.:.:.:.:.:.:.:.:./ ; * 6 % r ! ^ ^ ^ ^ ^ ^ ^ ^ ^ ",
"^ ^ ^ ^ ^ ^ ^ ^ ^ ! r % 6 * ; / :.:.:.:.:.:.:.:.:.:.:.:.:.:.:.:.:.:.:.:.:.:.:.:.:.:.:.:.:.:.:.:./ ; & 6 + r ! ^ ^ ^ ^ ^ ^ ^ ^ ^ ",
"^ ^ ^ ^ ^ ^ ^ ^ ^ ! r + 6 * ; / :.:.:.:.:.:.:.:.:.:.:.:.:.:.:.>.:.:.:.:.:.:.:.:.:.:.:.:.:.:.:.:./ ; & > % r ! ^ ^ ^ ^ ^ ^ ^ ^ ^ ",
"^ ^ ^ ^ ^ ^ ^ ^ ^ ! r % 6 * ; ( :.:.:.>.:.:.:.>.:.:.>.:.>.>.>.>.:.>.:.>.>.:.:.>.>.:.>.>.>.>.>.>./ ; * 6 % r ! ^ ^ ^ ^ ^ ^ ^ ^ ^ ",
"^ ^ ^ ^ ^ ^ ^ ^ ^ ! r + 6 * , } 5.,.2.8.<.<.6.3.>.5.6.,.<.9.<.,.5.5.>.2.6.<.<.9.1.,.5.5.>.2.6.<./ ; * 6 % r ! ^ ^ ^ ^ ^ ^ ^ ^ ^ ",
"^ ^ ^ ^ ^ ^ ^ ^ ^ ! r % 6 * , } 8.2.5.s.5.3.s.7.<.7.9.2.5.s.5.2.9.6.<.8.9.2.5.9.6.2.8.7.2.6.9.5.{ ; * 6 + r ! ^ ^ ^ ^ ^ ^ ^ ^ ^ ",
"^ ^ ^ ^ ^ ^ ^ ^ ^ ! r % 6 * : { 3.s.6.<.8.9.<.5.d.5.2.9.6.<.8.9.2.5.d.5.2.9.8.<.6.s.2.3.s.5.2.8...: * > % r ! ^ ^ ^ ^ ^ ^ ^ ^ ^ ",
"^ ^ ^ ^ ^ ^ ^ ^ ^ ! r % 6 * : { 8.x.s.5.d.d.6.9.c.9.6.x.s.5.s.l.6.9.c.9.6.l.s.5.9.x.8.8.c.9.6.f.o., & 6 % r ! ^ ^ ^ ^ ^ ^ ^ ^ ^ ",
"^ ^ ^ ^ ^ ^ ^ ^ ^ ! r + 6 * , o.c.x.c.c.c.c.c.c.c.x.c.c.c.c.c.c.z.c.c.c.z.c.c.c.c.c.c.c.c.c.v.z.o.2 & 6 % r ! ^ ^ ^ ^ ^ ^ ^ ^ ^ ",
"^ ^ ^ ^ ^ ^ ^ ^ ^ ! r % 6 * , o.c.c.c.c.c.c.c.c.c.c.c.c.c.c.c.c.c.c.c.c.c.z.c.c.c.c.c.c.c.c.z.v.o., * 6 o r ! ^ ^ ^ ^ ^ ^ ^ ^ ^ ",
"^ ^ ^ ^ ^ ^ ^ ^ ^ ! r + 6 * , o.c.c.c.c.c.c.c.c.c.c.c.c.c.c.c.c.c.c.c.c.c.c.c.c.c.c.c.c.c.c.z.z.o., * 6 % r ! ^ ^ ^ ^ ^ ^ ^ ^ ^ ",
"^ ^ ^ ^ ^ ^ ^ ^ ^ ! r % 6 * , o.c.c.c.c.c.c.c.c.c.c.c.c.c.c.z.z.c.c.c.c.z.c.c.c.c.c.c.c.c.c.c.c.o., * 6 + r ! ^ ^ ^ ^ ^ ^ ^ ^ ^ ",
"^ ^ ^ ^ ^ ^ ^ ^ ^ ! r + 6 % , o.c.z.c.c.c.c.c.c.c.c.c.c.c.c.x.x.#.4.z.z.c.c.c.c.c.c.c.c.c.c.c.c.o., & 6 % r ! ^ ^ ^ ^ ^ ^ ^ ^ ^ ",
"^ ^ ^ ^ ^ ^ ^ ^ ^ ! r + > % , o.c.c.c.c.c.c.c.c.c.c.c.c.c.c.x.4.G } z.z.z.c.c.c.c.c.c.c.c.c.c.c.o., & 3 + r ! ^ ^ ^ ^ ^ ^ ^ ^ ^ ",
"^ ^ ^ ^ ^ ^ ^ ^ ^ ! r + > * , o.c.c.c.c.c.c.c.c.c.c.c.c.c.z.O.U n N Y 4.c.c.c.v.c.c.c.c.c.c.c.c.o., & = + r ! ^ ^ ^ ^ ^ ^ ^ ^ ^ ",
"^ ^ ^ ^ ^ ^ ^ ^ ^ ! r + > * , o.c.c.c.c.c.c.c.c.c.c.c.c.v.c.} c c c c O.c.c.c.c.c.c.c.c.c.c.c.c.o., & = + r ! ^ ^ ^ ^ ^ ^ ^ ^ ^ ",
"^ ^ ^ ^ ^ ^ ^ ^ ^ ! r + > % , o.c.c.c.c.c.c.c.c.c.c.c.c.x.x.Y c c c c O.c.c.c.c.c.c.c.c.c.c.c.c.o., & > + r ! ^ ^ ^ ^ ^ ^ ^ ^ ^ ",
"^ ^ ^ ^ ^ ^ ^ ^ ^ ! r + > * , o.c.c.c.c.c.c.c.c.c.c.c.c.a.@.G c c c c Y #.l.c.c.c.c.c.c.c.c.v.c.o., & > + r ! ^ ^ ^ ^ ^ ^ ^ ^ ^ ",
"^ ^ ^ ^ ^ ^ ^ ^ ^ ! r + = % , o.c.c.c.c.c.c.c.c.c.c.c.c.O.b b c c c c v G 4.c.v.c.c.c.c.c.c.v.v.o., & = + r ! ^ ^ ^ ^ ^ ^ ^ ^ ^ ",
"^ ^ ^ ^ ^ ^ ^ ^ ^ ! r + = * 2 e.V.c.m.F.n.n.F.N.v.N.C.v.O.b c c c c c c N 4.n.G.m.c.C.V.v.m.F.v.o., & > + r ! ^ ^ ^ ^ ^ ^ ^ ^ ^ ",
"^ ^ ^ ^ ^ ^ ^ ^ ^ ! r + = * 3 t.K.m.V.S.N.N.P.G.n.H.J.g.} v c c c c c c N #.b.Y.F.m.K.K.n.F.Y.V.+., & > + r ! ^ ^ ^ ^ ^ ^ ^ ^ ^ ",
"^ ^ ^ ^ ^ ^ ^ ^ ^ ! r + = * 2 +.C.L.u.J j.H.B.F.P.C.g.} F c c c c c c c b N o.b.G.K.C.C.L.F.B.H.r.2 & = + r ! ^ ^ ^ ^ ^ ^ ^ ^ ^ ",
"^ ^ ^ ^ ^ ^ ^ ^ ^ ! r + = * 2 w.M.h.J l 0.j.N.H.E.H.a.F c c c c c c c c c c R m.L.T.F.G.R.K.V.Y.p.3 & > + r ! ^ ^ ^ ^ ^ ^ ^ ^ ^ ",
"^ ^ ^ ^ ^ ^ ^ ^ ^ ! r + = % 3 i.p.V d p l J S.T.E.E.Z.H c c c c c c c c c c  .U.R.R.R.R.R.R.R.R.p.3 % = + r ! ^ ^ P P ^ ^ ^ ^ ^ ",
"^ ^ ^ ^ ^ ^ ^ ^ ^ ! r + = % 3 i.j.V q p q D D.E.E.E.D.i. .c c c c c c c Z X.k.R.E.E.E.E.E.E.E.E.p.3 & > + r ! ^ ^ P P ^ ^ ^ ^ ^ ",
"^ ^ ^ ^ ^ ^ ^ ^ ^ ! r % = * 3 t.i.x p p p D Z.U.E.E.E.E.i.Z N N v n A A T A.E.E.E.E.E.E.E.E.E.E.p.3 & = + r ! ^ ^ ^ ^ ^ ^ ^ ^ ^ ",
"^ ^ ^ ^ ^ ^ ^ ^ ^ ! r % = * @ V C d p p p l D i.E.E.E.E.D.k.k.i.S T k.k.Z.I.E.E.E.E.E.E.E.E.E.E.p.3 & > + r ! ^ ^ ^ ^ ^ ^ ^ ^ ^ ",
"^ ^ ^ ^ ^ ^ ^ ^ ^ ! r + > % X 1 p p p p p p p 0.E.E.I.Z.k.k.k.i.S T k.k.k.k.A.R.E.E.E.E.E.E.E.E.p.3 & = + r ! ^ ^ ^ ^ ^ ^ ^ ^ ^ ",
"^ ^ ^ ^ ^ ^ ^ ^ ^ ! r + > * X 1 p p p p p p p 0.E.E.A.T A A A Z v b A A A A q.T.E.E.E.E.E.E.E.E.p.3 * = + r ! ^ ^ ^ ^ ^ ^ ^ ^ ^ ",
"^ ^ ^ ^ ^ ^ ^ ^ ^ ! r + > % O 7 p p p p p p p D q.e.X.A c c c c c c c c c c H e.y.y.y.y.e.A.E.E.p.3 & = + r ! ^ ^ ^ ^ ^ ^ ^ ^ ^ ",
"^ ^ ^ ^ ^ ^ ^ ^ ^ ! r + > & O 7 p p p p p p p p p k c c c c c c c c c c c c c v c c c c c w.I.I.t.3 * = $ r ! ^ ^ ^ ^ ^ ^ ^ ^ ^ ",
"^ ^ ^ ^ ^ ^ ^ ^ ^ ! r + > % O 7 p p p p p p p p p k c c c c c c c c c c c c c c c c c c c H  . .D + % > + - I Q W ^ ^ ^ ^ ^ ^ ^ ",
"^ ^ ^ ^ ^ ^ ^ ^ ^ ! r + > & O 7 p p p p p p p a a k c c c c c c c c c c c c c c c c c c c c c c t O & > + - I W W ^ ^ ^ ^ ^ ^ ^ ",
"^ ^ ^ ^ ^ ^ ^ ^ ^ ! r + > % O 7 p p p p p p p a c c c c c c c c c c c c c c c c c v c c c c c c t O & > + r E ^ ^ ^ ^ ^ ^ ^ ^ ^ ",
"^ ^ ^ ^ ^ ^ ^ ^ ^ ! r + > % O 9 j j a p a j j k c c c c c c c c c c c c c c c c h f k c c h t t 9 . % > + 6 E ^ ^ ^ ^ ^ ^ ^ ^ ^ ",
"^ ^ ^ ^ ^ ^ ^ ^ ^ ! r + > % O f c c j p k c c c c c c c c c c z c c c c c c c c w 1 h c c t , , # . % > + r ! ^ ^ ^ ^ ^ ^ ^ ^ ^ ",
"^ ^ ^ ^ ^ ^ ^ ^ ^ ! r + > & O 9 j a a p a a j j a c c c c v t w c c c c z w 9 9 t f h c c h t 1 # . & > + r ! ^ ^ ^ ^ ^ ^ ^ ^ ^ ",
"^ ^ ^ ^ ^ ^ ^ ^ ^ ! r + > % O 7 p p p p p p p p p g h k k k 9 5 h c c c z 9 < # t c h h h h t 1 # . & > + r ! ^ ^ ^ ^ ^ ^ ^ ^ ^ ",
"^ ^ ^ ^ ^ ^ ^ ^ ^ ! r + > % O 7 p p p q p p p p q 7 7 w a a 5 7 h c c c c z w , t z 9 1 1 1 1 , # . % > + r ! ^ ^ ^ ^ ^ ^ ^ ^ ^ ",
"^ ^ ^ ^ ^ ^ ^ ^ ^ ! r X > % O 7 p p p p p p q 8 7 7 7 q p p 7 7 w g k g w a 9 , 9 w , : : : : : # . % > + r ! ^ ^ ^ ^ ^ ^ ^ ^ ^ ",
"^ ^ ^ ^ ^ ^ ^ ^ ^ ! r % > & O 7 p p p p p p p 7 , 7 p p p p p 0 , < q < , : : : : : , : : : : , # . % > + r ! ^ ^ ^ ^ ^ ^ ^ ^ ^ ",
"^ ^ ^ ^ ^ ^ ^ ^ ^ ! r X > & O 7 p p 8 7 8 q p q 7 7 < 5 4 4 < < : < < < : : : : : : : : : : # , # O & > + r ! ^ ^ ^ ^ ^ ^ ^ ^ ^ ",
"^ ^ ^ ^ ^ ^ ^ ^ ^ ! r X > + X 7 q q 7 , 7 p p p p < : , : : : : : ; , # , : : : : : : : : : , , # . % > $ r ! ^ ^ ^ ^ ^ ^ ^ ^ ^ "
};
