/* XPM */
static char *f5f4c3fd5f2e4261dc16bc6d6f0d5642YUhVP84Om1jSzB2R[] = {
/* columns rows colors chars-per-pixel */
"352 32 10 1 ",
"  c None",
". c #211F30",
"X c #076029",
"o c #9C1B4D",
"O c #CC3048",
"+ c #E44A4A",
"@ c #28860F",
"# c #72A11D",
"$ c #A4CC42",
"% c white",
/* pixels */
"                                                                                                                                                                                                                                                                                                                                                                ",
"                                                                                                                                                                                                                                                                                                                                                                ",
"                                                                                                                                                                                                                                                                                                                                                                ",
"                                                                                                                                                                                                                                                                                                                                                                ",
"                                                                                                                                                                                                                                                                                                                                                                ",
"                                                                                                                                                                                                                                                                                                                                                                ",
"                                                                                                                                                                     ...   ......   ....             ...   ......   ....             ...   ......   ....             ...   ......   ....                                                                        ",
"                                                                                                     ...   ......   ....             ...   ......   ....            .+++. .######. .####.           .+++. .######. .####.           .+++. .######. .####.           .+++. .######. .####.            ...   ......   ....             ...   ......   ....        ",
"     ...   ......   ....             ...   ......   ....             ...   ......   ....            .+++. .######. .####.           .+++. .######. .####.           .OOOo................           .OOOo................           .OOOo................           .OOOo................           .+++. .######. .####.           .+++. .######. .####.       ",
"    .+++. .######. .####.           .+++. .######. .####.           .+++. .######. .####.           .OOOo................           .OOOo................            ..o.oO+++O+OOOO+O+++.           ..o.oO+++O+OOOO+O+++.           ..o.oO+++O+OOOO+O+++.           ..o.oO+++O+OOOO+O+++.          .OOOo................           .OOOo................       ",
"    .OOOo................           .OOOo................           .OOOo................            ..o.oO+++O+OOOO+O+++.           ..o.oO+++O+OOOO+O+++.          .Oo....oooOoOOOOoOoo..          .Oo....oooOoOOOOoOoo..          .Oo....oooOoOOOOoOoo..          .Oo....oooOoOOOOoOoo..           ..o.oO+++O+OOOO+O+++.           ..o.oO+++O+OOOO+O+++.      ",
"     ..o.oO+++O+OOOO+O+++.           ..o.oO+++O+OOOO+O+++.           ..o.oO+++O+OOOO+O+++.          .Oo....oooOoOOOOoOoo..          .Oo....oooOoOOOOoOoo..          .+O.ooOOOOOOOOOOOOOOO.          .+O.ooOOOOOOOOOOOOOOO.          .+O.ooOOOOOOOOOOOOOOO.          .+O.ooOOOOOOOOOOOOOOO.          .Oo....oooOoOOOOoOoo..          .Oo....oooOoOOOOoOoo..      ",
"    .Oo....oooOoOOOOoOoo..          .Oo....oooOoOOOOoOoo..          .Oo....oooOoOOOOoOoo..          .+O.ooOOOOOOOOOOOOOOO.          .+O.ooOOOOOOOOOOOOOOO.          .+O...................          .+O...................          .+O...................          .+O...................          .+O.ooOOOOOOOOOOOOOOO.          .+O.ooOOOOOOOOOOOOOOO.      ",
"    .+O.ooOOOOOOOOOOOOOOO.          .+O.ooOOOOOOOOOOOOOOO.          .+O.ooOOOOOOOOOOOOOOO.          .+O...................          .+O...................          .+..@@@@X%%%%X@X%%%%X@.         .+..@@@@X%%%%X@X%%%%X@.         .+..@@@@X%%%%X@X%%%%X@.         .+..@@@@X%%%%X@X%%%%X@.         .+O...................          .+O...................      ",
"    .+O...................          .+O...................          .+O...................          .+..@@@@X%%%%X@X%%%%X@.         .+..@@@@X%%%%X@X%%%%X@.          ..@####@XXXX@#@XXXX@#.          ..@####@XXXX@#@XXXX@#.          ..@####@XXXX@#@XXXX@#.          ..@####@XXXX@#@XXXX@#.         .+..@@@@X%%%%X@X%%%%X@.         .+..@@@@X%%%%X@X%%%%X@.     ",
"    .+..@@@@X%%%%X@X%%%%X@.         .+..@@@@X%%%%X@X%%%%X@.         .+..@@@@X%%%%X@X%%%%X@.          ..@####@XXXX@#@XXXX@#.          ..@####@XXXX@#@XXXX@#.           .###################.           .###################.           .###################.           .###################.          ..@####@XXXX@#@XXXX@#.          ..@####@XXXX@#@XXXX@#.     ",
"     ..@####@XXXX@#@XXXX@#.          ..@####@XXXX@#@XXXX@#.          ..@####@XXXX@#@XXXX@#.           .###################.           .###################.           .#####XXXXXXXXXXXX##.           .#####XXXXXXXXXXXX##.           .#####XXXXXXXXXXXX##.           .#####XXXXXXXXXXXX##.           .###################.           .###################.     ",
"      .###################.           .###################.           .###################.           .#####XXXXXXXXXXXX##.           .#####XXXXXXXXXXXX##.           .####@############@#.           .####@############@#.           .####@############@#.           .####@############@#.           .#####XXXXXXXXXXXX##.           .#####XXXXXXXXXXXX##.     ",
"      .#####XXXXXXXXXXXX##.           .#####XXXXXXXXXXXX##.           .#####XXXXXXXXXXXX##.           .####@############@#.           .####@############@#.           .#########@@@@@#####.           .#########@@@@@#####.           .#########@@@@@#####.           .#########@@@@@#####.           .####@############@#.           .####@############@#.     ",
"      .####@############@#.           .####@############@#.           .####@############@#.           .#########@@@@@#####.           .#########@@@@@#####.            .@###############@.             .@###############@.             .@###############@.             .@###############@.            .#########@@@@@#####.           .#########@@@@@#####.     ",
"      .#########@@@@@#####.           .#########@@@@@#####.           .#########@@@@@#####.            .@###############@.             .@###############@.              .@@###########@@.               .@@###########@@.               .@@###########@@.               .@@###########@@.              .@###############@.             .@###############@.      ",
"       .@###############@.             .@###############@.             .@###############@.              .@@###########@@.               .@@###########@@.                ..###########..                 ..###########..                 ..###########..                 ..###########..                .@@###########@@.               .@@###########@@.       ",
"        .@@###########@@.               .@@###########@@.               .@@###########@@.                ..###########..                 ..###########..                .#####$$$$$$$##..               .#####$$$$$$$##..               .#####$$$$$$$##..               .#####$$$$$$$##..               ...###########...               ...###########...       ",
"        ...###########...                ..###########..                 ..###########..                .#####$$$$$$$##..               .#####$$$$$$$##..              .#####$$$$$$$$$#.@.             .#####$$$$$$$$$#.@.             .#####$$$$$$$$$#.@.             .#####$$$$$$$$$#.@.             .######$$$$$$$##.@.             .######$$$$$$$##.@.      ",
"       .######$$$$$$$##.@.              .#####$$$$$$$##..               .#####$$$$$$$##..              .#####$$$$$$$$$#.@.             .#####$$$$$$$$$#.@.            .@##@.#$$$$$$$$$#.@@.           .@##@.#$$$$$$$$$#.@@.           .@##@.#$$$$$$$$$#.@@.           .@##@.#$$$$$$$$$#.@@.           .@##@.#$$$$$$$$$#.@@.           .@##@.#$$$$$$$$$#.@@.     ",
"      .@##@.#$$$$$$$$$#.@@.            .#####$$$$$$$$$#.@.             .#####$$$$$$$$$#.@.             .##@.#$$$$$$$$$#.@.             .##@.#$$$$$$$$$#.@.            .@@@.##$$$$$$$$$#.@@.           .@@@.##$$$$$$$$$#.@@.           .@@@.##$$$$$$$$$#.@@.           .@@@.##$$$$$$$$$#.@@.           .@@@.##$$$$$$$$$#.@@.           .@@@.##$$$$$$$$$#.@@.     ",
"      .@@@.##$$$$$$$$$#.@@.           .@##@.#$$$$$$$$$#.@@.           .@##@.#$$$$$$$$$#.@@.            .@@.##$$$$$$$$$#.@.             .@@.##$$$$$$$$$#.@.             ...@##$$$$$$$$$#...             ...@##$$$$$$$$$#...             ...@##$$$$$$$$$#...             ...@##$$$$$$$$$#...             ...@##$$$$$$$$$#...             ...@##$$$$$$$$$#...      ",
"       ...@###$$$$$$$##...            .@@@.###$$$$$$$##.@@.           .@@@.###$$$$$$$##.@@.             ..@###$$$$$$$##..               ..@###$$$$$$$##..                .@###$$$$$$$##.                 .@###$$$$$$$##.                 .@###$$$$$$$##.                 .@###$$$$$$$##.                 .@###$$$$$$$##.                 .@###$$$$$$$##.        ",
"         .@##........##.               ...@##........##...             ...@##........##...               .@##........##.                 .@##........##.                 .@##........##.                 .@##........##.                 .@##........##.                 .@##........##.                 .@##........##.                 .@##........##.        ",
"         .@#@.     .@#@.                 .@#@.     .@#@.                 .@#@.     .@#@.                 .@#@.     .@#@.                 .@#@.     .@#@.                 .@#@.     .@#@.                 .@#@.     .@#@.                 .@#@.     .@#@.                 .@#@.     .@#@.                 .@#@.     .@#@.                 .@#@.     .@#@.        ",
"         .@@.      .@@.                  .@@.      .@@.                  .@@.      .@@.                  .@@.      .@@.                  .@@.      .@@.                  .@@.      .@@.                  .@@.      .@@.                  .@@.      .@@.                  .@@.      .@@.                  .@@.      .@@.                  .@@.      .@@.         ",
"          ..        ..                    ..        ..                    ..        ..                    ..        ..                    ..        ..                    ..        ..                    ..        ..                    ..        ..                    ..        ..                    ..        ..                    ..        ..          "
};
