/* XPM */
static char *fc1bd3c783af4a22b22f255acf2ba1c951OvoStcm1ts8ePS[] = {
/* columns rows colors chars-per-pixel */
"64 64 182 2 ",
"   c #131312",
".  c #231C16",
"X  c #2C1D1E",
"o  c #352313",
"O  c #392A19",
"+  c #20003B",
"@  c #2E0D38",
"#  c #382420",
"$  c #372822",
"%  c #520A08",
"&  c #41001D",
"*  c #530A15",
"=  c #610000",
"-  c #6B0507",
";  c #680B08",
":  c #740A0D",
">  c #7D0C0E",
",  c #64170D",
"<  c #751C0C",
"1  c #781F0E",
"2  c #7E0F14",
"3  c #791411",
"4  c #54371F",
"5  c #533D1D",
"6  c #6A2615",
"7  c #7A2E18",
"8  c #6D321C",
"9  c #483623",
"0  c #583325",
"q  c #5E3E22",
"w  c #733B28",
"e  c #603F32",
"r  c #5C4C27",
"t  c #5D4231",
"y  c #6C4728",
"u  c #7A442A",
"i  c #734B2A",
"p  c #725628",
"a  c #754C39",
"s  c #41673D",
"d  c #47703A",
"f  c #140247",
"g  c #000058",
"h  c #050D5B",
"j  c #130D50",
"k  c #091A5F",
"l  c #111652",
"z  c #1D2056",
"x  c #333348",
"c  c #25245A",
"v  c #071263",
"b  c #0F2A63",
"n  c #4E3A51",
"m  c #364A4E",
"M  c #174069",
"N  c #1C4D6C",
"B  c #2F5973",
"V  c #48455F",
"C  c #4D5154",
"Z  c #74544B",
"A  c #765F55",
"S  c #41647A",
"D  c #676E6A",
"F  c #830E0E",
"G  c #8B100F",
"H  c #871718",
"J  c #A01817",
"K  c #B41F1E",
"L  c #8B2F1D",
"P  c #903F1B",
"I  c #911921",
"U  c #9A1E27",
"Y  c #A31E22",
"T  c #8C2F24",
"R  c #A52128",
"E  c #A92228",
"W  c #B12429",
"Q  c #BC272A",
"!  c #A63A2D",
"~  c #A93C34",
"^  c #C92726",
"/  c #C8292B",
"(  c #D32C2C",
")  c #DE2F2D",
"_  c #83463C",
"`  c #835630",
"'  c #885234",
"]  c #8C5D34",
"[  c #945033",
"{  c #A05126",
"}  c #A75F29",
"|  c #826534",
" . c #8A6D33",
".. c #9A6638",
"X. c #917033",
"o. c #967738",
"O. c #A96F3F",
"+. c #A07E38",
"@. c #BE7F37",
"#. c #895B42",
"$. c #965544",
"%. c #A94640",
"&. c #A65749",
"*. c #B85D47",
"=. c #B25B4B",
"-. c #8E6146",
";. c #89684C",
":. c #996645",
">. c #947D47",
",. c #9E7F54",
"<. c #AF6F4B",
"1. c #B26149",
"2. c #AB6664",
"3. c #AD7C7C",
"4. c #D86B5A",
"5. c #E06A5C",
"6. c #E5716B",
"7. c #F07767",
"8. c #F07E68",
"9. c #518136",
"0. c #629B2F",
"q. c #659433",
"w. c #6FAB3A",
"e. c #A4853D",
"r. c #B0853E",
"t. c #C6893B",
"y. c #A78849",
"u. c #B58E41",
"i. c #B89542",
"p. c #B18E53",
"a. c #B28E54",
"s. c #B8A558",
"d. c #BABF77",
"f. c #C49845",
"g. c #D59E44",
"h. c #C59E53",
"j. c #CEA447",
"k. c #C7A14B",
"l. c #CCA349",
"z. c #D4A949",
"x. c #D9AD4A",
"c. c #C8A052",
"v. c #EDBE52",
"b. c #CB8860",
"n. c #D58D62",
"m. c #D89670",
"M. c #F0846A",
"N. c #F08A6B",
"B. c #F0926C",
"V. c #F09E6F",
"C. c #EA9475",
"Z. c #C6B963",
"A. c #F1A97E",
"S. c #D7CF6E",
"D. c #1B4B89",
"F. c #225F87",
"G. c #215E96",
"H. c #23618A",
"J. c #246590",
"K. c #266B9B",
"L. c #2871A2",
"P. c #458199",
"I. c #6B8091",
"U. c #629091",
"Y. c #80A088",
"T. c #B8A394",
"R. c #F1AE86",
"E. c #C7B3B5",
"W. c #CCBEB3",
"Q. c #DDD685",
"!. c #DCD4BF",
"~. c #E6E1AD",
"^. c #90B4CD",
"/. c #B3CADB",
"(. c #F5CCC8",
"). c #F5DACA",
"_. c #E2DAD6",
"`. c #EEEBD1",
"'. c #D5E1EA",
"]. c #EDE9E7",
"[. c #F3F0E1",
"{. c #F8F7F8",
/* pixels */
"v.v.v.v.v.v.v.v.v.v.v.v.v.v.v.v.v.v.v.v.v.v.v.v.v.v.v.v.1 = = = = = = = = = = = = g.v.v.v.v.v.v.v.v.v.v.v.v.v.v.v.v.v.v.v.v.v.v.",
"v.v.v.v.v.v.v.v.v.v.v.v.v.v.v.v.v.v.v.v.v.v.v.v.v.v.v.v.1 = = = = = = = = = = = = g.v.v.v.v.v.v.v.v.v.v.v.v.v.v.v.v.v.v.v.v.v.v.",
"v.v.v.v.v.v.v.v.v.v.v.v.v.v.v.v.v.v.v.v.v.v.v.v.v.v.} } H 3 2 2 F 2 T ........F 2 { } g.v.v.v.v.v.v.v.v.v.v.v.v.v.v.v.v.v.v.v.v.",
"v.v.v.v.v.v.v.v.v.v.v.v.v.v.v.v.v.v.v.v.v.v.v.v.v.v.= = I U U U U U &.S.S.S.S.U U - = @.v.v.v.v.v.v.v.v.v.v.v.v.v.v.v.v.v.v.v.v.",
"v.v.v.v.v.v.v.v.v.v.v.v.v.v.v.v.v.v.v.v.v.v.v.v.g.g.- - U E R R E E *.Q.Q.Q.Q.U U - = @.v.v.v.v.v.v.v.v.v.v.v.v.v.v.v.v.v.v.v.v.",
"v.v.v.v.v.v.v.v.v.v.v.v.v.v.v.v.v.v.v.v.v.v.v.g.= = U U ( ) ) ) ) ) 6.{.{.{.{.U U - = @.v.v.v.v.v.v.v.v.v.v.v.v.v.v.v.v.v.v.v.v.",
"v.v.v.v.v.v.v.v.v.v.v.v.v.v.v.>.>.v.v.v.v.v.v.j.= = U U ( ) ) ) ) ) 6.{.{.{.{.U R - = r.v.v.v.v.v.v.v.v.v.v.v.v.v.v.v.v.v.v.v.v.",
"v.v.v.v.v.v.v.v.v.v.v.v.v.v.v.>.>.v.v.} = = = - U U ) ) R U : = = % = = = = = ; = = = = = } v.v.v.v.v.v.v.v.v.v.v.v.v.v.v.v.v.v.",
"v.v.v.v.v.v.v.v.v.v.v.v.v.v.v.v.v.v.v.} = = = - U U ) ) R U : = = = = = = = = = = = = = = } v.v.v.v.v.v.v.v.v.v.v.v.v.v.v.v.v.v.",
"v.v.v.v.v.v.v.v.v.v.v.v.v.v.v.v.v.1 1 H I I I U ( ( ) ) > - H I I I E ^ ^ ^ ^ ^ ^ ^ ^ Y I H 1 { v.v.v.v.v.v.v.v.v.v.v.v.v.v.v.v.",
"v.v.v.v.v.v.v.v.v.v.v.v.v.v.v.v.v.= = 2 U U U R ) ) ) ) : = H U U U W ) ) ) ) ) ) ) ) W U 2 = P v.v.v.v.v.v.v.v.v.v.v.v.v.v.v.v.",
"v.v.v.v.v.v.v.v.v.v.v.v.v.v.v.v.v.= = 2 U E / / ) ) W W - = - : : : > G G G G G G G G > : - = P v.v.v.v.v.v.v.v.v.v.v.v.v.v.v.v.",
"v.v.v.v.v.v.v.v.v.v.v.v.v.v.v.v.v.= = 2 U Q ) ) ) ) U U - = = = = = = = = = = = = = % = = = = P v.v.v.v.v.v.v.v.v.v.v.v.v.v.v.v.",
"v.v.v.v.v.v.v.v.v.v.v.v.v.v.v.v.v.= = : 3 G J J J J 2 F ! ~ 2.3.3.3.2.~ %.3.3.3.3.w 6 { } } } @.v.v.v.v.v.v.v.v.v.v.v.v.v.v.v.v.",
"v.v.v.v.v.v.v.v.v.v.v.v.v.v.v.v.v.= = = = = = = = % = = 4.7.(.{.{.{.(.7.C.{.{.{.{.;.i f.v.v.v.v.v.v.v.v.v.v.v.v.v.v.v.v.v.v.v.v.",
"v.v.v.v.v.v.v.v.v.v.v.v.v.v.v.v.v.P P 7 , , % % % % U T 5.8.(.{.'./.E.M.R././.{.{.;.i f.v.v.v.v.v.v.v.v.v.v.v.v.v.v.v.v.v.v.v.v.",
"v.v.v.v.v.v.v.v.v.v.v.v.v.v.v.v.v.v.v.r.i q o o o o 7.7.7.7.(.{.^.L.I.V.m.L.L.{.{.;.i f.v.v.v.v.v.v.v.v.v.v.v.v.v.v.v.v.v.v.v.v.",
"v.v.v.v.v.v.v.v.v.v.v.v.v.v.v.v.v.v.v.r.i q o o o o 7.7.7.7.(.{.^.L.I.V.m.L.L.{.{.;.i f.v.v.v.v.v.v.v.v.v.v.v.v.v.v.v.v.v.v.v.v.",
"v.v.v.v.v.v.v.v.v.v.v.v.v.v.v.v.v.i i 1.7.=.o o o o 7.7.B.V.).{.I.  t A.b.    {.{.;.i f.v.v.v.v.v.v.v.v.v.v.v.v.v.v.v.v.v.v.v.v.",
"v.v.v.v.v.v.v.v.v.v.v.v.v.v.v.v.v.i i 1.7.=.o o o o 7.7.B.V.).{.a.  t C.b.    {.{.;.i f.v.v.v.v.v.v.v.v.v.v.v.v.v.v.v.v.v.v.v.v.",
"v.v.v.v.v.v.v.v.v.v.v.v.v.v.v.v.v.i i 1.7.=.o o o o 0 4 n.V.R.R.T.b.n.V.V.b.b.R.R.C.n.O.| u.v.v.v.v.v.>.>.v.v.v.v.v.v.v.v.v.v.v.",
"v.v.v.v.v.v.v.v.v.v.v.v.v.v.v.v.v.i i 1.7.=.o o o o o o b.V.V.V.V.V.V.V.V.V.V.V.V.V.V...i e.v.v.v.v.v.>.>.v.v.v.v.v.v.v.v.v.v.v.",
"v.v.v.v.v.v.v.v.v.v.v.v.v.v.v.v.v.f.f.<...&.=.$.o o ,.<.B.V.-.t 1.M.M.M.N.V.V.V.V.N.N.a O o.v.v.v.v.v.v.v.v.v.v.v.v.v.v.v.v.v.v.",
"v.v.v.v.v.v.v.v.v.v.v.v.v.v.v.v.v.v.v.u.u [ 7.4.o o V.V.V.V.t   #.7.7.7.M.V.V.V.V.8.7.0    .v.v.v.v.v.v.v.v.v.v.v.v.v.v.v.v.v.v.",
"v.v.v.v.v.v.v.v.v.v.v.v.v.v.v.v.v.X.X.p 0 _ 7.5.[ $.V.V.:.#.$   9 a _ _ $.M.M.N.N.$.a #   9 p y.v.v.v.v.v.v.v.v.v.v.v.v.v.v.v.v.",
"v.v.v.v.v.v.v.v.v.v.v.v.v.v.v.v.v.o o o O w 7.7.8.8.V.V.$               @ 7.7.7.7.$           r v.v.v.v.v.v.v.v.v.v.v.v.v.v.v.v.",
"v.v.v.v.v.v.v.v.v.v.v.v.v.v.v.v.v.p p 5 o 0 =.*.7.7.N.B.a t t t #       X &.&.&.&.$   O r r r X.v.v.v.v.v.v.v.v.v.v.v.v.v.v.v.v.",
"v.v.v.v.v.v.v.v.v.v.v.v.v.v.v.v.v.v.v.X.o o o 4 7.7.7.7.V.V.V.V.#.                    e.v.v.v.v.v.v.v.v.v.v.v.v.v.v.v.v.v.v.v.v.",
"v.v.v.v.v.v.v.v.v.v.v.v.v.v.v.v.v.v.v.+.5 5 5 y 5.4.7.7.B.V.V.C.$.# O O O # # . . O $ u.v.v.v.v.v.v.v.v.v.v.v.v.v.v.v.v.v.v.v.v.",
"v.v.v.v.v.v.v.v.v.v.v.v.v.v.v.v.v.v.v.v.v.v.v.x.i i 7.7.7.7.7.7.7.7.7.7.7.7.7.u i x.v.v.v.v.v.v.v.v.v.v.v.v.v.v.v.v.v.v.v.v.v.v.",
"v.v.v.v.v.v.v.v.v.v.v.v.v.>.>.v.v.v.v.v.v.v.v.x.i i 7.7.7.7.7.8.7.7.7.7.7.7.7.i i x.v.v.v.v.v.v.v.v.v.v.v.v.v.v.v.v.v.v.v.v.v.v.",
"v.v.v.v.v.v.v.v.v.v.v.v.v.>.>.v.v.v.v.v.v.t.1 < , ; 3 3 3 3 T ` ' ' ' ' _ 3 3 j j c.v.v.v.v.v.v.v.v.v.v.v.v.v.v.v.v.v.v.v.v.v.v.",
"v.v.v.v.v.v.v.v.v.v.v.v.v.v.v.v.v.v.v.v.v.@.= = = = = = = % 8 y i i i i w = = g f h.v.v.v.v.v.v.v.v.v.v.v.v.v.v.v.v.v.v.v.v.v.v.",
"v.v.v.v.v.v.v.v.v.v.v.v.v.v.v.v.v.v.v.@.P L H H K K K K 7 w a.W.W.W.W.W.T.8 8 & @ n n p.v.v.v.v.v.v.v.v.v.v.v.v.v.v.v.v.v.v.v.v.",
"v.v.v.v.v.v.v.v.v.v.v.v.v.v.v.v.v.v.v.} = > U R ) ) ) ) _ i W.{.{.{.{.{._.i i = = f g ,.v.v.v.v.v.v.v.v.v.v.v.v.v.v.v.v.v.v.v.v.",
"v.v.v.v.v.v.v.v.v.v.v.v.v.v.v.v.v.v.v.} = > Q / ) ) ! ! ,.y.!.{.{.{.{.{.].T.T.6 6 f g ,.v.v.v.v.v.v.v.v.v.v.v.v.v.v.v.v.v.v.v.v.",
"v.v.v.v.v.v.v.v.v.v.v.v.v.v.v.v.v.v.v.} = G ) ) ) ) i i Z.S.`.{.{.{.{.{.{.{.{.i i j g ,.v.v.v.v.v.v.v.v.v.v.v.v.v.v.v.v.v.v.v.v.",
"v.v.v.v.v.v.v.v.v.v.v.v.v.v.v.v.v.v.v.} = F / / ) ) i i Z.S.~.`.[.{.{.{.{.{.{.i i @ + Z y.k.v.v.v.v.v.v.v.v.v.v.v.v.v.v.v.v.v.v.",
"v.v.v.v.v.v.v.v.v.v.v.v.v.v.v.v.v.v.v.} = : U R ) ) i i Z.S.S.S.~.{.{.{.{.{.{.i i ; = + g A v.x.x.v.v.v.v.v.v.v.v.v.v.v.v.v.v.v.",
"v.v.v.v.v.v.v.v.v.v.v.v.v.v.v.v.v.v.v.} = : U Y ( ( u ' s.Z.S.S.~.[.[.[.[._._.e e * * f g A v.x.x.v.v.v.v.v.v.v.v.v.v.v.v.v.v.v.",
"v.v.v.v.v.v.v.v.v.v.v.v.v.v.v.v.v.v.v.} = : U U U U U U u i s.S.S.S.S.S.Z.i i g g g g g g A v.v.v.v.v.v.v.v.v.v.v.v.v.v.v.v.v.v.",
"v.v.v.v.v.v.v.v.v.v.v.v.v.v.v.v.v.v.v.} = : U U U U U U u i s.S.S.S.S.S.Z.i i g g g g g g A v.v.v.v.v.v.v.v.v.v.v.v.v.v.v.v.v.v.",
"v.v.v.v.v.v.v.v.v.v.v.v.v.v.v.v.v.v.v.A g + = = = = = - = = 8 i i i i i ] S.S.L.L.d.S.V g A v.0.0.v.v.v.v.v.v.v.v.v.v.v.v.v.v.v.",
"v.v.v.v.v.v.v.v.v.v.v.v.v.v.v.v.v.v.v.A g + = = = = = % = = 8 i i i i i | S.S.L.L.d.S.V g A v.0.0.v.v.v.v.v.v.v.v.v.v.v.v.v.v.v.",
"v.v.v.v.v.v.v.v.v.v.v.v.v.v.v.v.v.v.v.A g l x x x x x x x x m m B S D s.Z.S.S.L.L.d.S.V g A v.0.0.v.v.v.v.v.v.v.v.>.>.v.v.v.v.v.",
"v.v.v.v.v.v.v.v.v.v.v.v.v.v.v.v.v.v.v.A g k N N N N N N N N N N F.L.U.S.S.S.S.L.L.d.S.V g A v.0.0.v.v.v.v.v.v.v.v.>.>.v.v.v.v.v.",
"v.v.v.v.v.v.v.v.v.v.v.v.v.v.v.v.v.v.v.a.A C b b N N N N N N B H.J.L.P.Y.U.d.U.L.L.D D C m u.v.0.0.v.v.v.v.v.v.v.v.v.v.v.v.v.v.v.",
"v.v.v.v.v.v.v.v.v.v.v.v.v.v.v.v.v.v.v.v.v.,.g h N N N N N N J.L.L.L.L.L.L.L.L.L.L.v g s 0.v.v.0.0.v.v.v.v.v.v.v.v.v.v.v.v.v.v.v.",
"v.v.v.v.v.v.v.v.v.v.v.v.v.v.v.v.v.v.v.v.v.,.g h N N N N N N J.L.L.L.L.L.L.D.D.J.J.v g s 0.v.v.0.0.v.v.v.v.v.v.v.v.v.v.v.v.v.v.v.",
"v.v.v.v.v.v.v.v.v.v.v.v.v.v.v.v.v.v.v.v.v.,.g h N N N N N N J.L.L.L.L.L.G.g g N N h g s 0.v.v.0.0.v.v.v.v.v.v.v.v.v.v.v.v.v.v.v.",
"v.v.v.v.v.v.v.v.v.v.v.v.v.v.v.v.v.v.v.v.v.p.c c N b N N N N H.K.K.L.L.G.D.h h M M z l d 0.w.w.0.0.v.v.0.0.v.v.v.v.v.v.v.v.v.v.v.",
"v.v.v.v.v.v.v.v.v.v.v.v.v.v.v.v.v.v.v.v.v.v.v.h.g g N N N N N N F.L.D.g h N N g g 9.0.0.0.w.w.0.0.v.v.0.0.v.v.v.v.v.v.v.v.v.v.v.",
"v.v.v.v.v.v.v.v.v.v.v.v.v.v.v.v.v.v.v.v.v.v.v.h.g g N N N N N N F.L.D.g h N N g g 9.0.w.w.w.w.w.w.v.v.0.0.0.0.k.k.v.v.v.v.v.v.v.",
"v.v.v.v.v.v.v.v.v.v.v.v.v.v.v.v.v.v.v.v.v.v.v.h.g g g g g g g g g g g g g g g g g 9.0.w.w.w.w.w.w.v.v.0.0.0.0.k.k.v.v.v.v.v.v.v.",
"v.v.v.v.v.v.v.v.v.v.v.v.v.v.v.v.v.v.v.v.v.v.v.h.g g g g g g g g g g g g g g g g g y.k.w.w.k.k.w.w.k.k.k.k.k.k.v.v.v.v.v.v.v.v.v.",
"v.v.v.v.v.v.v.v.v.v.v.v.v.v.v.v.v.v.v.v.v.v.v.j.X X t t t e #.#.#.#.a X # t t X X r.k.w.w.k.k.w.w.l.k.k.k.k.k.v.v.v.v.v.v.v.v.v.",
"v.v.v.v.v.v.v.v.v.v.v.v.v.v.v.v.v.v.v.v.v.v.v.j.o o i i i i ..O.<.O.` o O i i o o j.v.w.w.v.v.k.k.v.v.w.w.v.v.v.v.v.v.v.v.v.v.v.",
"v.v.v.v.v.v.v.v.v.v.v.v.v.v.v.v.v.v.v.v.v.v.v.j.o o i i i i ' ] ..O...y y 4 4 4 5  .X.q.w.v.v.k.k.v.v.w.w.v.v.v.v.v.v.v.v.v.v.v.",
"v.v.v.v.v.v.v.v.v.v.v.v.v.v.v.v.v.v.v.v.v.v.v.j.o o i i i i i i ] O.O.O...o o i i O o o.f.v.v.v.v.v.v.i.i.v.v.v.v.v.v.v.v.v.v.v.",
"v.v.v.v.v.v.v.v.v.v.v.v.v.v.v.v.v.v.v.v.v.v.v.j.o o q q q q q q i ` ` ` i o o 5 q O o e.l.v.v.v.v.v.v.i.i.v.v.v.v.v.v.v.v.v.v.v.",
"v.v.v.v.v.v.v.v.v.v.v.v.v.v.v.v.v.v.v.v.v.v.v.j.o o o o o o o o o o o o o o o o o o o r.v.v.v.v.v.v.v.v.v.v.v.v.v.v.v.v.v.v.v.v.",
"v.v.v.v.v.v.v.v.v.v.v.v.v.v.v.v.v.v.v.v.v.v.v.z.5 5 5 5 5 5 5 5 5 5 5 5 5 5 5 5 5 5 5 r.v.v.v.v.v.v.v.v.v.v.v.v.v.v.v.v.v.v.v.v.",
"v.v.v.v.v.v.v.v.v.v.v.v.v.v.v.v.v.v.v.v.v.v.v.v.v.v.v.v.v.v.v.v.v.v.v.v.v.v.v.v.v.>.>.v.v.v.v.v.v.v.v.v.v.v.v.v.v.v.v.v.v.v.v.v.",
"v.v.v.v.v.v.v.v.v.v.v.v.v.v.v.v.v.v.v.v.v.v.v.v.v.v.v.v.v.v.v.v.v.v.v.v.v.v.v.v.v.>.>.v.v.v.v.v.v.v.v.v.v.v.v.v.v.v.v.v.v.v.v.v."
};
