/* XPM */
static char *_d19e21b2fc248c98a2cf12c9be32738q98HauVkN4ac2vvU[] = {
/* columns rows colors chars-per-pixel */
"64 64 210 2 ",
"   c #2A1D0D",
".  c #2D1F10",
"X  c #2E210F",
"o  c #30220F",
"O  c #2F2112",
"+  c #332515",
"@  c #392916",
"#  c #372819",
"$  c #3B2C1C",
"%  c #3B341B",
"&  c #3F2F21",
"*  c #3C3121",
"=  c #492E1A",
"-  c #572B10",
";  c #5B2D12",
":  c #44331C",
">  c #49361C",
",  c #5D3114",
"<  c #543E1C",
"1  c #653719",
"2  c #6D3B1D",
"3  c #723B1E",
"4  c #403022",
"5  c #493626",
"6  c #4E3923",
"7  c #4E3B2A",
"8  c #543C28",
"9  c #773D22",
"0  c #3D4422",
"q  c #55401C",
"w  c #6E411A",
"e  c #774A1E",
"r  c #4A432B",
"t  c #594429",
"y  c #4C5626",
"u  c #53572C",
"i  c #564733",
"p  c #654928",
"a  c #7B4625",
"s  c #6C5326",
"d  c #6C532D",
"f  c #765928",
"g  c #795D2E",
"h  c #614933",
"j  c #744530",
"k  c #6E5532",
"l  c #6C5139",
"z  c #775A35",
"x  c #73563B",
"c  c #7D5D3F",
"v  c #516528",
"b  c #78692F",
"n  c #7D6233",
"m  c #4D5942",
"M  c #6F5B41",
"N  c #7C5D42",
"B  c #486B4F",
"V  c #766448",
"C  c #88492B",
"Z  c #875727",
"A  c #90552D",
"S  c #924D32",
"D  c #865733",
"F  c #995436",
"G  c #A3553A",
"H  c #AA5A3E",
"J  c #87692E",
"K  c #96682C",
"L  c #9E702F",
"P  c #856837",
"I  c #8B6E33",
"U  c #997736",
"Y  c #9D7C36",
"T  c #917339",
"R  c #AB6E39",
"E  c #A37834",
"W  c #AD5B40",
"Q  c #826245",
"!  c #886746",
"~  c #8C6A4A",
"^  c #936E4D",
"/  c #8F7B4A",
"(  c #947D47",
")  c #97744B",
"_  c #8B7556",
"`  c #9C7552",
"'  c #977A57",
"]  c #9D7854",
"[  c #B26342",
"{  c #B86C43",
"}  c #BD7344",
"|  c #BF7845",
" . c #A37C54",
".. c #AA7B50",
"X. c #A47E59",
"o. c #C27D45",
"O. c #5F8631",
"+. c #629B2F",
"@. c #6A9736",
"#. c #79923F",
"$. c #6BA338",
"%. c #6FAB3A",
"&. c #579472",
"*. c #778B68",
"=. c #77A57E",
"-. c #9C803D",
";. c #A7843D",
":. c #B5883A",
">. c #B7913F",
",. c #C2943F",
"<. c #8E8458",
"1. c #AB8842",
"2. c #B28D42",
"3. c #B68E4D",
"4. c #B79147",
"5. c #BA9644",
"6. c #AB8453",
"7. c #AD845D",
"8. c #B88E52",
"9. c #B58958",
"0. c #BD9352",
"q. c #BC915B",
"w. c #909269",
"e. c #AA8A64",
"r. c #B58C63",
"t. c #BB8E63",
"y. c #BA9469",
"u. c #BE9E71",
"i. c #B7A077",
"p. c #C98648",
"a. c #CC8B49",
"s. c #C39B44",
"d. c #CA9947",
"f. c #D2954B",
"g. c #D99F4C",
"h. c #C5865E",
"j. c #C19752",
"k. c #C69B52",
"l. c #C89C57",
"z. c #C7A14B",
"x. c #CCA348",
"c. c #D3A447",
"v. c #D4A74B",
"b. c #DCA44D",
"n. c #D5AA4A",
"m. c #DCAC4C",
"M. c #DDB14D",
"N. c #CCA152",
"B. c #D1A552",
"V. c #D5A952",
"C. c #DBAD56",
"Z. c #DEB054",
"A. c #E2AD4F",
"S. c #E3B54E",
"D. c #E4B552",
"F. c #E8B651",
"G. c #E7B951",
"H. c #EDBE52",
"J. c #EEBE5B",
"K. c #C59663",
"L. c #C29669",
"P. c #C59A6C",
"I. c #CB9D6E",
"U. c #DB9D6E",
"Y. c #C29D71",
"T. c #CEA16D",
"R. c #D3A66A",
"E. c #CDA172",
"W. c #C7A77A",
"Q. c #D2A472",
"!. c #D9A676",
"~. c #DBAB76",
"^. c #DCAD79",
"/. c #EEBF63",
"(. c #E9B96B",
"). c #F0BF65",
"_. c #F1BF6C",
"`. c #EAB873",
"'. c #E3B27C",
"]. c #F1BF7A",
"[. c #EEC15C",
"{. c #EFC566",
"}. c #F0C86F",
"|. c #F2C075",
" X c #F1CA77",
".X c #F3C17B",
"XX c #6AB78F",
"oX c #6FC59A",
"OX c #78D4A5",
"+X c #75F4C1",
"@X c #87B98E",
"#X c #CDAF81",
"$X c #D6B787",
"%X c #E4BC87",
"&X c #EEBB83",
"*X c #F2BE85",
"=X c #DCC18F",
"-X c #D9C291",
";X c #EBC48D",
":X c #F5C185",
">X c #F2CE84",
",X c #F5C48A",
"<X c #F4CA8E",
"1X c #F3D38B",
"2X c #E9C994",
"3X c #F4CB92",
"4X c #EDD39E",
"5X c #F4D497",
"6X c #F5D49D",
"7X c #F5DCA5",
/* pixels */
"H.H.H.H.H.H.H.H.H.H.H.H.H.H.H.H.H.H.H.H.H.H.H.H.H.H.H.H.H.H.H.H.H.v. .W.7X7X4Xe.] ` 0.H.H.H.H.H.H.H.H.Y : ;.[.H.H.H.H.H.H.H.H.H.",
"H.H.H.H.H.H.H.H.H.H.H.H.H.H.H.H.H.H.H.H.H.x.5.M.H.H.H.H.H.H.H.[.{.(.E.W.$X$X#Xe.X.y.R.(.J.H.H.H.H.n.4.g @ ;.[.H.H.H.H.H.H.H.H.H.",
"H.H.H.H.H.H.[.H.H.H.H.H.H.H.H.H.H.H.H.H.F.T d 5.H.H.H.H.H.H.[.[.1X4X4X#X7.X.7.' r.=X3X*X{.H.H.H.H.>.h % o ;.H.H.H.H.H.H.H.H.H.H.",
"H.H.H.H.H.H.H.H.H.H.H.H.H.H.H.H.H.H.H.H.F.J : n 2.S.H.H.H.H.H.[.>X3X5X$XW.e.X.y.$X2X%XI.C.H.H.Z.:.g : t J ,.H.H.H.H.H.H.H.H.H.H.",
"H.H.H.H.H.H.H.H.H.H.H.H.H.H.H.H.H.H.H.H.G.b o $ d x.G.[.G.[.H.H.].:X:X5X4XY.e.$X6X*XI.] d.G.F.s.p $ o J [.[.H.H.H.H.H.H.H.H.H.H.",
"H.H.H.H.H.H.H.H.H.H.H.H.H.H.H.H.H.H.H.H.H.,.I q > n >.G.H.[.[.S.K.T.*X,X3X$XQ.E.Y.L.r.] k.S.:.Z < p U ,.H.[.H.H.H.H.H.H.H.H.H.H.",
"H.H.H.H.H.H.H.H.H.H.H.H.[.{.[.[.[.J.J.J.H.H.n.f > $ g n.M.[.H.M.q.t.!.!.!.!.T. .) X.X.] 0.s.Z - ; K m.H.H.H.H.H.H.H.H.H.H.H.H.H.",
"H.H.H.H.H.H.H.H.H.H.[.[.}.1X1X>X.X|.]..X.X[.S.d.T : > d :.[.H.G.(.h.D D D D Z j ! W.W.] P d 1 - - Z m.H.H.H.H.H.H.H.H.H.H.H.H.H.",
"H.H.H.H.H.H.H.H.H.H.[.}.>X6X2X$X^.^.^.^.^.(.).).z.f q $ P 5.m.J..XK.a 2 2 2 8 ; Q $X$X] l : = - - Z ,.m.H.H.H.H.H.H.H.H.H.H.H.H.",
"H.H.H.H.H.H.H.H.H.H.}.5X1X:XP.e.7.X.X.7.7.Q.].*X`.n.I + : k 5./..XU.W F G G S 8 N =X$X] l $ = - - ; 2 E H.H.H.H.H.H.H.H.H.H.H.H.",
" X{.H.H.H.H.H.H.[.}. X5X%XE.l.q.8.j.8.j.j.K.Q.T.~.(.0.Q l x j._.*XU.[ W W S 9 5 V -X#X] h = f Z , , 9 H f.A.H.H.H.H.H.H.H.H.H.H.",
"7X1X[.H.H.H.H.H.[.5X6X,XP. .B.G.H.H.F.H.F.j. .` r.'.:X&XL. .!.,X*X!.[ W W j 5 $ V -X$X] p @ ;.d.C 3 H H W g.H.H.H.H.H.H.H.H.H.H.",
"3X:X[.H.H.H.J.)..X3X%XP.l.l.S.H.H.H.H.H.H.V.l.l.R.;X<X:X'.P.P.Q.;XI.D 9 M 7 5 M _ %X%X#XX.X.B.m.:.R R H W g.H.H.H.H.H.H.H.H.H.H.",
"*X_.J.H.H.H.J..X*X&XT. .l.H.H.H.H.H.H.H.H.J.F.F.{.1X2X,X,X&XL.r.2Xi.i 7 5 5 8 ~ X.$X*X6X6X*X_.H.H.,.} [ W a.F.F.H.H.H.H.H.H.H.H.",
"t.T._.].|.|.|.:X'.P.l.B.D.H.H.H.H.H.H.H.H.H.A.f.o.h.^.6X3X*X^.Q.u.y.r.` Q Q ~ h.#XU.L.#X$X*X_.H.F.F.g.o.W } ,.A.H.H.H.H.H.H.H.H.",
"6.t.~.'.^.'.'.'.Q.9.k.G.H.H.H.H.H.H.H.H.H.H.A.o.[ [ ..#X%X<X,X'.y.L.^.I.X.X.X.&XU.X.X.X.h.U.f.v.F.H.H.,.H H { ,.M.H.H.H.H.H.H.H.",
"M.N.9.e.7.7.9.e.q.V.D.H.H.H.H.H.H.H.H.H.H.H.A.o.H H F D y.6X<X*X'.Q.r.P.'.'.~.y.Y.$X%X^.6.e e K b.F.H.,.W W W { p.F.H.H.H.H.H.H.",
"H.Z.0.8.8.8.8.8.k.G.H.H.H.H.H.H.H.H.H.H.H.b.f.{ G S 9 ; ! u.y.Y.&X$Xu.Y.Q.!.Q.L.I.3X$XL.D - - w R ,.,.} W W W W } A.H.H.H.H.H.H.",
"H.H.D.D.G.D.F.D.G.H.H.H.H.H.H.H.H.H.H.H.H.a.[ W S 2 ; - 1 1 8 N $X7X4X#X . .e.!.*X,Xq.2 , - - - , 1 , C W W W W } A.H.H.H.H.H.H.",
"H.H.H.H.H.H.H.H.H.H.H.H.H.H.H.H.H.H.H.A.a.{ G S A K Z ; - = 4 i _ e.e._ x x N ^ X.] n = - - - - ; ; ; 9 W W W W | A.H.H.H.H.H.H.",
"H.H.H.H.H.H.H.H.H.H.H.( U H.H.H.H.H.F.a.W H F 3 Z c.:., = 4 4 & * & & & & 4 4 4 & 4 & 4 - ; ; - ; ; - 9 H H H W | A.H.H.H.H.H.H.",
"H.H.H.H.H.H.H.H.H.H.H.( ( H.H.H.H.A.a.o.H S C L 5.D.;.= 4 4 4 4 * & 4 & 4 4 4 4 & 4 4 4 f :.:.L 1 - - C W H [ p.b.H.H.H.H.H.H.H.",
"H.H.H.H.H.H.H.H.H.H.H.H.H.H.H.F.A.f.H H F C Z ,.H.H.E 4 4 4 4 4 4 4 4 4 4 4 4 4 & * 5 t ;.[.H.c.Z w w K { { | b.H.H.H.H.H.H.H.H.",
"H.H.H.H.H.H.H.H.H.H.H.H.H.H.F.A.p.R H S 3 L d.S.H.H.;.+ & 4 4 & 4 & 4 4 4 & 4 & $ + d 5.c.H.H.S.c.,.,.,.b.b.b.F.H.H.H.H.H.H.H.H.",
"H.H.H.H.H.H.H.H.H.H.H.H.H.H.H.A.o.W W S Z ,.H.H.H.H.E o + * & & 4 4 & & & & * # > q -.G.[.H.H.H.H.H.H.H.H.H.H.H.H.H.H.H.H.H.H.H.",
"H.H.H.H.H.H.H.H.H.H.H.H.H.H.H.A.o.H H o.g.F.H.H.H.H.E o . O # & 4 & & & & * .   q >.M.[.H.H.H.H.H.H.H.H.H.H.H.H.H.H.H.H.H.H.H.H.",
"H.H.H.H.H.H.H.H.H.H.H.H.H.H.H.g.o.W W o.H.H.H.H.H.H.E o     + # * * + # # .     q n.H.H.H.H.H.H.H.H.H.H.H.H.H.H.H.H.H.H.H.H.H.H.",
"H.H.H.H.H.H.H.H.H.H.[.H.H.H.H.A.o.W W a.H.H.H.H.H.[.Y o         . .             p x.H.H.H.H.H.H.H.H.H.H.H.H.H.H.H.H.H.H.H.H.H.H.",
"[.H.H.H.H.H.H.H.H.H.H.H.H.H.H.A.[ W H a.H.H.H.H.H.H.-.X                   5 h j I m.H.H.H.H.H.H.H.H.H.H.H.H.H.H.H.H.H.H.H.H.H.H.",
"H.H.H.H.H.H.H.H.H.H.H.H.H.H.H.A.[ H H p.F.H.H.H.H.S.-.% % X + +       . # M ' ' 6.v.D.H.H.H.H.H.H.H.H.H.H.H.H.H.H.H.H.H.H.H.H.H.",
"H.H.H.H.H.H.H.H.H.H.H.H.H.H.H.c.S C H R o.b.H.H.M.j.w.=.&.z z h @     6 M w.@Xw.^ P ;.H.H.H.H.H.H.( E H.H.H.H.H.H.H.H.H.H.H.H.H.",
"H.H.H.H.H.H.H.H.H.H.H.H.H.H.H.c.K C H H [ f.H.H.v.) *.oX*.] <.<.m r 4 l ] XXXX<.x 7 g d.A.H.H.H.H.( ( H.H.H.H.H.H.H.H.H.H.H.H.H.",
"H.H.H.H.H.H.H.H.H.H.H.H.H.H.H.S.g.,.H H H f.H.H.s.l i m V e.@XOXoX=.V ^ ] V m i 7 4 8 h :.H.H.H.H.H.H.H.H.H.H.H.H.H.H.H.H.H.H.H.",
"H.H.H.H.H.H.H.H.H.H.H.H.H.H.H.H.H.f.F S A a.G.V.1.i * 4 i V XX+X+XoX' ~ N i 4 8 h h h h 1.H.H.H.H.H.H.H.H.H.H.H.H.H.H.H.H.H.H.H.",
"H.H.H.H.H.H.H.H.H.H.H.H.H.H.H.H.H.:.2 , 1 :.D.8.! 7 & 4 4 i XX+X+XoX<.N 7 4 7 N ^ ^ ^ ^ j.H.H.H.H.H.H.H.H.H.H.H.H.H.H.H.H.H.H.H.",
"H.H.H.H.H.H.H.H.H.H.H.H.H.H.H.H.H.c.E L L 2.0.6.Q 7 & & * * B &.&.*.N l l ! ] r.I.K.I.I.C.H.H.H.H.H.H.H.H.H.H.H.H.H.H.H.H.H.H.H.",
"H.H.H.H.H.H.H.H.H.H.H.H.H.H.H.H.H.H.H.H.G.0.` ` Q 7 & & O .   O & 5 4 l ] T.*X,X:X,X*X,X_.H.H.H.H.H.H.H.H.H.H.H.H.H.H.H.H.H.H.H.",
"H.H.H.H.H.H.H.H.H.H.H.H.H.H.H.H.H.H.H.H.H.0.` ` Q 7 4 4 #     . $ 8 x  .Q.%X,X3X6X6X<X,X]._.J.H.H.H.H.H.H.H.H.H.H.H.H.H.H.H.H.H.",
"H.H.H.H.H.H.H.H.H.H.H.H.H.H.[.m.m.H.H.F.C.8.` ] Q 7 4 & +     O $ i ^ P.*X*X3X7X7X7X6X,X,X*X_.J.J.H.H.H.H.H.H.H.H.[.H.H.H.H.H.H.",
"H.H.H.H.H.H.H.H.H.H.H.H.H.[.G.m.m.H.H.v.9. .` ] Q 7 4 4 #     O $ h ^ I.,X3X6X7X7X7X7X6X<X:X].].J.H.H.H.H.H.H.H.H.H.H.H.H.H.H.H.",
"H.H.H.H.H.H.H.H.H.H.H.H.H.H.H.H.[.S.m.0.` ` ` ` Q 7 & 4 #     O $ h ^ L.*X3X7X7X7X7X7X7X6X,X,X].[.H.H.H.H.H.H.H.H.H.H.H.H.H.H.H.",
"H.H.H.H.H.H.H.H.H.H.H.H.H.H.H.H.H.n.6...` ` ` ` Q 7 4 4 +     O $ h ^ P.*X*X,X7X7X7X7X7X7X6X<X].J.H.H.H.H.H.H.H.H.H.H.H.H.H.H.H.",
"H.H.H.H.H.H.H.H.H.H.H.H.H.H.H.+.+.B. .` ` ` ` ` Q 7 * # O     O $ h ^ r.Q.%X*X6X7X7X7X7X7X7X3X*X_.J.H.H.H.H.H.H.H.H.H.H.H.H.H.H.",
"H.H.H.H.H.H.H.H.H.H.[.H.H.H.H.+.+.v. .` ` ` ` ` Q 7 #         O $ h ^ ` X.!.,X6X7X7X7X7X7X7X3X*X:X|.H.H.H.H.H.H.H.H.H.H.H.H.H.H.",
"H.H.H.H.H.-.-.[.H.H.H.H.H.H.H.@.#.9.` ` ` ` ` ` Q 7 #         O $ h ^ `  .E.*X3X6X7X7X7X7X7X6X3X,X.XJ.H.H.H.H.H.H.H.H.H.H.H.H.H.",
"H.H.H.H.H.-.-.G.H.H.H.H.H.H.H.@./ ` ` ` ` ` ` ` Q 7 # O       O $ h ^ ` ` I.&X*X*X7X7X7X7X7X7X6X<X_.J.H.H.H.H.H.H.[.H.H.H.H.H.H.",
"H.H.H.H.H.H.[.G.H.H.H.H.H.H.[.+./ ` ` ` ` ` ` ` Q 7 +         O $ 8 ^ ` ` X.I.%X,X,X6X7X7X7X7X6X<X|.H.H.H.H.H.H.H.H.H.H.H.H.H.H.",
"H.H.H.H.H.[.G.[.H.H.H.H.H.G.n.b / ` ` ` ` ` ) ` Q 5 #         O $ h ^  .` ` X.U.&X*X3X7X6X7X6X6X<X`.Z.F.H.H.H.H.H.H.H.H.H.H.H.H.",
"H.H.H.H.H.H.H.H.H.H.H.H.H.S.U y ~ ` ` ` ` ` ` ` N 7 $         O # h ^ ` ` `  .X.L.&X,X<X<X<X<X,X*X~.9.N.H.H.H.H.H.H.H.H.H.H.H.H.",
"H.H.H.H.H.H.H.H.H.H.H.H.H.M.n q ! ` ` ` ` ` ` ` Q 7 #         X $ h ^ ` ` ` ` ` X.T.'.*X*X:X:X&X'.L. .j.H.H.H.H.H.H.H.H.H.H.H.H.",
"H.H.H.H.H.H.H.H.H.H.H.+.+.M.n 8 ~ ` ` ` ` ` ` ` Q 7 #         O $ h ^ ` ` ` ` `  . .P.*X*X,X:X'.r. . .j.H.H.H.H.H.H.H.H.H.H.H.H.",
"H.H.H.H.H.H.H.H.H.H.H.+.+.M.n 7 h N ` ` ` ` ` ` Q 7 # .       X $ k 3.j.j.j.0. .` ` 7.I.I.I.I.L. .` ` j.H.H.H.H.H.H.H.H.H.H.H.H.",
"H.H.H.H.H.H.S.x.z.+.+.+.+.M.n $ 4 h ^ ` ` ] ) ( Q 7 #     X X X $ y $.z.z.[.S.8. . .` ` ` ` ` ` ` ` ` j.H.H.H.H.H.H.H.H.H.H.H.H.",
"H.H.H.H.H.H.[.x.z.+.+.$.+.M.n 4 4 7 h N ` ] ( <.b 7 # X 0 v % X $ u @.z.d.H.G.V.l.N.8.` ` ` ` ` ` ` ` j.H.H.H.H.H.H.H.H.H.H.H.H.",
"H.H.H.H.H.H.H.H.G.z.z.z.z.5.k 4 4 4 4 h ~ ^ ^ #.@.y 0 : J $.y : 4 d 5.[.H.H.H.H.H.H.f.] ` ` ` ` `  ...k.H.H.H.H.H.H.H.H.H.H.H.H.",
"H.H.H.H.H.H.H.H.[.z.z.z.z.5.k 4 4 4 4 7 8 t k @.$.O.O.( >.%.+.b t k 5.H.H.H.H.H.H.H.k. .` ` ` ` ` ..B.D.H.H.H.H.H.H.H.H.H.H.[.H.",
"H.H.H.H.H.H.H.H.[.H.[.%.%.m.f % : * 4 7 y k J 1.x.%.$.H.[.x.x.c.I Y S.H.H.H.H.H.H.H.V.9.) c c c n E S.H.H.H.H.H.H.H.H.H.H.H.H.H.",
"H.H.H.H.H.H.H.H.H.H.[.%.%.m.s o % % 4 v @.n.n.s.s.%.%.H.[.s.x.S.n.M.G.H.H.H.H.H.H.H.G.D.I @ @ @ $ f S.H.H.H.H.H.H.H.H.H.H.H.H.H.",
"H.H.H.H.H.H.H.H.H.H.H.>.-.K q X o q b -.z.G.[.H.[.x.x.[.H.H.H.H.[.[.H.H.[.H.H.H.H.H.H.H.J     @ s E S.H.H.H.H.H.H.H.H.H.H.H.H.H.",
"H.H.H.H.H.H.H.H.H.H.H.>.s X X X X s n.s.z.[.H.H.[.s.s.H.H.H.H.H.[.G.H.[.H.H.H.H.H.H.H.H.J     < 5.H.H.H.H.H.H.H.H.H.H.H.H.H.H.H.",
"H.H.H.H.H.H.H.H.[.[.,.J q     @ b :.S.H.H.H.[.S.H.H.H.H.H.H.H.H.H.H.H.H.H.H.H.H.H.H.H.H.I # + 6 n 2.D.[.H.H.H.H.H.H.H.H.H.H.H.H.",
"H.H.H.H.H.H.H.H.S.M.U X X X X q ,.H.H.H.H.H.S.[.H.H.H.H.H.H.H.H.H.H.H.H.H.H.H.H.H.H.H.H.T 4 4 & & z x.S.H.H.H.H.H.H.H.H.H.H.H.[.",
"H.H.H.H.H.H.H.H.s.J > X       q s.[.H.S.H.-.-.[.H.H.H.H.H.H.H.H.H.H.H.H.H.H.H.H.H.H.H.H.T & 4 4 & t g >.H.H.H.H.H.H.H.H.H.H.H.H.",
"H.H.H.H.H.H.H.H.>.-           q ,.H.H.[.[.-.-.H.H.H.H.H.H.H.H.H.H.H.H.H.H.H.H.H.H.H.H.H.T 4 4 4 * * * T H.H.H.H.H.H.H.H.H.H.H.H."
};
