/* XPM */
static char *_e7447a430014e17c63c69de9806ac341h7a96vmTwIJK0lW[] = {
/* columns rows colors chars-per-pixel */
"64 64 203 2 ",
"   c #131312",
".  c #281D19",
"X  c #352313",
"o  c #392A19",
"O  c #3E3919",
"+  c #1B1236",
"@  c #20003B",
"#  c #2F1033",
"$  c #382420",
"%  c #312A22",
"&  c #382A22",
"*  c #2D3131",
"=  c #3B3731",
"-  c #520C06",
";  c #610000",
":  c #6B0507",
">  c #680B08",
",  c #740A0C",
"<  c #7C0C0E",
"1  c #67190E",
"2  c #71190C",
"3  c #781F0E",
"4  c #7E0F14",
"5  c #791411",
"6  c #4A311B",
"7  c #54371F",
"8  c #533D1D",
"9  c #6E2C18",
"0  c #4A0E33",
"q  c #671437",
"w  c #4B3527",
"e  c #543121",
"r  c #5D3D22",
"t  c #593628",
"y  c #4D3239",
"u  c #743B2C",
"i  c #652639",
"p  c #603F32",
"a  c #5A4D26",
"s  c #525123",
"d  c #5D4231",
"f  c #6A4927",
"g  c #78472B",
"h  c #734B2A",
"j  c #725728",
"k  c #7C512E",
"l  c #734E32",
"z  c #7F6537",
"x  c #0E0648",
"c  c #000058",
"v  c #050D5B",
"b  c #1A0550",
"n  c #150E51",
"m  c #0F1E57",
"M  c #091A5F",
"N  c #311348",
"B  c #28145B",
"V  c #1D304E",
"C  c #3A2641",
"Z  c #2F3A4C",
"A  c #0E2762",
"S  c #143666",
"D  c #4F3F56",
"F  c #533850",
"G  c #643F43",
"H  c #2B4954",
"J  c #1A4266",
"K  c #1C4D6C",
"L  c #1E5274",
"P  c #2B4C65",
"I  c #20597E",
"U  c #4F4B4C",
"Y  c #47455E",
"T  c #635051",
"R  c #765F55",
"E  c #4A7244",
"W  c #4E5D65",
"Q  c #746F6E",
"!  c #8B100F",
"~  c #881817",
"^  c #87141A",
"/  c #911212",
"(  c #A01817",
")  c #A51C1D",
"_  c #B41F1E",
"`  c #8A341C",
"'  c #903F1B",
"]  c #A42B1D",
"[  c #80192F",
"{  c #911921",
"}  c #9A1E27",
"|  c #A41E23",
" . c #912822",
".. c #873529",
"X. c #A52128",
"o. c #B12429",
"O. c #BD2629",
"+. c #BB382C",
"@. c #A73A31",
"#. c #C92726",
"$. c #C9292B",
"%. c #D42C2C",
"&. c #DE2F2D",
"*. c #C8332D",
"=. c #984D2D",
"-. c #83473B",
";. c #835630",
":. c #875E31",
">. c #8B5835",
",. c #A05126",
"<. c #A75F29",
"1. c #AD513A",
"2. c #86662F",
"3. c #826534",
"4. c #996537",
"5. c #8C7236",
"6. c #917032",
"7. c #9C7137",
"8. c #997837",
"9. c #AF6A2E",
"0. c #A96F3F",
"q. c #B36F30",
"w. c #A07E38",
"e. c #BE7F37",
"r. c #825941",
"t. c #945545",
"y. c #A55749",
"u. c #B45C4A",
"i. c #886144",
"p. c #89684C",
"a. c #966342",
"s. c #947741",
"d. c #947D47",
"f. c #937C4A",
"g. c #9E7F54",
"h. c #A56647",
"j. c #AE704D",
"k. c #AB6664",
"l. c #AD7C7C",
"z. c #D56A59",
"x. c #E06A5C",
"c. c #F07767",
"v. c #F07D68",
"b. c #E77271",
"n. c #5B8A31",
"m. c #629B2F",
"M. c #669634",
"N. c #6EA93A",
"B. c #7A8E6D",
"V. c #6C8976",
"C. c #A4853D",
"Z. c #B0873D",
"A. c #C4853A",
"S. c #A58C4C",
"D. c #B08D4B",
"F. c #BA9542",
"G. c #B7944C",
"H. c #B6A357",
"J. c #97876B",
"K. c #B29771",
"L. c #B3AD6A",
"P. c #BABF77",
"I. c #C49845",
"U. c #CB9E47",
"Y. c #D59E44",
"T. c #C68358",
"R. c #C59E53",
"E. c #CEA447",
"W. c #C7A14B",
"Q. c #D4A949",
"!. c #D9AD49",
"~. c #C5A959",
"^. c #E3B14C",
"/. c #EDBE52",
"(. c #CB8860",
"). c #D58D62",
"_. c #D89670",
"`. c #F0846A",
"'. c #F08A6B",
"]. c #F0926C",
"[. c #F09E6F",
"{. c #EA9475",
"}. c #D7CF6E",
"|. c #225F87",
" X c #246691",
".X c #266B9A",
"XX c #2871A2",
"oX c #6B8091",
"OX c #868585",
"+X c #B6A191",
"@X c #9E9CA4",
"#X c #F1AE86",
"$X c #CBBCB3",
"%X c #DDD684",
"&X c #90B4CD",
"*X c #A5A5C3",
"=X c #B3CADB",
"-X c #F5CCC8",
";X c #F5DACA",
":X c #E1E6DA",
">X c #F3F0E1",
",X c #F7F6F4",
"<X c #F8F7F8",
/* pixels */
"/././././././././././././././././././././././././././.3 ; ; ; ; ; ; ; ; ; ; ; ; Y./././././././././././././././././././././././.",
"/././././././././././././././././././././././././././.3 ; - ; ; ; ; ; ; ; ; ; ; Y./././././././././././././././././././././././.",
"/./././././././././././././././././././././././.^.<.<.~ 4 4 4 ^ ^ ` 4.4.4.4.^ 4 ,.<.Y./././././././././././././././././././././.",
"/./././././././././././././././././././././././.Y.; ; { } } } } } 1.}.}.}.}.} } : ; e./././././././././././././././././././././.",
"/./././././././././././././././././././././.^.Y.A.: : } X.X.X.X.X.u.%X%X%X%X} } : ; e./././././././././././././././././././././.",
"/./././././././././././././././././././././.e.; : } } %.&.&.&.&.&.b.<X<X<X<X} } : ; e./././././././././././././././././././././.",
"/././././././././././././././.d.d./././././.e.- : } } %.&.&.&.&.&.b.<X<X<X<X} } : ; e./././././././././././././././././././././.",
"/././././././././././././././.d.d./.' ; ; ; , } X.&.&.&.&.! ; ; ; ; ; ; ; ; ; ; ; ; ; - <./././././././././././././././././././.",
"/./././././././././././././././././.' ; ; ; , } X.&.&.&.&./ ; ; ; ; ; ; - ; ; ; ; ; ; ; <./././././././././././././././././././.",
"/./././././././././././././././.' 3 / { { { | %.%.&.&.! , ^ { { { X.#.#.$.$.#.#.#.#.| { ~ 3 ,./././././././././././././././././.",
"/./././././././././././././././.3 ; ^ } } } o.&.&.&.&., ; ^ } } } o.&.&.&.&.&.&.&.&.o.} ^ ; ' /././././././././././././././././.",
"/./././././././././././././././.3 - ^ } o.$.%.&.%.o.o.: ; : , , , < ! ! ! ! ! / ! ! < < : ; ' /././././././././././././././././.",
"/./././././././././././././././.3 ; ^ } O.&.&.&.%.} } : ; ; ; ; ; ; ; ; ; ; ; ; ; ; - ; ; ; ' /././././././././././././././././.",
"/./././././././././././././././.3 ; , ^ / ( ( ( ( 4 4 @.@.k.l.l.l.k.@.@.l.l.l.l.u 9 =.<.<.<.e./././././././././././././././././.",
"/./././././././././././././././.3 ; ; ; - ; ; ; ; ; - z.c.-X<X<X<X-Xc.#X<X<X<X<Xi.h I./././././././././././././././././././././.",
"/./././././././././././././././.,.' 9 1 > - - - >  .{ x.b.-X<X:X=X$X`.{.=X=X<X<Xp.h I./././././././././././././././././././././.",
"/./././././././././././././././././.7.h 7 X X X e c.c.c.c.-X<X&XXXoX[.+XXXXX<X<Xp.h I./././././././././././././././././././././.",
"/./././././././././././././././././.7.h 7 X X X e c.c.c.c.-X<X&XXXoX[._.XXXX<X<Xp.h I./././././././././././././././././././././.",
"/./././././././././././././././.:.h T.[.a.X X X e c.c.].[.;X<XOX  f [.(.    <X<Xp.h I./././././././././././././././././././././.",
"/./././././././././././././././.:.h T.[.a.X X X 7 c.c.].[.;X<XOX  d [.(.    <X<Xp.h I./././././././././././././././././././././.",
"/./././././././././././././././.3.h T.[.t.X X X o 7 7 ).[.#X#X{.(.).[.[.(.(.#X#X_.).0.2.Z././././././.d.d./././././././././././.",
"/./././././././././././././././.:.h T.[.4.X X X X X X ).[.[.[.[.[.[.[.[.[.[.[.[.[.[.0.g Z././././././.d.d./././././././././././.",
"/./././././././././././././././.U.I.j.4.h.u.-.X 6 j.j.[.[.p.p y.`.`.`.'.[.[.[.[.`.v.l $ 6./././././././././././././././././././.",
"/./././././././././././././././././.7.g h.c.u.X w [.[.[.[.d   -.c.c.c.v.[.[.[.[.v.c.t   z /././././././././././././././././././.",
"/./././././././././././././././.w.6.f 7 t.c.z.t.y.[.[.a.r.&   w -.-.r.t.v.`.'.'.t.l $   w 3.S./././././././././././././././././.",
"/./././././././././././././././.8 X X X =.c.c.c.v.[.[.&               $ c.c.c.c.&           a /././././././././././././././././.",
"/./././././././././././././././.2.j 6 X u u.z.v.v.].].l d d d &       . y.y.y.y..   6 a f a 5./././././././././././././././././.",
"/./././././././././././././././././.j X X X p v.c.c.c.{.[.[.[.i.                    C./././././././././././././././././././././.",
"/./././././././././././././././././.2.8 8 8 k x.x.v.c.{.].[.[.t.$ $ $ o $ $ . . o & F./././././././././././././././././././././.",
"/./././././././././././././././././././././.I.h >.c.c.c.c.c.c.c.c.c.c.c.c.c.h g !./././././././././././././././././././././././.",
"/././././././././././././.d.d./././././././.I.h >.c.c.c.c.c.c.c.c.c.c.c.c.b.h h !./././././././././././././././././././././././.",
"/././././././././././././.d.d./././././.q.3 2 > > 5 5 N B B B 0 5 , 5 5 5 5 n n R./././././././././././././././././././././././.",
"/./././././././././././././././././././.<.; ; ; ; ; ; x c c c # ; ; ; ; ; ; c c R./././././././././././././././././././././././.",
"/./././././././././././././././././.9.' ] _ _ _ ] u 9 y y y y # @ 0 ^ ^ ^ ^ q q F Y i.7.I./././././././././././././././././././.",
"/./././././././././././././././././.' ; ( &.&.&.%.h h h g g h = c N } } } } } } b c y j D.^././././././././././././././././././.",
"/./././././././././././././././.q.<.' ( #.&.*.@.1.+X+X+X+X+X+XQ C i O.O.O.O.} } b c Q +XK.e.I./././././././././././././././././.",
"/./././././././././././././././.3 ; _ &.&.&.+.g p.<X<X<X<X<X<X+Xh =.&.&.&.&.} } b c *X,X+Xh 7./././././././././././././././././.",
"/./././././././././././././././.3 ; ) $.*.+.1.5.J.,X<X<X<X<X<X$XJ.k.+.+.$.$.} } b c @X;XK.h 7./././././././././././././././././.",
"/./././././././././././././././.3 ; ^ } ..g d.}.%X<X<X<X<X<X<X<X,X$Xh g } X.} } b c J.}.S.h 7.!.!./././././././././././././././.",
"/./././././././././././././././.3 ; ^ } ..k s.}.}.>X>X,X<X<X<X<X,X$Xg g [ [ [ q n v Q L.S.h 7.!.!./././././././././././././././.",
"/./././././././././././././././.3 ; ^ } ..h s.}.}.}.}.>X<X<X<X<X<X$Xg d c c c c J K M c C h 7./././././././././././././././././.",
"/./././././././././././././././.3 ; ^ } ..h s.}.}.}.}.>X<X<X<X<X<X$Xg p c c c c J K M c C h 7./././././././././././././././././.",
"/./././././././././././././././././.' ; ; ; 1 h 3.}.}.}.}.}.}.S.h s.}.P.XXXXXXXXP.}.Y c R /./.m.m./././././././././././././././.",
"/./././././././././././././././././.' ; ; ; 1 h z }.}.}.}.}.}.S.h s.}.P.XXXXXXXXP.}.Y c R /./.m.m./././././././././././././././.",
"/./././././././././././././././././.G @ N Z Z U U d.5.s.s.s.5.S.H.~.}.P.XXXXXXXXP.}.Y c R /./.m.m././././././././.d.d./././././.",
"/./././././././././././././././././.D c A K K K P h l h h h j S.}.}.}.P.XXXXXXXXP.}.Y c R /./.m.m././././././././.d.d./././././.",
"/./././././././././././././././././.g.R H A S K K U U W W W W Q B.B.B.V.XXXXXXXXV.B.P A Z R J.m.m./././././././././././././././.",
"/./././././././././././././././././././.R c M K K K K .XXXXXXX|.L K K L XXXXXXXXL K K K A c F m.m./././././././././././././././.",
"/./././././././././././././././././.I.Z.U c M K K I I .XXX X XL S S K L  X X|. XL K J Z V x p m.m./././././././././././././././.",
"/./././././././././././././././././.j X + c M K L XXXXXXXXI K A c M K K K K K K K K % X X X j m.m./././././././././././././././.",
"/./././././././././././././././.Q.E.f 6 # x m K L .X.X.X.XI K A c M K K K K K K J H = 6 6 6 s n.n././.m.m./././././././././././.",
"/./././././././././././././././.8 X 8 h 7 X * L K K K K K K K A c M K K K K K K % X k 0.0.0.;.X O /./.m.m./././././././././././.",
"/./././././././././././././././.8 X r h 7 X * K K K K K K K K A c M K K K K K K % X k 0.0.0.;.X O /./.m.m.m.m.W.W./././././././.",
"/./././././././././././././././.8 X r h 7 X * K K K K K K M c H m.E c v K K X X 4.0.k h h h a X O /./.m.m.m.m.W.W./././././././.",
"/./././././././././././././././.8 X r h 7 X * K K K K K K M c T R.E c v K K X X 4.h.:.h h h r X O W.W.W.W.W.W./././././././././.",
"/./././././././././././././././.7 X a h k 4.k & % % % % % z S.G.R.N.n.s.% % f f j k k h 7 o f M.m.E.W.W.W.W.W./././././././././.",
"/./././././././././././././././.8 X r h >.0.;.X X X X X X Z./././.W.W.E.X X h h h h h h 7 X j W.W././.N.N./././././././././././.",
"/./././././././././././././././.w.6.f 7 h 4.k 7 7 h f f h 2.6.Z./.W.W.E.X X h h h h r 7 s 6.Z.U.W././.N.N./././././././././././.",
"/./././././././././././././././././.j X 7 h h h ;.0.0.0.0.r X 6./././.E.X X h h g h 6 X 2././././././.F.F./././././././././././.",
"/./././././././././././././././././.8.j f 8 r r r ;.;.;.;.8 X 6./././.E.X X r r 8 a f f 8././././././.F.F./././././././././././.",
"/./././././././././././././././././././.6.X X X X X X X X X X 6./././.W.X X X X X X C./././././././././././././././././././././.",
"/./././././././././././././././././././.w.8 8 8 8 8 8 8 8 8 8 C./././.Q.r 8 8 8 8 8 F./././././././././././././././././././././.",
"/././././././././././././././././././././././././././././././././././././././././.f.C./././././././././././././././././././././.",
"/././././././././././././././././././././././././././././././././././././././././.f.f./././././././././././././././././././././."
};
