/* XPM */
static char *_8646ef116424dc3d6ce34bcb83c38aappPEugHp20kcdEFm[] = {
/* columns rows colors chars-per-pixel */
"64 64 213 2 ",
"   c #2A1D0D",
".  c #2D1F10",
"X  c #2E210F",
"o  c #30220F",
"O  c #2F2112",
"+  c #332515",
"@  c #392916",
"#  c #372819",
"$  c #3B2C1C",
"%  c #3B341B",
"&  c #3F2F21",
"*  c #3C3121",
"=  c #492E1A",
"-  c #572B10",
";  c #5B2D12",
":  c #44331C",
">  c #49361C",
",  c #5D3114",
"<  c #543E1C",
"1  c #653719",
"2  c #6D3B1D",
"3  c #723B1E",
"4  c #403022",
"5  c #493626",
"6  c #4E3923",
"7  c #4E3B2A",
"8  c #543C28",
"9  c #773D22",
"0  c #3D4422",
"q  c #55401C",
"w  c #6E411A",
"e  c #774A1E",
"r  c #4A432B",
"t  c #594429",
"y  c #4C5626",
"u  c #53572C",
"i  c #564733",
"p  c #654928",
"a  c #7B4625",
"s  c #6C5326",
"d  c #6C532D",
"f  c #765928",
"g  c #795D2E",
"h  c #614933",
"j  c #744530",
"k  c #6E5532",
"l  c #6C5139",
"z  c #775A35",
"x  c #73563B",
"c  c #7D5D3F",
"v  c #516528",
"b  c #78692F",
"n  c #7D6233",
"m  c #4D5942",
"M  c #6F5B41",
"N  c #7C5D42",
"B  c #486B4F",
"V  c #766448",
"C  c #6B7254",
"Z  c #88492B",
"A  c #875727",
"S  c #90552D",
"D  c #924D32",
"F  c #865733",
"G  c #995436",
"H  c #A3553A",
"J  c #AA5A3E",
"K  c #87692E",
"L  c #96682C",
"P  c #9E702F",
"I  c #856837",
"U  c #8B6E33",
"Y  c #997736",
"T  c #9D7C36",
"R  c #917339",
"E  c #AB6E39",
"W  c #A37834",
"Q  c #AD5B40",
"!  c #826245",
"~  c #886746",
"^  c #8C6A4A",
"/  c #936E4D",
"(  c #8F7B4A",
")  c #947D47",
"_  c #97744B",
"`  c #8B7556",
"'  c #9C7552",
"]  c #977A57",
"[  c #9D7854",
"{  c #B26342",
"}  c #B86C43",
"|  c #A37E46",
" . c #BD7344",
".. c #BF7845",
"X. c #A37C54",
"o. c #AA7B50",
"O. c #A47E59",
"+. c #C27D45",
"@. c #5F8631",
"#. c #629B2F",
"$. c #678B35",
"%. c #6A9736",
"&. c #79923F",
"*. c #6BA338",
"=. c #6FAB3A",
"-. c #579472",
";. c #778B68",
":. c #77A57E",
">. c #9C803D",
",. c #A7843D",
"<. c #B5883A",
"1. c #B7913F",
"2. c #C2943F",
"3. c #8E8458",
"4. c #AB8842",
"5. c #B28D42",
"6. c #B68E4D",
"7. c #BA9644",
"8. c #AB8453",
"9. c #AD845D",
"0. c #B88E52",
"q. c #B58958",
"w. c #BD9352",
"e. c #BC915B",
"r. c #909269",
"t. c #AA8A64",
"y. c #B58C63",
"u. c #BB8E63",
"i. c #BA9469",
"p. c #BE9E71",
"a. c #B7A077",
"s. c #C98648",
"d. c #CC8B49",
"f. c #C39B44",
"g. c #CA9947",
"h. c #D2954B",
"j. c #D99F4C",
"k. c #C19752",
"l. c #C69B52",
"z. c #C89C57",
"x. c #C7A14B",
"c. c #CCA348",
"v. c #D3A447",
"b. c #D4A74B",
"n. c #DCA44D",
"m. c #D5AA4A",
"M. c #DCAC4C",
"N. c #DDB14D",
"B. c #CCA152",
"V. c #D1A552",
"C. c #D5A952",
"Z. c #DBAD56",
"A. c #DEB054",
"S. c #E2AD4F",
"D. c #E3B54E",
"F. c #E4B552",
"G. c #E8B651",
"H. c #E7B951",
"J. c #EDBE52",
"K. c #EEBE5B",
"L. c #C59663",
"P. c #C29669",
"I. c #C59A6C",
"U. c #CB9D6E",
"Y. c #DB9D6E",
"T. c #C29D71",
"R. c #CEA16D",
"E. c #D3A66A",
"W. c #CDA172",
"Q. c #C7A77A",
"!. c #D2A472",
"~. c #D9A676",
"^. c #DBAB76",
"/. c #DCAD79",
"(. c #DDB476",
"). c #EEBF63",
"_. c #E9B96B",
"`. c #F0BF65",
"'. c #F1BF6C",
"]. c #EAB873",
"[. c #E3B27C",
"{. c #F1BF7A",
"}. c #EEC15C",
"|. c #EFC566",
" X c #F0C86F",
".X c #F2C075",
"XX c #F1CA77",
"oX c #F3C17B",
"OX c #5FA981",
"+X c #6AB78F",
"@X c #6FC59A",
"#X c #78D4A5",
"$X c #75F4C1",
"%X c #87B98E",
"&X c #CDAF81",
"*X c #D6B787",
"=X c #E4BC87",
"-X c #EEBB83",
";X c #F2BE85",
":X c #82C89B",
">X c #D9C291",
",X c #EBC48D",
"<X c #F5C185",
"1X c #F2CE84",
"2X c #F5C48A",
"3X c #F4CA8E",
"4X c #F3D38B",
"5X c #E9C994",
"6X c #F4CB92",
"7X c #EDD39E",
"8X c #F4D497",
"9X c #F5D49D",
"0X c #F5DCA5",
/* pixels */
"J.J.J.J.J.J.J.J.J.J.,.4 >.J.J.J.J.J.J.J.J.w.' ' i.5X0X0XQ.X.B.J.J.J.J.J.J.J.J.J.J.J.J.J.J.J.J.J.J.J.J.J.J.J.J.J.J.J.J.J.J.J.J.J.",
"J.J.J.J.J.J.J.J.J.J.,.% g 7.m.J.J.J.J.K.`.E.i.O.t.&X*X*XQ.p.(.|.}.J.J.J.J.J.J.J.N.7.c.J.J.J.J.J.J.J.J.J.J.J.J.J.J.J.J.J.J.J.J.J.",
"J.J.J.J.J.J.}.J.J.J.W o $ p 7.J.J.J.J.'.<X5X5Xy.' O.t.[ &X7X9X4X}.J.J.J.J.J.J.J.f.s U J.J.J.J.J.J.J.J.J.J.J.J.J.J.}.J.J.J.J.J.J.",
"J.J.J.J.J.J.J.J.J.J.2.U t % n ,.M.J.J.F.W.=X5X&Xp.O.t.Q.=X8X8X1X}.}.J.J.J.J.D.1.n : K D.J.J.J.J.J.J.J.J.J.J.J.J.J.J.J.J.J.J.J.J.",
"J.J.J.J.J.J.J.J.J.J.J.J.K o % p f.G.J.l.X.U.;X9X*Xt.T.0X6X<X<XoXJ.J.J.J.J.H.c.d $ + g J.J.J.J.J.J.J.J.J.J.J.J.J.J.J.J.J.J.J.J.J.",
"J.J.J.J.J.J.J.J.J.J.J.J.J.J.J 1 A <.D.l.' y.P.T.T.W.[.6X3X-X!.L.F.J.J.}.H.1.n > q U 1.}.J.J.J.J.J.J.J.}.J.J.J.J.J.J.J.J.J.J.J.J.",
"J.J.J.J.J.J.J.J.J.J.J.J.J.D.K - - f f.w.' O.O./ O.U.^.~.^.~.u.q.A.J.J.N.c.g $ : f m.J.K.K.J.K.K.}.|.}.}.J.J.J.J.J.J.J.J.J.J.J.J.",
"J.J.J.J.J.J.J.J.J.J.J.J.J.J.J.J - 1 k ! [ T.&X~ j A F F F F u.].K.J.}.5.f > : R f.H.)..XoXoXoXoX1X4X4XXXJ.J.J.J.J.J.J.J.J.J.J.J.",
"J.J.J.J.J.J.J.J.J.J.J.J.J.J.J.J.J.J.: l ' &X>X! = 2 2 2 2 Z L.;XK.M.7.I $ 6 f l.|.`._.^././.^./.*X5X9X1X|.}.J.J.J.J.J.J.J.J.J.J.",
"J.J.J.J.J.J.J.J.J.J.J.J.J.J.J.J.J.J.J l [ *X>XM 8 D H G H J Y.{.K.7.d : + U C._.oXoXE.9.O.9.9.9.9.I.,X6X8X XJ.J.J.}.J.J.J.J.J.J.",
"J.J.J.J.J.J.J.J.J.J.J.J.J.J.J.J.J.J.J h X.*X*XV 8 9 G Q J { Y.;X.Xw.x l I k._.~.!.!.I.k.w.w.w.w.w.z.!.[.9X1X X}.J.J.J.J.}.}.}.|.",
"J.J.J.J.J.J.J.J.J.J.J.J.J.J.J.J.J.J.J h ' &X>XV 4 5 9 Q Q { Y.;X2X!.X.P.;X<X[.u.' ' k.G.J.J.G.J.J.B.O.I.2X8X8X|.J.J.J.J.}.}.1X0X",
"J.J.J.J.J.J.J.J.J.J.j.J.J.J.J.J.J.J'  y.&X=X=XO.M 5 8 j j N T.5X!.I.U./.2X6X5XE.l.l.C.J.J.J.J.J.J.A.B.L.U.=X3XoX`.J.J.J.J.}. X3X",
"J.J.J.J.J.J.J.J.J.J.J.J.J.J.J.J.J.`.{.6X7X=X=XO.! 8 5 5 7 h a.=Xy.P.-X<X2X6X5X{.G.G.J.J.J.J.J.J.J.J.}.B.O.U.-X;XoX`.J.K.}.J.].{.",
"J.J.J.J.J.J.J.J.J.J.J.J.J.J.J.J.J.`.;X=XT.i.P.W.P./ N N ' y.i.T.!.[.-X3X7X*X+.+.h.G.G.J.J.J.J.J.J.J.J.N.V.z.P.[.<X.X{.'..X].R.u.",
"J.J.J.J.J.J.J.J.J.J.J.J.J.J.J.G.h.z.Y.U.O.O.y.Y.&XP.O.O.U./.P.u.=X<X3X,X&X..{ Q +.S.J.J.J.J.J.J.J.J.J.J.J.l.q.!.[.[.[.[.[./.k.8.",
"J.J.J.J.J.J.J.J.J.J.J.J.J.J.G.v.L e a 8.[.=X*XI.u.~.[.[.I.y.W.=X<X3X9Xi.f H J J +.S.J.J.J.J.J.J.J.J.J.J.J.N.m.w.9.9.9.9.9.q.B.Z.",
"J.J.J.J.J.J.J.J.J.J.J.J.J.2.2.E 2 - - S k.*X5XW.P.!.~.~.U.p.=X=XW.i.p.^ ; 9 D J +.d.S.J.J.J.J.J.J.J.}.J.J.J.D.g.w.w.0.0.w.w.M.}.",
"J.J.J.J.J.J.J.J.J.J.J.J Z 1 ; - - - - ; 2 e.2X;X~.t.O.O.Q.7X7X*XM t 1 , ; ; 1 D Q Q +.J.J.J.J.J.J.J.J.J.J.J.}.D.F.D.H.F.H.F.J.J.",
"J.J.J.J.J.J.J.J.J.J.J.J.Z - - - - - - - = N [ O./ N x x ` t.r.] i : = - ; Z L S D J +.d.n.J.J.J.J.J.J.J.J.J.J.J.}.J.J.J.J.J.J.J.",
"J.J.J.J.J.J.J.J.J J J Q - - J - ; , 1 = 4 4 4 4 4 4 4 4 4 4 & 4 & & & = , <.v.A 9 D J J +.J.J.J.J.J.}.R 3.}.J.J.J.J.J.J.J.J.J.J.",
"J.J.J.J.J.J.J.J.J.J Q - J - - 2 P <.W g 4 4 4 4 4 & 4 & 4 4 4 4 & & 4 4 = ,.D.2.J Z D J +.+.S.J.J.J.}.Y Y J.J.J.J.J.J.J.J.J.J.}.",
"J.J.J.J.J.J.J.J.S. .- J - - Q A v.J.J.,.t 5 & & 4 4 & 4 & 4 4 4 & 4 4 4 = ,.J.J.2.A Z H J Q d.S.H.J.J.J.}.J.J.J.J.J.J.J.J.J.J.J.",
"J.J.J.J.J.J.J.J.G.S.- J - J 2.2.D.J.J.m.7.p + & 4 4 4 4 4 4 4 4 4 4 4 $ @ W J.J.G.2.P 3 D Q +.+.S.J.J.J.}.J.J.J.J.J.J.J.J.J.J.J.",
"J.J.J.J.J.J.J.J.J.J. - J - -J.J.J.J.J.J.D.>.q > @ @ % : 4 4 4 4 4 & $ + . T J.J.J.J.2.A S J J +.v.J.J.J.J.J.J.J.J.J.J.J.J.J.J.J.",
"J.J.J.J.J.J.J.J.J.J.J.J - J -.J.J.J.J.J.J.v.1.q o o @ % 4 4 4 4 4 # . . + T J.J.J.J.G.n.+.J J } S.J.J.J.J.J.J.J.J.J.J.J.J.J.J.J.",
"J.J.J.J.J.J.J.J.J.J.J.J.J. - J -..J.J.J.}.}.c.w     o # # # # # # +     o T J.J.J.J.J.J.2.J Q +.S.J.J.J.}.J.J.J.J.J.J.J.J.J.J.J.",
"J.J.J.J.J.J.J.J.J.J.J.J.J.J - - -.J.J.J.}.}.c.t           .     .       o T J.J.J.J.J.J.d.J J +.S.J.J.J.J.J.J.J.J.J.J.J.J.J.J.J.",
"J.J.J.J.J.J.J.J.J.J.J.J.J.J.J.J. - - .J.J.J.M.R h d 7 o           X     o T }.J.J.J.J.J.d.J J  .S.J.J.J.J.J.J.J.J.J.J.J.J.J.J.J.",
"J.J.J.J.J.J.J.J.J.JJ.J.J.J.h.J J J 2.j.GJ.D.m.8.[ ] M # o     . O + O O % T F.J.J.J.G.G.s.J J E j.J.J.J.J.J.J.J.J.J.J.J.}.J.J.J.",
"J.J.J.J.J.J.J.J.J.J.J.J.J.) ) J.J.J.J.J.J.,.I / r.:X:.M 6     @ h z c ;.OXr.w.A.J.J.S.+.} J Z S 2.J.J.J.J.J.J.J.J.J.J.J.J.J.J.J.",
"J.J.J.J.J.J.J.J.J.J.J.J.J.| ) J.J.J.J.M.f.g 5 x ` +Xr.] l % 0 m 3.3.3.r.@X;._ b.J.J.h.J J J S L v.J.J.J.J.J.J.J.J.J.J.J.J.J.J.J.",
"J.J.J.J.J.J.J.J.J.J.J.J.J.J.J.J.J.J.J.5.p 7 4 8 i m V ' ^ ^ OX@X#X%Xt.V m i l w.}.J.h.J J J 2.j.G.J.J.J.J.J.J.J.J.J.J.J.J.J.J.J.",
"J.J.J.J.J.J.J.J.J.J.J.J.J.J.J.J.J.J.J.4.h h h h i 5 7 N ^ O.:X$X$X@XV i & & i 4.C.H.2.D S H 2.J.J.J.J.J.J.J.J.J.J.J.J.J.J.J.J.J.",
"J.J.J.J.J.J.J.}.J.J.J.J.J.J.J.J.J.J.J.g./ / / / N 7 4 5 M ] #X$X$X+Xr & 4 4 7 ~ 0.F.<.1 ; 3 2.J.J.J.J.J.J.J.J.J.J.J.J.J.J.J.J.J.",
"J.J.J.J.J.J.J.J.J.J.J.J.J.J.J.J.J.J.J.E.I.I.U.U.y.] ~ l M M C -.-.B * * 4 * 7 ! o.w.5.P P W v.J.J.J.J.J.J.J.J.J.J.J.J.J.J.J.J.J.",
"J.J.J.J.J.J.J.J.J.J.J.J.J.J.J.J.J.J.J.'.;X;X2X;X;X;X~.X.l 4 4 & O     + 4 4 7 ! ' ' w.J.J.J.J.J.J.J.J.J.J.J.J.J.J.J.J.J.J.J.J.J.",
"J.J.J.J.J.J.J.J.J.J.J.J.J.J.J.J.J.K.'.;X;X6X9X9X9X;X=X!.X.x 8 & O     + 4 4 7 ! ' ' w.H.J.J.J.}.J.J.J.J.J.J.J.}.J.J.J.J.J.J.J.J.",
"J.J.J.J.J.J.J.J.J.J.J.J.J.J.J.J.K.'.<X2X;X9X0X0X0X6X;X;XI./ i # O     # 4 4 7 ! ' ' 0.M.D.}.J.M.M.J.J.J.J.J.J.J.J.J.J.J.J.J.J.J.",
"J.J.J.J.J.J.J.J.J.J.J.J.J.J.J.K.'.{.<X3X9X0X0X0X0X0X6X;XI./ h & O     + 4 4 7 ! ' ' X.6.v.J.J.M.v.}.J.J.J.J.J.J.J.J.J.J.J.J.J.J.",
"J.J.}.J.J.J.J.J.J.J.J.J.J.J.J.`.oX2X3X9X0X0X0X0X0X9X6X;XU.' h & O     + 4 4 7 ! ' ' ' ' w.M.F.J.J.J.J.J.J.J.J.J.J.J.J.J.J.J.J.J.",
"J.J.J.J.J.J.J.J.J.J.J.J.J.J.J.`.{.3X9X0X0X0X0X0X0X6X;X;XI./ t & O   . + 4 4 7 ! ' ' ' ' X.8.C.J.J.J.J.J.J.J.J.J.J.J.J.J.J.J.J.J.",
"J.J.J.J.J.J.J.J.J.J.J.J.J.J.`.'.<X6X0X0X0X0X0X0X9X;X=XW.y./ 8 & O     O # & 7 ! ' ' ' ' ' X.V.#.#.J.J.J.J.J.J.J.J.J.J.J.J.J.J.J.",
"J.J.J.J.J.J.J.J.J.J.J.J.J.K.'.;X<X3X0X0X0X0X0X0X0X;XW.X.' / j & O     . . $ 7 ! ' ' ' ' ' X.V.#.#.J.J.J.J.J.J.J.J.J.J.J.J.J.J.J.",
"J.J.J.J.J.J.J.J.J.J.J.J.J.J.{.2X6X9X0X0X0X0X0X0X6X;XY.X.X./ i $ O         + 7 ! ' ' ' ' ' X.q.&.%.J.J.J.J.J.J.J.J.T >.J.J.J.J.J.",
"J.J.J.J.J.J.J.J.J.J.J.J.J.J.{.2X0X0X0X0X0X0X0X2X;X-XU.X.' / h $ O       . # 7 ! / ' ' ' ' ' ' ( %.J.J.J.J.J.J.J.J.3.T J.J.J.J.J.",
"J.J.J.J.J.J.J.J.J.J.J.J.J.K.{.2X9X0X0X0X0X9X2X2X[.P.O.' ' / h $ O         # 7 ! ' ' ' ' ' ' ' ( %.J.J.J.J.J.J.J.J.J.J.J.J.J.J.J.",
"J.J.J.J.J.J.J.J.J.J.J.J.G.F.{.;X9X9X0X9X9X3X;X-XW.O.X.' ' / h $ O         # 7 V ' ' ' ' ' ' / _ b v.J.J.J.J.J.J.J.J.J.J.J.J.J.J.",
"J.J.J.J.J.J.J.J.J.J.J.J.v.q.^.<X2X2X2X3X3X2X-XP.O.' ' ' ' / h $ O         # 7 ! ' ' ' ' ' ' ' ^ u R N.}.J.J.J.J.J.J.J.J.J.J.J.J.",
"J.J.J.J.J.J.J.J.J.J.J.J.g.o.L./.;X2X2X;X;X[.W.O.X.' ' ' ' / h @ O         # 7 ! ' ' ' ' ' ' ' ! t n N.}.J.J.J.J.J.J.J.J.J.J.J.J.",
"J.J.J.}.J.J.J.J.J.J.J.J.k.' [ y.[.<X<X;X;XI.X.' ' ' ' ' ' / i $ O       . # 7 ! ' ' ' ' ' ' X.~ 8 n N.#.#.J.J.J.J.J.J.J.J.J.J.J.",
"J.J.J.J.J.J.J.J.J.J.J.J.l.' ' O.P.U.U.U.U.9.X.' o.k.k.k.l.6.k $ O         # r ~ ' ' ' ' ' / ! h 6 b N.#.#.J.J.J.J.J.J.J.J.J.J.J.",
"J.J.J.J.J.J.J.J.J.J.J.J.k.' ' ' ' ' ' ' ' ' ' ' q.S.J.c.x.%.u % O X X X   # 6 V ' _ ' ' ' / i 4 * n N.#.#.#.#.x.c.J.J.J.J.J.}.J.",
"J.J.J.J.J.J.J.J.J.J.J.J.k.' ' ' ' ' ' ' ' w.B.B.C.F.}.l.x.*.u $ O % v 0   @ r b 3.) ' ' ! h 7 4 4 n N.#.#.#.#.x.x.J.J.J.J.J.J.J.",
"J.J.J.J.J.J.J.J.J.J.J.J.l.o.X._ _ ' ' ' X.l.J.J.J.J.J.J.J.7.d 4 % y #.K : 0 u $.&._ / ^ h 4 4 4 4 k 7.x.x.x.x.J.J.J.J.J.J.J.J.J.",
"J.J.J.J.J.J.J.J.J.J.J.J.F.C.8.' ' ' ' ' X.B.J.J.J.J.J.J.J.7.f r K #.=.1.>.@.$.%.%.l t 8 7 4 4 4 4 k 7.x.x.x.x.}.J.J.J.J.J.J.J.J.",
"J.J.J.J.J.J.J.J.J.J.J.J.J.D.| c c c c _ 6.V.J.J.J.J.J.J.J.N.>.K c.x.c.}.J.=.=.f.,.K b y r $ 4 * @ b m.=.=.J.J.J.J.J.J.J.J.J.J.J.",
"J.J.J.J.J.J.J.J.J.J.J.J.J.N.g @ @ @ $ U F.G.J.J.J.J.J.J.J.}.N.m.H.x.f.J.J.=.=.c.f.m.c.#.v * * $ o s N.=.=.J.J.J.J.J.J.J.J.J.J.J.",
"J.J.J.J.J.J.J.J.J.J.J.J.J.D.,.p @   X K J.J.J.J.J.J.J.J.J.J.J.J.}.J.J.J.}.x.x.}.J.J.}.c.T I 8 + X q P >.1.}.J.J.J.J.J.J.J.J.J.J.",
"J.J.J.J.J.J.J.J.J.J.J.J.J.J.}.1.q     K J.J.J.J.J.J.J.J.J.J.J.J.}.J.J.J.D.c.f.J.J.J.J.f.x.m.s   X X o f 1.J.J.J.J.J.J.J.J.J.J.J.",
"J.J.J.J.J.J.J.J.J.J.J.J.J.D.1.g > $ # U J.J.J.J.J.J.J.J.J.J.J.J.J.J.J.J.}.J.J.J.D.J.J.J.}.D.<.b @ X   q K f.}.}.J.J.J.J.J.J.J.J.",
"J.J.J.J.J.J.J.J.J.J.J.J.D.v.n $ 4 4 $ R J.J.J.J.J.J.J.J.J.J.J.J.J.J.J.J.}.J.J.J.}.}.J.J.J.J.J.2.q X     X L N.D.J.J.J.J.J.J.J.J.",
"J.J.J.J.J.}.J.J.J.J.J.J.1.z r : 4 4 : U J.J.J.J.J.J.J.J.J.J.J.J.J.J.J.J.J.J.J.J.}.R >.J.J.J.}.1.<         < K c.J.J.J.J.J.J.J.J.",
"J.J.J.J.J.J.J.J.J.J.J.J.U 4 4 4 * : % P J.J.J.J.J.J.J.J.J.J.J.J.J.J.J.J.J.J.J.J.}.>.>.J.J.J.}.1.q           : 1.J.J.J.J.J.J.J.J."
};
