/* XPM */
static char *a285c646e9244189f8cd17a07c013521CrsAnF39Sg5IK7nr[] = {
/* columns rows colors chars-per-pixel */
"64 64 3 1 ",
"  c #494949",
". c #5A5A59",
"X c #696967",
/* pixels */
"                                                                ",
" .XXX... X...... .XX...XX..X.... .XXXXXXXXXXXXXXXXXX...XX..X....",
" X....... X..... X........  X... X..............................",
" X........ X.... X.........  X.  X..............................",
" X........ X.... X.....X ...     X..............................",
" ....X.....  X.. X...........    X..............................",
" ............    X.X  .......    X..............................",
" ............... X.X  .....      X......... ....................",
" .......... .... .........       X...X................   .......",
" X.............. ........     X. X....................   .......",
" X.............. .......     X.  X..............................",
" X....X......... X......     X.  X..............................",
" X.............. X.....   X      X...................XX.........",
" .....  ........ ....    X..     X...................XX.........",
" X....  ........ X..    X...     X..............................",
" X.............. X..   X....     X..............................",
"                                 X...............               ",
" XXXXX.XX..X.... XXXXXXXXXX X... X....... ...... XXXXX...XX..X..",
" X.............. X......... X... X.............. X..............",
" X.............. X......... X... X.............. X..............",
" X.............. X..........  X  X.............. X..............",
" X.............. X...XX.......   X.............. X..............",
" X........X....  X...XX....X...  X.............. X..............",
" ...    ......   ............... X.............. X..............",
"    .. .  ....   X.............. X...XX......... X  ............",
" ..... ...    .  X........... .. X...XX......... X  ............",
" X.. .. ........ .......   ..... X.............. X........X  ...",
" ...  . ........ .......   ..... X...........X.. X........X  ...",
" ...  .. .XX.... ............... X.............. X..............",
" ....... .XXX... X.............. X.............. X..............",
" ........ ...... ....   .....  . X.............. X..............",
" ........ ...... ...     ..    . X.............. X..............",
"                                                                ",
" .XXXXXXXXXX...XXXXX...XXXXXXXXXXXXXXXXXXXXXXXXXXXXX...XX..X....",
" X..............................................................",
" X..............................................................",
" X............................................................. ",
" X............................................................  ",
" X..............................................................",
" X......... ....................................................",
" X....................   ..............XX.......................",
" X....................   ..............XX..X..............  ....",
" X........................................................  ....",
" X..............................................................",
" X..............................................................",
" X..............................................................",
" X..............................................................",
" X...............................................X  ............",
" X...............................................X  ............",
" X....... ......................................................",
" X....................................X  .......................",
" X....................................X  .. ....................",
" X....................................X  .......................",
" X.........X..........................................XXX.......",
" X....XX..............................................XXX.......",
" X....XX........................................................",
" X................  ............................................",
" X................  ............................................",
" X..............................................................",
" X..............................................................",
" X........................X   ................................. ",
" X......................X       ..............................  ",
" X.................X               ..........X     .........    ",
" X............X                      .......X     .........     "
};
