/* XPM */
static char *b28a8233243f42c0b072e04f5ff5feb110M9nE8YhxpzcFcX[] = {
/* columns rows colors chars-per-pixel */
"64 64 18 1 ",
"  c #96B5E3",
". c #B1CAF0",
"X c #B1CAF0",
"o c #B1CAF0",
"O c #B1CAF0",
"+ c #96B5E3",
"@ c #99B7E5",
"# c #9AB8E5",
"$ c #9DBAE6",
"% c #9EBBE7",
"& c #9FBCE7",
"* c #A2BFE9",
"= c #A5C0EA",
"- c #ABC5ED",
"; c #ACC6EE",
": c #AEC8EF",
"> c #B0C9EF",
", c #B1CAF0",
/* pixels */
"o. X,,,,OOOOOOOOOOOOOOOOOOOOOOOOOOOOOOOOOOOOOOOOOOOOOOOOOOOOOO  ",
"o. X,>&$,,,,,,,,,,,,,,,,,,,,,,,,,,,,,,,,,,,,,,,,,,,,,,,,,,,,,O  ",
"o. X,>@,,,,,,,,,,,,,,,,,,,,,,,,,,,,,,,,,,,,,,,,,,,,,,,,,,,,,,O  ",
"o. X,>@,,,,++++++++++++++++++++++++++++++++++++++++++++,,,,,,O  ",
"o. X,>@++++++++++++++++++++++++++++++++++++++++++++++++++++-,O  ",
"o. X,>@++++++++++++++++++++++++++++++++++++++++++++++++++++-,O  ",
"o. X,>@++++++++++++++++++++++++++++++++++++++++++++++++++++-,O  ",
"o. X,>@++++++++++++++++++++++++++++++++++++++++++++++++++++-,O  ",
"o. X,>&$@++++++++++++++++++++++++++++++++++++++++++++++++++-,O  ",
"o. X,>@++++++++++++++++++++++++++++++++++++++++++++++++++++-,O  ",
"o. X,>@++++++++++++++++++++++++++++++++++++++++++++++++++++-,O  ",
"o. X,>@++++++++++++++++++++++++++++++++++++++++++++++++++++-,O  ",
"o. X,>@++++++++++++++++++++++++++++++++++++++++++++++++++++-,O  ",
"o. X,>@++++++++++++++++++++++++++++++++++++++++++++++++++++-,O  ",
"o. X,>@++++++++++++++++++++++++++++++++++++++++++++++++++++-,O  ",
"o. X,,==$+++++++++++++++++++++++++++++++++++++++++++++++#==:,O  ",
"o. X,,,,*+++++++++++++++++++++++++++++++++++++++++++++++$,,,,O  ",
"o. X,,,,*+++++++++++++++++++++++++++++++++++++++++++++++&,,,,O  ",
"o. X,,,,*+++++++++++++++++++++++++++++++++++++++++++++++%,,,,O  ",
"o. X,,,,*+++++++++++++++++++++++++++++++++++++++++++++++%,,,,O  ",
"o. X,,,,*+++++++++++++++++++++++++++++++++++++++++++++++%,,,,O  ",
"o. X,,,,*+++++++++++++++++++++++++++++++++++++++++++++++%,,,,O  ",
"o. X,,,,*+++++++++++++++++++++++++++++++++++++++++++++++%,,,,O  ",
"o. X,,,,*+++++++++++++++++++++++++++++++++++++++++++++++%,,,,O  ",
"o. X,,,,*+++++++++++++++++++++++++++++++++++++++++++++++%,,,,O  ",
"o. X,,,,*+++++++++++++++++++++++++++++++++++++++++++++++%,,,,O  ",
"o. X,,,,*+++++++++++++++++++++++++++++++++++++++++++++++%,,,,O  ",
"o. X,,,,*+++++++++++++++++++++++++++++++++++++++++++++++%,,,,O  ",
"o. X,,,,*+++++++++++++++++++++++++++++++++++++++++++++++%,,,,O  ",
"o. X,,,,*+++++++++++++++++++++++++++++++++++++++++++++++%,,,,O  ",
"o. X,,,,*+++++++++++++++++++++++++++++++++++++++++++++++%,,,,O  ",
"o. X,,,,*+++++++++++++++++++++++++++++++++++++++++++++++%,,,,O  ",
"o. X,,,,*+++++++++++++++++++++++++++++++++++++++++++++++%,,,,O  ",
"o. X,,,,*+++++++++++++++++++++++++++++++++++++++++++++++%,,,,O  ",
"o. X,,,,*+++++++++++++++++++++++++++++++++++++++++++++++%,,,,O  ",
"o. X,,,,*+++++++++++++++++++++++++++++++++++++++++++++++%,,,,O  ",
"o. X,,,,*+++++++++++++++++++++++++++++++++++++++++++++++%,,,,O  ",
"o. X,,,,*+++++++++++++++++++++++++++++++++++++++++++++++%,,,,O  ",
"o. X,,,,*+++++++++++++++++++++++++++++++++++++++++++++++%,,,,O  ",
"o. X,,,,*+++++++++++++++++++++++++++++++++++++++++++++++%,,,,O  ",
"o. X,:$#@++++++++++++++++++++++++++++++++++++++++++++++++##;,O  ",
"o. X,>@++++++++++++++++++++++++++++++++++++++++++++++++++++-,O  ",
"o. X,>@++++++++++++++++++++++++++++++++++++++++++++++++++++-,O  ",
"o. X,>@++++++++++++++++++++++++++++++++++++++++++++++++++++-,O  ",
"o. X,>@++++++++++++++++++++++++++++++++++++++++++++++++++++;,O  ",
"o. X,,@++++++++++++++++++++++++++++++++++++++++++++++++++++-,O  ",
"o. X,:@++++++++++++++++++++++++++++++++++++++++++++++++++++-,O  ",
"o. X,>#++++++++++++++++++++++++++++++++++++++++++++++++++++-,O  ",
"o. X,>@++++++++++++++++++++++++++++++++++++++++++++++++++++-,O  ",
"o. X>>@++++++++++++++++++++++++++++++++++++++++++++++++++++-,O  ",
"o. X,>@++++++++++++++++++++++++++++++++++++++++++++++++++++-,O  ",
"o. X,>@++++++++++++++++++++++++++++++++++++++++++++++++++++;,O  ",
"o. X,,-;*+++++++++++++++++++++++++++++++++++++++++++++++$--:,O  ",
"o. X,,,,*+++++++++++++++++++++++++++++++++++++++++++++++$,,,,O  ",
"o. X,,,,*+++++++++++++++++++++++++++++++++++++++++++++++&,,,,O  ",
"o. X,,,,*+++++++++++++++++++++++++++++++++++++++++++++++%,,,,O  ",
"o. X,,,>*+++++++++++++++++++++++++++++++++++++++++++++++%,,,,O  "
"o. X,,,,*+++++++++++++++++++++++++++++++++++++++++++++++%,,,,O  ",
"o. X,,,,*+++++++++++++++++++++++++++++++++++++++++++++++%,,,,O  ",
"o. X,,,,*+++++++++++++++++++++++++++++++++++++++++++++++%,,,,O  ",
"o. X,,,,*+++++++++++++++++++++++++++++++++++++++++++++++%,,,,O  ",
"o. X,,,,*+++++++++++++++++++++++++++++++++++++++++++++++%,,,,O  ",
"o. X,>&$,,,,,,,,,,,,,,,,,,,,,,,,,,,,,,,,,,,,,,,,,,,,,,,,,,,,,O  ",
"o. X,,,,OOOOOOOOOOOOOOOOOOOOOOOOOOOOOOOOOOOOOOOOOOOOOOOOOOOOOO  ",
};
