/* XPM */
static char *b38428d1ce654491b21566fa208a4346JBw032VjPa2cCAya[] = {
/* columns rows colors chars-per-pixel */
"64 64 100 2 ",
"   c #646463",
".  c #4C4C4B",
"X  c #30302F",
"o  c #494948",
"O  c #5A5A59",
"+  c #3E3E3D",
"@  c #3B3B3A",
"#  c #565655",
"$  c #313130",
"%  c #484847",
"&  c #3F3F3E",
"*  c #3A3A39",
"=  c #676766",
"-  c #696968",
";  c #6D6D6C",
":  c gray43",
">  c #585857",
",  c #656564",
"<  c #626261",
"1  c #6C6C6B",
"2  c #686867",
"3  c #6A6A69",
"4  c #6E6E6D",
"5  c #595958",
"6  c #555554",
"7  c #666665",
"8  c #616160",
"9  c #6C6C6C",
"0  c #737372",
"q  c #7E7E7E",
"w  c gray51",
"e  c #6F6F6E",
"r  c gray48",
"t  c #777777",
"y  c #6F6F6F",
"u  c gray46",
"i  c #808080",
"p  c #70706F",
"a  c #828281",
"s  c #7B7B7A",
"d  c #656565",
"f  c #777776",
"g  c gray52",
"h  c gray54",
"j  c gray47",
"k  c #838382",
"l  c #727272",
"z  c #888888",
"x  c #797979",
"c  c #767676",
"v  c #838383",
"b  c #80807F",
"n  c gray49",
"m  c gray53",
"M  c gray50",
"N  c #898989",
"B  c #848484",
"V  c #7B7B7B",
"C  c #868686",
"Z  c #686868",
"A  c #717171",
"S  c #7A7A79",
"D  c DimGray",
"F  c #676767",
"G  c #787877",
"H  c #727271",
"J  c #747474",
"K  c #646464",
"L  c #5C5C5B",
"P  c gray40",
"I  c #6D6D6D",
"U  c #60605F",
"Y  c #6B6B6A",
"T  c gray42",
"R  c #6A6A6A",
"E  c #5F5F5E",
"W  c #5B5B5A",
"Q  c #5E5E5D",
"!  c gray39",
"~  c #626262",
"^  c gray38",
"/  c #5D5D5C",
"(  c #606060",
")  c #5D5D5D",
"_  c #5F5F5F",
"`  c #5B5B5B",
"'  c #636362",
"]  c #7C7C7C",
"[  c #818181",
"{  c #7D7D7C",
"}  c gray37",
"|  c gray36",
" . c #7C7C7B",
".. c #747473",
"X. c gray44",
"o. c #818180",
"O. c gray45",
"+. c #757574",
"@. c #5A5A5A",
"#. c #7F7F7E",
/* pixels */
"                          . X o                         O + @ #                         . $ %                         O & * #   ",
"= = = - ; : : : : : : : : > & # : : : : : : : : : : : : , . o < : : : : : : 1 2 = = 3 4 5 & 6 4 : : : : : : : : : : : 7 . % 8 : ",
"9 9 9 0 q w w w w w w w w e O ; w w w w w w w w w w w w r , < t w w w w w w r y 9 9 u i p O 9 a w w w w w w w w w w w s d < f w ",
": : : t g h h h h h h h h j , f h h h h h h h h h h h h k e ; i h h h h h h i l : : r z x , c h h h h h h h h h h h h v p 1 b h ",
": : : t g h h h h h h h h j , f h h h h h h h h h h h h k e ; i h h h h h h i l : : r z x , c h h h h h h h h h h h h v p 1 b h ",
"t t t n m h h h h h h h h j , f h h h h h h h h h h h h k e ; i h h h h h h v r t t M N x , c h h h h h h h h h h N B V ; 1 b h ",
"C C C m N h h h h h h h h j , f h h h h h h h h h h h h k e ; i h h h h h h N C C C z h x , c h h h h h h h h h h C r p Z 1 b h ",
"i i i i i i i i i i i i i A 8 p i i i i i i i i i i i i S D F G i i i i i i i i i i i i H < y M i i i i i i i i i n J 1 K = t i ",
"A A A A A A A A A A A A A F L P A A A A A A A A A A A A I < U 1 A A A A A A A A A A A A F L 7 A A A A A A A A A A A y Y 8 U T A ",
": : : : : : : : : : : : : , O   : : : : : : : : : : : : R U E D : : : : : : : : : : : : d W   : : : : : : : : : : : : R U Q - : ",
": : : : : : : : : : : : : , O   : : : : : : : : : : : : R U E D : : : : : : : : : : : : d W   : : : : : : : : : : : : R U Q - : ",
"T T T T T T T T T T T T T ! O ~ T T T T T T T T T T T T 2 E Q = T T T T T T T T T T T T ! W ~ T T T T T T T T T T T T Z E Q P T ",
"F F F F F F F F F F F F F ^ O 8 F F F F F F F F F F F F d Q / K F F F F F F F F F F F F ^ W ( F F F F F F F F F F F F d Q /   F ",
"^ ^ ^ ^ ^ ^ ^ ^ ^ ^ ^ ^ ^ Q O ) ^ ^ ^ ^ ^ ^ ^ ^ ^ ^ ^ ^ U L L _ ^ ^ ^ ^ ^ ^ ^ ^ ^ ^ ^ ^ Q O ) 8 ^ ^ ^ ^ ^ ^ ^ ^ ^ ^ ^ U L ` E ^ ",
"O O O O O O O O O O O O O O O O O O O O O O O O O O O O O O O O O O O O O O O O O O O O O O O O O O O O O O O O O O O O O O O O ",
"H H H H H H H H H H H F W , A H H H H H H H y ' / D H H H H H H H H Y E < 4 H H H H H H H H H H H A , W F H H H H H H I 8 E T H ",
"h h h h h h h h h h h u / p N h h h h h h h g 9 U x h h h h h h h h ] ' D w h h h h h h h h h h h N p / u h h h h h h [ -   { h ",
"V V V V V V V V V V V I L D V V V V V V V V j = } p V V V V V V V V H ( , c V V V V V V V V V V V V D L I V V V V V V u   8 l V ",
": : : : : : : : : : : d W ! : : : : : : : : 9 < / F : : : : : : : : Z Q ( T : : : : : : : : : : : 4 ! W d : : : : : : R U Q - : ",
": : : : : : : : : : : d W ! : : : : : : : : 9 < / F : : : : : : : : Z Q ( T : : : : : : : : : : : 4 ! W d : : : : : : R U Q - : ",
": : : : : : : : : : : d W ' I : : : : : : : 1 ^ / = : : : : : : : : Z Q ( R : : : : : : : : : : : I ' W d : : : : : : R U Q Z : ",
"R R R R R R R R R R R ! W ^ R R R R R R R R Z U L K R R R R R R R R d / E F R R R R R R R R R R R 3 ^ W ! R R R R R R F E ) 7 R ",
"P P P P P P P P P P P 8 W _ d P P P P P P P K } L < P P P P P P P P ~ L Q K P P P P P P P P P P P d _ W 8 P P P P P P   Q | ~ P ",
"E E E E E E E E E E E / O L E E E E E E E E } L W / E E E E E E E E Q W L Q E E E E E E E E E E E E L O / E E E E E E Q L W Q E ",
"( ( ( ( ( Q W L U ( ( ( ( ( ( ( U / O Q ( ( ( ( ( ( ( ( ( ( E L L E ( ( ( ( ( ( ( ( ( ( Q O / U ( ( ( ( ( U / W Q ( ( ( ( ( ( ( ",
"x x x x x e E d u x x x x x x x x - W T x x x x x x x x x x l < < l x x x x x x x x x x T W - x x x x x x c P Q 4 x x x x x x x ",
"g g g g g f ( 3 i g g g g g g g g e L l g g g g g g g g g g  ., ,  .g g g g g g g g g g l L e g g g g g g w T E u g g g g g g g ",
"t t t t t I Q , ..t t t t t t t t 2 W R t t t t t t t t t t X.^ ^ X.t t t t t t t t t t R W 2 t t t t t t J 7 ) 9 t t t t t t t ",
": : : : : F / ^ 9 : : : : : : : :   W d : : : : : : : : : : D E E D : : : : : : : : : : d W   : : : : : : 9 < L = : : : : : : : ",
": : : : : F / ^ 9 : : : : : : : :   W d : : : : : : : : : : D E E D : : : : : : : : : : d W   : : : : : : 9 < L = : : : : : : : ",
"9 9 9 9 9 P / 8 R 9 9 9 9 9 9 9 9 ' W K 9 9 9 9 9 9 9 9 9 9 Z E E Z 9 9 9 9 9 9 9 9 9 9 K W ' 9 9 9 9 9 9 T ^ L 7 9 9 9 9 9 9 9 ",
"D D D D D   L _ F D D D D D D D D ^ W ~ D D D D D D D D D D d Q Q d D D D D D D D D D D ~ W ^ D D D D D D 2 U L ! D D D D D D D ",
"          ( ` Q '                 E O _                     ^ | | ^                     _ O E             ' Q W (               ",
"/ / / / / L O W / / / / / / / / / ` O L / / / / / / / / / / L W W L / / / / / / / / / / L O ` / / / / / / / W O L / / / / / / / ",
"2 2 2 2 2 2 2 2 2 2 2 < W ( 2 2 2 2 2 2 2 2 2 2 7 E L ! 2 2 2 2 2 2 2 2 2 2 ' L E P 2 2 2 2 2 2 8 O < 2 2 2 2 2 2 2 2 d Q /   2 ",
"o.o.o.o.o.o.o.o.o.o.o.p L 1 i o.o.o.o.o.o.o.o.o. .2 U J o.o.o.o.o.o.o.o.o.o.O.E - { o.o.o.o.o.o.; W e o.o.o.o.o.o.o.o.S 7 < c o.",
"[ [ [ [ [ [ [ [ [ [ [ X.L 1 i [ [ [ [ [ [ [ [ [ ] 2 ( +.[ [ [ [ [ [ [ [ [ [ O.E - n [ [ [ [ [ [ I W y [ [ [ [ [ [ [ [ r 7 < c [ ",
"O.O.O.O.O.O.O.O.O.O.O.Z W d l O.O.O.O.O.O.O.O.O.y ' Q Y O.O.O.O.O.O.O.O.O.O.R / ! X.O.O.O.O.O.O.P W F O.O.O.O.O.O.O.O.: ^ E 9 O.",
": : : : : : : : : : : d W ! : : : : : : : : : : T 8 / 2 : : : : : : : : : : F / < 9 : : : : : :   @., : : : : : : : : R U Q - : ",
": : : : : : : : : : : d W ! : : : : : : : : : : T 8 / 2 : : : : : : : : : : F / < 9 : : : : : :   @., : : : : : : : : R U Q - : ",
"T T T T T T T T T T T   W < T T T T T T T T T T D U / 7 T T T T T T T T T T d L 8 3 T T T T T T ' O ! T T T T T T T T Z _ Q = T ",
"Z Z Z Z Z Z Z Z Z Z Z < W ( F Z Z Z Z Z Z Z Z Z P E L ! Z Z Z Z Z Z Z Z Z Z ! L _ P Z Z Z Z Z Z 8 O ^ Z Z Z Z Z Z Z Z d Q / K Z ",
"< < < < < < < < < < < } O Q ^ < < < < < < < < < 8 / W _ < < < < < < < < < < E W / 8 < < < < < < Q O Q < < < < < < < < ( L L U < ",
"W W W W W W W W W W W W O O W W W W W W W W W W W O O W W W W W W W W W W W W O O W W W W W W W O O @.W W W W W W W W W O O W W ",
"y y y - Q 8 9 y y y y y y y y y y   W 7 y y y y y y y y y y y y 3 E U T y y y y y y y y 7 W   y y y y y y 4 ' / 2 y y y y y y y ",
"z z z r < 3 [ z z z z z z z z z z p L ..z z z z z z z z z z z z ] K F M z z z z z z z z ..L p z z z z z z B 9 _ t z z z z z z z ",
"n n n l U 7 t n n n n n n n n n ] R W I n n n n n n n n n n n n ..<   c n n n n n n n n I W Y ] n n n n n r 2 Q X.n n n n n n n ",
": : : Z Q 8 T : : : : : : : : : :   W d : : : : : : : : : : : : D E U R : : : : : : : : d W   : : : : : : 9 < | = : : : : : : : ",
": : : Z Q 8 T : : : : : : : : : :   W d : : : : : : : : : : : : D E U R : : : : : : : : d W   : : : : : : 9 < L = : : : : : : : ",
": : : 2 Q 8 T : : : : : : : : : : ! W d : : : : : : : : : : : : - } U R : : : : : : : : d W ! : : : : : : 9 < L = : : : : : : : ",
"R R R d / _ Z R R R R R R R R R R < W ! R R R R R R R R R R R R P Q E F R R R R R R R R ! W < R R R R R R D ( L K R R R R R R R ",
"P P P ' L Q K P P P P P P P P P P U @.8 P P P P P P P P P P P P ! / Q K P P P P P P P P 8 @.U P P P P P P d E ` < P P P P P P P ",
"U U U Q W L E U U U U U U U U U U / O / U U U U U U U U U U U U Q W L } U U U U U U U U / O / U U U U U U E L W Q U U U U U U U ",
"Q Q Q Q Q Q Q Q Q Q Q L O L Q Q Q Q Q Q Q Q Q Q Q W W / Q Q Q Q Q Q Q Q Q Q / W L Q Q Q Q Q Q Q Q Q L O L Q Q Q Q Q Q / W W / Q ",
"t t t t t t t t t t t R L F c t t t t t t t t t O.  E 4 t t t t t t t t t t ; Q , J t t t t t t t c F L Y t t t t t t H ' U e t ",
"m m m m m m m m m m m O.L e C m m m m m m m m m [ 3 ^ j m m m m m m m m m m t U T w m m m m m m m C e | ..m m m m m m #.2 ! s m ",
"j j j j j j j j j j j T L 2 j j j j j j j j j j J , E e j j j j j j j j j j 4 Q 7 u j j j j j j j G 2 L T j j j j j j O.' ( X.j ",
": : : : : : : : : : : d W ! : : : : : : : : : : T 8 / 2 : : : : : : : : : : F / < 9 : : : : : : : 4 ! W d : : : : : : R U Q - : ",
": : : : : : : : : : : d W ! : : : : : : : : : : T 8 / 2 : : : : : : : : : : F / < 9 : : : : : : : 4 ! W d : : : : : : R U Q - : ",
"I I I I I I I I I I I , W ' 9 I I I I I I I I I R 8 / = I I I I I I I I I I P | ^ T I I I I I I I 9 ' W , I I I I I I D U Q 2 I ",
"D D D D D D D D D D D ' W 8 D D D D D D D D D D F _ | K D D D D D D D D D D   L U 2 D D D D D D D D 8 W ' D D D D D D P E / d D ",
"K K K K K K K K K K K U W E K K K K K K K K K K ! Q L ^ K K K K K K K K K K 8 W Q ! K K K K K K K K E W U K K K K K K ~ / L ^ K ",
"Q Q Q Q Q Q Q Q Q Q Q L O L ) Q Q Q Q Q Q Q Q Q / W W | Q Q Q Q Q Q Q Q Q Q L @.W / Q Q Q Q Q Q Q ) L O L Q Q Q Q Q Q / W W / Q ",
"O O O O O O O O O O O O O O O O O O O O O O O O O O O O O O O O O O O O O O O O O O O O O O O O O O O O O O O O O O O O O O O O "
};
